<?xml version="1.0" encoding="UTF-8"?>
<!DOCTYPE svg PUBLIC "-//W3C//DTD SVG 1.1//EN" "http://www.w3.org/Graphics/SVG/1.1/DTD/svg11.dtd">
<!-- Creator: CorelDRAW -->
<svg xmlns="http://www.w3.org/2000/svg" xml:space="preserve" width="68.4627mm" height="29.9545mm" version="1.1" style="shape-rendering:geometricPrecision; text-rendering:geometricPrecision; image-rendering:optimizeQuality; fill-rule:evenodd; clip-rule:evenodd"
viewBox="0 0 1948.87 852.69"
 xmlns:xlink="http://www.w3.org/1999/xlink"
 xmlns:xodm="http://www.corel.com/coreldraw/odm/2003">
 <defs>
  <style type="text/css">
   <![CDATA[
    .fil0 {fill:#CCCCCC;fill-rule:nonzero}
    .fil1 {fill:#CCCCCC;fill-rule:nonzero}
    .fil2 {fill:url(#id0);fill-rule:nonzero}
    .fil3 {fill:url(#id1);fill-rule:nonzero}
   ]]>
  </style>
  <linearGradient id="id0" gradientUnits="objectBoundingBox" x1="50.2914%" y1="0%" x2="49.7087%" y2="101.104%">
   <stop offset="0" style="stop-opacity:1; stop-color:#A26A2D"/>
   <stop offset="0.54902" style="stop-opacity:1; stop-color:#EBB750"/>
   <stop offset="1" style="stop-opacity:1; stop-color:#A26A2D"/>
  </linearGradient>
  <linearGradient id="id1" gradientUnits="objectBoundingBox" xlink:href="#id0" x1="50.2685%" y1="0%" x2="49.7316%" y2="101.108%">
  </linearGradient>
 </defs>
 <g id="Camada_x0020_1">
  <metadata id="CorelCorpID_0Corel-Layer"/>
  <g id="_2040385681168">
   <path class="fil0" d="M403.66 84.17c21.93,-7.59 40.7,-11.39 56.31,-11.39 15.61,0 32.05,1.26 49.34,3.79 17.29,2.53 46.6,3.8 87.94,3.8 41.33,0 73.81,-8.86 97.42,-26.57l5.06 2.53c-14.34,37.96 -39.64,64.95 -75.91,80.97 -36.27,16.03 -72.54,24.04 -108.81,24.04l-129.06 -3.79 -139.18 241.66c56.52,-37.96 113.03,-56.94 169.54,-56.94 37.11,0 67.48,9.28 91.1,27.83 23.62,18.56 35.43,45.97 35.43,82.24 0,55.67 -22.99,111.13 -68.96,166.38 -45.97,55.25 -100.8,99.53 -164.48,132.85 -63.68,33.32 -120.41,49.98 -170.18,49.98 -49.77,0 -81.82,-5.06 -96.16,-15.18l0 -8.86 7.59 -8.86 5.06 -2.53c20.25,7.59 46.39,11.39 78.45,11.39 70.85,0 142.55,-35.85 215.09,-107.55 72.54,-71.7 108.81,-142.98 108.81,-213.83 0,-26.15 -7.17,-46.18 -21.51,-60.1 -14.34,-13.92 -32.68,-20.88 -55.04,-20.88 -22.35,0 -42.39,3.37 -60.1,10.12 -17.71,6.75 -38.8,17.5 -63.26,32.26 -24.46,14.76 -40.91,24.25 -49.35,28.47l-7.59 -2.53 0 -7.59c5.9,-16.87 39.01,-78.02 99.32,-183.46 60.31,-105.44 94.68,-161.53 103.12,-168.28z"/>
   <path id="_1" class="fil0" d="M1101.38 192.98c0,50.61 -12.23,110.29 -36.69,179.04 -24.46,68.75 -55.88,134.96 -94.26,198.65 -38.38,63.68 -85.19,117.67 -140.44,161.95 -55.25,44.28 -107.55,66.43 -156.89,66.43 -49.35,0 -85.83,-15.82 -109.45,-47.45 -23.62,-31.63 -35.43,-70.64 -35.43,-117.04 0,-64.95 22.77,-142.97 68.32,-234.07 45.55,-91.1 104.8,-171.86 177.77,-242.3 72.96,-70.43 142.76,-105.65 209.4,-105.65 78.45,0 117.67,46.82 117.67,140.44zm-249.89 460.55c60.31,-80.13 109.02,-167.65 146.14,-262.54 37.11,-94.89 55.67,-171.02 55.67,-228.38 0,-57.36 -22.77,-86.04 -68.32,-86.04 -38.8,0 -81.61,24.67 -128.42,74.02 -46.82,49.35 -88.36,107.13 -124.63,173.34 -36.27,66.22 -66.64,132.85 -91.1,199.91 -24.46,67.06 -36.69,118.72 -36.69,155 0,63.26 25.72,94.89 77.18,94.89 53.14,0 109.87,-40.07 170.18,-120.2z"/>
   <path class="fil1" d="M1242.78 608.69c0,-19.88 1.08,-39.41 3.25,-58.57 8.68,0.72 13.38,1.81 14.46,1.45 2.89,-0.36 7.59,-1.81 6.51,-7.23 -0.36,-3.25 -7.59,-6.15 -19.52,-7.95 13.01,-102.31 47.72,-187.99 47.72,-193.41 0,-3.25 -17.35,-9.76 -29.64,-9.76 -17.71,0 -61.82,98.7 -125.09,199.2 -13.74,0.72 -27.11,1.81 -38.68,3.62 -39.41,5.78 -110.63,20.97 -108.82,31.81 1.08,9.76 6.87,18.8 13.38,17.71 13.01,-1.81 43.38,-20.97 108.46,-30.73 3.98,-0.36 7.95,-1.08 11.93,-1.45 -63.99,97.61 -146.42,190.52 -240.41,190.52 -77,0 -118.58,-49.53 -118.58,-106.29 0,-75.92 73.75,-151.48 128.7,-151.48 17.71,0 36.15,6.51 36.15,-3.98 0,-10.85 -1.81,-36.15 -46.27,-36.15 -61.1,0 -157.26,90.74 -157.26,174.25 0,83.51 54.23,140.99 150.03,140.99 117.86,0 216.55,-113.88 279.09,-211.13 18.8,-1.45 35.07,-2.17 48.81,-2.17 -3.25,23.5 -5.42,47 -5.42,66.52 0,86.4 48.08,126.53 95.08,126.53 12.65,0 22.78,-7.23 22.78,-11.21 0,-4.34 -76.64,3.98 -76.64,-121.11zm-33.62 -76.28c-12.65,-0.72 -26.03,-1.08 -39.41,-0.72 39.77,-65.07 62.18,-118.58 62.18,-118.58 0,0 -14.1,58.2 -22.78,119.3z"/>
   <path id="_1_0" class="fil1" d="M1413.42 692.57c41.57,0 129.42,-128.7 155.45,-165.21 4.34,-6.15 -3.98,-10.85 -9.04,-4.34 -19.16,26.39 -101.95,138.82 -126.17,138.82 -39.41,0 75.2,-107.37 75.2,-155.82 0,-18.08 -6.87,-28.92 -23.14,-28.92 -46.64,0 -116.05,96.16 -119.3,96.16 -2.89,0 27.84,-48.08 27.84,-70.86 0,-22.78 -31.81,-28.2 -31.81,-23.86 0,47.36 -100.5,195.58 -100.5,199.56 -0.36,2.89 9.76,14.46 23.5,14.46 14.82,0 137.74,-190.52 176.78,-190.52 35.79,0 -78.09,95.08 -78.09,155.45 0,0 -1.81,35.07 29.28,35.07z"/>
   <path id="_2" class="fil1" d="M1739.15 523.01c-14.1,19.16 -38.68,46.27 -68.69,59.65 13.01,-24.94 21.33,-48.44 21.33,-64.35 0,-17.71 -7.95,-41.21 -38.68,-41.21 -28.56,0 -53.5,15.18 -67.24,40.49 -3.62,-1.08 -9.04,-1.81 -18.08,-1.81 -23.5,0 -63.27,82.43 -63.27,127.98 0,46.27 28.56,48.81 41.57,48.81 39.41,0 83.15,-43.74 112.43,-90.02 38.32,-14.46 70.13,-47.72 89.66,-75.2 4.34,-6.15 -4.34,-10.85 -9.04,-4.34zm-178.23 144.25c-8.68,0 -20.61,-6.15 -20.61,-24.22 0,-27.11 19.16,-59.29 34.34,-83.15 0,1.08 -0.36,2.53 -0.36,3.62 0,22.78 6.15,46.64 44.83,46.64 5.42,0 10.85,-0.36 15.91,-1.08 -21.69,31.45 -49.17,58.2 -74.11,58.2zm86.04 -77.73c-3.98,0.72 -8.31,1.08 -12.65,1.08 -12.65,0 -29.28,-8.68 -29.28,-30.73 0,-22.05 24.22,-60.01 52.42,-60.01 11.57,0 16.27,7.23 16.27,18.08 0,15.18 -10.48,43.74 -26.75,71.58z"/>
   <path id="_3" class="fil1" d="M1892.43 523.01c-14.46,19.52 -65.07,92.19 -97.61,119.3 2.53,-7.59 3.62,-16.99 3.62,-25.31 0,-41.21 -18.44,-82.07 -18.44,-125.81 0,-28.56 27.48,-43.38 27.48,-55.31 0,-3.98 -4.7,-7.59 -11.57,-7.59 -28.2,0 -60.74,24.94 -60.74,57.12 0,42.3 45.55,186.18 -16.63,186.18 -20.25,0 -27.84,-13.01 -27.84,-26.03 0,-13.38 -13.74,-15.18 -13.74,3.25 0,20.61 13.74,43.74 45.91,43.74 1.81,0 5.42,0 5.42,0 68.33,0 147.14,-128.7 173.17,-165.21 4.34,-6.15 -4.34,-10.85 -9.04,-4.34z"/>
  </g>
  <path class="fil2" d="M401.97 214.38c0,13.74 -4.94,26.51 -14.82,38.32 -13.98,16.87 -32.66,29.04 -56.04,36.51 -17.35,5.54 -34.22,8.31 -50.61,8.31 -6.03,0 -11.93,-0.36 -17.71,-1.08 -37.84,-4.82 -69.89,-13.13 -96.16,-24.94 -23.86,17.59 -49.05,26.39 -75.56,26.39 -31.33,0 -50.73,-8.68 -58.2,-26.03 -1.69,-4.1 -2.53,-8.92 -2.53,-14.46 0,-5.54 2.77,-11.45 8.31,-17.71 8.68,-9.64 20.73,-14.46 36.15,-14.46 10.12,0 19.28,1.45 27.48,4.34 8.2,2.89 18.32,7.59 30.37,14.1 12.05,6.51 20.97,11.21 26.75,14.1 10.6,-10.36 21.57,-24.77 32.9,-43.2 11.33,-18.44 21.27,-36.51 29.83,-54.23 8.55,-17.71 19.46,-37.42 32.72,-59.11 13.26,-21.69 26.75,-40.13 40.49,-55.31l20.61 -23.5c-19.04,-3.37 -40.01,-5.06 -62.9,-5.06 -22.9,0 -48.08,3.01 -75.56,9.04 -37.6,7.95 -66.52,24.1 -86.76,48.44 -12.29,14.7 -18.44,28.68 -18.44,41.94 0,17.59 8.56,29.04 25.67,34.34 6.03,1.69 11.33,2.53 15.91,2.53 4.58,0 9.88,-0.84 15.91,-2.53 6.03,-1.69 11.87,-5.24 17.54,-10.67 5.66,-5.42 9.76,-10.66 12.29,-15.72 2.53,-5.06 3.79,-8.86 3.79,-11.39 0,-2.53 1.2,-3.79 3.62,-3.79 2.41,0.24 3.73,1.93 3.98,5.06l0 0.36c-2.65,17.59 -12.05,30.97 -28.2,40.13 -9.88,5.3 -19.76,7.95 -29.64,7.95l-18.8 -3.25c-25.55,-8.92 -38.32,-25.55 -38.32,-49.89 0,-16.63 7.35,-33.02 22.05,-49.17 23.62,-26.51 58.32,-43.02 104.12,-49.53 22.17,-3.13 45.25,-4.7 69.23,-4.7 23.98,0 48.38,2.65 73.21,7.95 6.75,-5.78 12.65,-9.64 17.71,-11.57 5.06,-1.93 8.01,-2.89 8.86,-2.89 0.84,0 1.38,0.12 1.63,0.36 1.45,0 1.75,0.78 0.91,2.35 -0.85,1.57 -3.5,3.8 -7.95,6.69 -4.46,2.89 -7.17,5.54 -8.14,7.95 32.78,8.43 56.4,20.49 70.86,36.15 7.71,8.68 11.57,17.53 11.57,26.57 0,9.04 -2.65,18.14 -7.95,27.3 -6.99,12.05 -18.32,21.15 -33.98,27.29 -15.66,6.15 -31.45,9.58 -47.36,10.3 15.43,4.82 29.76,11.57 43.02,20.25 18.8,12.29 28.2,28.68 28.2,49.17zm-126.53 73.03c26.99,0 49.89,-7.71 68.69,-23.14 20.49,-16.39 30.73,-34.1 30.73,-53.14 0,-19.76 -10.48,-34.71 -31.45,-44.83 -7.71,-3.62 -17.17,-7.17 -28.38,-10.67 -11.21,-3.49 -20.25,-6.44 -27.11,-8.86 -6.87,-2.41 -10.79,-4.7 -11.75,-6.87 0,-4.58 3.5,-6.99 10.48,-7.23 4.58,0 11.57,0.36 20.97,1.08 9.4,0.72 17.47,1.02 24.22,0.9 6.75,-0.12 14.88,-2.53 24.4,-7.23 9.52,-4.7 17.65,-10.78 24.4,-18.26 10.85,-12.05 16.27,-23.38 16.27,-33.98 0,-22.66 -21.21,-38.92 -63.63,-48.81 -12.77,17.59 -35.67,54.77 -68.69,111.53 -33.02,56.76 -58.45,94.78 -76.28,114.06l-13.74 13.01c27.23,11.33 56.52,18.56 87.85,21.69 4.58,0.48 8.92,0.72 13.01,0.72zm-124 -22.78c-28.2,-13.5 -46.03,-21.57 -53.5,-24.22 -7.47,-2.65 -14.88,-3.98 -22.23,-3.98 -7.35,0 -13.2,2.59 -17.54,7.77 -4.34,5.18 -6.51,9.88 -6.51,14.1 0,4.22 0.97,8.26 2.89,12.11 5.3,10.85 16.39,16.27 33.26,16.27 22.9,0 44.11,-7.35 63.63,-22.05z"/>
  <path id="_1_1" class="fil2" d="M489.46 157.26c17.59,0 26.39,11.09 26.39,33.26 0,10.12 -2.65,20.97 -7.95,32.54 -6.75,15.66 -16.87,29.89 -30.37,42.66 3.13,6.03 8.8,9.04 16.99,9.04 6.51,0 12.65,-3.25 18.44,-9.76 7.23,-7.47 12.41,-14.04 15.55,-19.7 3.13,-5.66 5.42,-9.82 6.87,-12.47 1.45,-2.65 3.31,-6.45 5.6,-11.39 2.29,-4.94 3.67,-7.95 4.16,-9.04 0.48,-1.08 1.33,-1.63 2.53,-1.63 2.41,-0.24 3.62,0.6 3.62,2.53 0,0.72 -0.24,1.57 -0.72,2.53l-2.17 5.06c-1.45,3.37 -2.53,5.78 -3.25,7.23 -0.72,1.45 -1.99,4.04 -3.79,7.77 -1.81,3.74 -3.38,6.69 -4.7,8.86 -1.33,2.17 -3.13,5.06 -5.42,8.68 -2.29,3.62 -4.34,6.51 -6.15,8.68 -1.81,2.17 -4.04,4.58 -6.69,7.23 -2.65,2.65 -5.18,4.7 -7.59,6.15 -6.03,3.62 -11.69,5.42 -16.99,5.42 -9.88,0 -17.59,-3.13 -23.14,-9.4 -11.09,8.2 -21.33,12.29 -30.73,12.29 -17.59,0 -26.39,-11.09 -26.39,-33.26 0,-10.12 2.65,-20.97 7.95,-32.54 7.23,-16.87 17.41,-31.21 30.55,-43.02 13.13,-11.81 25.61,-17.71 37.42,-17.71zm3.98 11.21c-6.51,0 -14.22,4.34 -23.14,13.01 -8.92,8.68 -16.87,20.49 -23.86,35.43 -8.43,17.35 -12.65,31.57 -12.65,42.66 0,11.09 4.22,16.63 12.65,16.63 6.03,0 12.77,-3.25 20.25,-9.76 -3.86,-5.54 -5.78,-11.45 -5.78,-17.71 0.48,-10.36 4.7,-15.55 12.65,-15.55 3.13,0 5.72,1.08 7.77,3.25 2.05,2.17 3.07,4.16 3.07,5.96 0,1.81 -0.24,3.68 -0.72,5.6 4.1,-6.03 8.8,-14.58 14.1,-25.67 6.03,-12.29 9.04,-24.34 9.04,-36.15 0,-11.81 -4.46,-17.71 -13.38,-17.71z"/>
  <path id="_2_2" class="fil2" d="M621.05 262.83c0,7.71 3.13,11.57 9.4,11.57 11.33,0 26.39,-18.92 45.19,-56.76 0.72,-1.45 1.39,-2.89 1.99,-4.34 0.6,-1.45 1.57,-2.41 2.89,-2.89 1.32,-0.48 2.23,-0.18 2.71,0.9 0.48,1.08 0.24,2.83 -0.72,5.24 -19.28,44.83 -38.8,67.24 -58.57,67.24 -6.51,0 -11.69,-2.89 -15.55,-8.68 -3.86,-5.78 -5.78,-11.51 -5.78,-17.17 0,-5.66 0.6,-10.91 1.81,-15.72 -13.98,23.14 -26.03,36.27 -36.15,39.41 -2.89,1.2 -5.72,1.81 -8.49,1.81 -2.77,0 -5.49,-0.36 -8.14,-1.08 -11.81,-3.13 -17.71,-12.53 -17.71,-28.2 0,-10.6 2.71,-22.35 8.14,-35.25 5.42,-12.89 13.07,-25.24 22.96,-37.05 9.88,-11.81 21.81,-19.76 35.79,-23.86 5.06,-1.69 11.03,-2.53 17.9,-2.53 6.87,0 14.52,2.17 22.96,6.51 16.39,-30.85 30.37,-59.41 41.94,-85.68 3.37,-7.95 6.69,-13.07 9.94,-15.37 3.25,-2.29 6.27,-3.43 9.04,-3.43 2.77,0 4.46,0 5.06,0 0.6,0 2.89,0.3 6.87,0.9 3.98,0.6 7.05,0.79 9.22,0.54 -5.54,5.06 -20.25,29.64 -44.11,73.75 -30.37,56.4 -48.69,94 -54.95,112.79 -2.41,6.99 -3.62,12.77 -3.62,17.35zm17.71 -95.08c-3.13,-3.13 -7.53,-4.7 -13.19,-4.7 -5.66,0 -13.56,4.22 -23.68,12.65 -16.15,13.5 -29.53,30.13 -40.13,49.89 -6.99,13.01 -10.48,23.74 -10.48,32.18 0,3.86 0.78,7.35 2.35,10.48 1.57,3.13 4.04,4.7 7.41,4.7 8.2,0 18.32,-8.43 30.37,-25.31 12.05,-16.87 27.84,-43.5 47.36,-79.9z"/>
  <path id="_3_3" class="fil2" d="M787.35 185.82c-4.34,4.34 -10.48,14.16 -18.44,29.46 -7.95,15.31 -12.71,26.75 -14.28,34.34 -1.57,7.59 -2.35,13.74 -2.35,18.44 0,4.7 1.81,7.05 5.42,7.05 4.58,0 10.24,-4.22 16.99,-12.65 9.88,-12.29 19.64,-28.32 29.28,-48.08 0.97,-2.17 2.05,-3.37 3.25,-3.62 1.93,-0.72 2.89,0 2.89,2.17 0,1.2 -0.36,2.65 -1.08,4.34 -22.17,44.83 -40.85,67.24 -56.04,67.24 -6.99,0 -12.65,-3.37 -16.99,-10.12 -2.17,-3.62 -3.25,-8.43 -3.25,-14.46 0,-6.03 1.2,-13.38 3.62,-22.05 -19.28,31.09 -35.91,46.64 -49.89,46.64 -3.86,0 -7.35,-1.2 -10.48,-3.62 -7.23,-5.06 -10.85,-13.74 -10.85,-26.03 0,-23.62 10.24,-47.6 30.73,-71.94 11.57,-13.5 25.79,-22.29 42.66,-26.39 4.58,-1.2 8.92,-1.81 13.01,-1.81 11.09,0 20.49,3.86 28.2,11.57 2.41,2.65 3.13,5.18 2.17,7.59 -0.97,2.41 -3.01,3.37 -6.15,2.89 -2.65,-8.68 -8.43,-13.01 -17.35,-13.01 -10.36,0 -23.14,8.2 -38.32,24.58 -8.68,9.64 -16.75,20.97 -24.22,33.98 -9.4,15.66 -14.1,28.2 -14.1,37.6 0,9.4 3.01,14.1 9.04,14.1 14.46,0 33.38,-22.17 56.76,-66.52 4.58,-8.92 8.43,-15 11.57,-18.26 3.13,-3.25 7.11,-4.88 11.93,-4.88 0.97,0 3.44,0.36 7.41,1.08 3.98,0.72 6.93,0.84 8.86,0.36z"/>
  <path id="_4" class="fil2" d="M835.07 276.92c3.13,0.48 5.3,0.72 6.51,0.72 9.64,0 19.16,-5.66 28.56,-16.99 5.06,-6.27 14.1,-22.05 27.11,-47.36 0.48,-1.2 1.33,-1.81 2.53,-1.81 2.17,-0.24 3.25,0.6 3.25,2.53 0,0.48 -0.54,1.87 -1.63,4.16 -1.08,2.29 -2.11,4.58 -3.07,6.87 -0.97,2.29 -2.53,5.6 -4.7,9.94 -2.17,4.34 -4.04,7.83 -5.6,10.48 -1.57,2.65 -3.56,5.9 -5.97,9.76 -2.41,3.86 -4.82,6.87 -7.23,9.04l-7.59 7.95c-4.1,4.1 -8.92,6.99 -14.46,8.68 -8.92,2.89 -17.59,3.13 -26.03,0.72 -5.54,2.41 -10.48,3.62 -14.82,3.62 -17.11,0 -27.48,-6.75 -31.09,-20.25 -0.72,-3.13 -1.08,-6.93 -1.08,-11.39 0,-4.46 1.51,-8.74 4.52,-12.83 3.01,-4.1 6.21,-6.27 9.58,-6.51 12.29,-23.38 22.78,-44.47 31.45,-63.27 9.64,-20.49 20.85,-30.73 33.62,-30.73 3.37,0 6.69,0.78 9.94,2.35 3.25,1.57 4.46,3.32 3.62,5.24 -0.85,1.93 -2.59,2.29 -5.24,1.08 -2.65,-1.2 -4.94,-1.81 -6.87,-1.81 -1.93,0 -3.62,0.36 -5.06,1.08 -8.2,3.86 -12.29,12.17 -12.29,24.94 0,6.75 0.97,12.29 2.89,16.63 1.93,4.34 4.1,9.04 6.51,14.1 5.54,12.53 8.31,22.78 8.31,30.73 0,7.95 -2.53,15.79 -7.59,23.5 -5.06,7.71 -11.09,13.98 -18.08,18.8zm-12.29 -2.53c10.6,-8.2 15.91,-21.45 15.91,-39.77 0,-7.47 -0.84,-17.71 -2.53,-30.73 -1.69,-13.01 -2.53,-21.81 -2.53,-26.39 0,-4.58 0.12,-7.71 0.36,-9.4 -18.32,36.63 -29.64,58.93 -33.98,66.88 5.06,0 7.59,3.62 7.59,10.85 0,14.22 5.06,23.74 15.18,28.56zm-27.11 -9.76c0,1.45 0.12,3.01 0.36,4.7 1.93,6.51 6.39,9.76 13.38,9.76 2.89,0 5.3,-0.48 7.23,-1.45 -8.92,-5.54 -13.74,-14.58 -14.46,-27.11 -4.34,4.34 -6.51,9.04 -6.51,14.1z"/>
  <path id="_5" class="fil2" d="M1066.44 262.83c0,7.71 3.13,11.57 9.4,11.57 11.33,0 26.39,-18.92 45.19,-56.76 0.72,-1.45 1.39,-2.89 1.99,-4.34 0.6,-1.45 1.57,-2.41 2.89,-2.89 1.32,-0.48 2.23,-0.18 2.71,0.9 0.48,1.08 0.24,2.83 -0.72,5.24 -19.28,44.83 -38.8,67.24 -58.57,67.24 -6.51,0 -11.69,-2.89 -15.55,-8.68 -3.86,-5.78 -5.78,-11.51 -5.78,-17.17 0,-5.66 0.6,-10.91 1.81,-15.72 -13.98,23.14 -26.03,36.27 -36.15,39.41 -2.89,1.2 -5.72,1.81 -8.49,1.81 -2.77,0 -5.49,-0.36 -8.14,-1.08 -11.81,-3.13 -17.71,-12.53 -17.71,-28.2 0,-10.6 2.71,-22.35 8.14,-35.25 5.42,-12.89 13.07,-25.24 22.96,-37.05 9.88,-11.81 21.81,-19.76 35.79,-23.86 5.06,-1.69 11.03,-2.53 17.9,-2.53 6.87,0 14.52,2.17 22.96,6.51 16.39,-30.85 30.37,-59.41 41.94,-85.68 3.37,-7.95 6.69,-13.07 9.94,-15.37 3.25,-2.29 6.27,-3.43 9.04,-3.43 2.77,0 4.46,0 5.06,0 0.6,0 2.89,0.3 6.87,0.9 3.98,0.6 7.05,0.79 9.22,0.54 -5.54,5.06 -20.25,29.64 -44.11,73.75 -30.37,56.4 -48.69,94 -54.95,112.79 -2.41,6.99 -3.62,12.77 -3.62,17.35zm17.71 -95.08c-3.13,-3.13 -7.53,-4.7 -13.19,-4.7 -5.66,0 -13.56,4.22 -23.68,12.65 -16.15,13.5 -29.53,30.13 -40.13,49.89 -6.99,13.01 -10.48,23.74 -10.48,32.18 0,3.86 0.78,7.35 2.35,10.48 1.57,3.13 4.04,4.7 7.41,4.7 8.2,0 18.32,-8.43 30.37,-25.31 12.05,-16.87 27.84,-43.5 47.36,-79.9z"/>
  <path id="_6" class="fil2" d="M1138.75 228.12c-3.37,8.2 -5.06,17.35 -5.06,27.48 0,6.75 1.51,12.11 4.52,16.09 3.01,3.98 7.29,5.97 12.83,5.97 21.93,0 41.82,-20.61 59.65,-61.82 1.69,-3.86 3.73,-5.54 6.15,-5.06 0.97,0.24 1.45,0.84 1.45,1.81 0,0.97 -2.71,7.29 -8.13,18.98 -5.42,11.69 -10.91,21.15 -16.45,28.38 -12.29,16.87 -27.48,25.31 -45.55,25.31 -9.64,0 -17.83,-3.13 -24.58,-9.4 -6.75,-6.27 -10.12,-14.82 -10.12,-25.67 0,-10.85 2.59,-22.35 7.77,-34.53 5.18,-12.17 12.23,-23.5 21.15,-33.98 8.92,-10.48 19.16,-18.14 30.73,-22.96 5.54,-2.41 10.85,-3.62 15.91,-3.62 5.06,0 9.76,1.45 14.1,4.34 4.1,3.37 6.15,7.11 6.15,11.21 0,14.46 -8.68,28.32 -26.03,41.57 -5.3,4.1 -12.77,7.77 -22.41,11.02 -9.64,3.25 -16.99,4.88 -22.05,4.88zm60.74 -57.84c0,-4.82 -1.93,-7.23 -5.78,-7.23 -6.75,0 -16.99,8.31 -30.73,24.94 -8.2,10.12 -15.43,21.45 -21.69,33.98 4.1,0 10.06,-1.45 17.9,-4.34 7.83,-2.89 14.64,-6.75 20.42,-11.57 13.26,-11.33 19.88,-23.26 19.88,-35.79z"/>
  <path id="_7" class="fil2" d="M1479.3 275.12c-26.75,20.49 -53.87,30.73 -81.34,30.73 -28.92,0 -50.01,-10.73 -63.27,-32.18 -9.4,-15.66 -14.1,-33.08 -14.1,-52.24 0,-19.16 3.5,-38.26 10.48,-57.3 -16.87,-11.33 -26.15,-26.51 -27.84,-45.55 -0.48,-3.62 -0.72,-7.23 -0.72,-10.85 0,-28.92 12.41,-53.14 37.24,-72.67 26.51,-20.73 57.84,-31.09 94,-31.09 36.15,0 66.1,10.06 89.84,30.19 23.74,20.13 35.61,48.87 35.61,86.22 0,2.41 0,4.82 0,7.23 24.1,-15.91 39.77,-31.09 47,-45.55 1.2,-2.65 2.77,-3.8 4.7,-3.44 1.93,0.36 2.89,1.15 2.89,2.35 0,1.2 -0.72,2.89 -2.17,5.06 -14.22,22.41 -32.18,40.49 -53.87,54.23 -0.97,11.33 -4.04,24.94 -9.22,40.85 -5.18,15.91 -13.92,32.35 -26.21,49.35 -12.29,16.99 -26.63,31.88 -43.02,44.65zm58.57 -155.09c0,-40.73 -13.01,-70.86 -39.04,-90.38 -17.35,-13.01 -37.6,-19.52 -60.74,-19.52 -6.75,0 -13.62,0.6 -20.61,1.81 -29.4,4.34 -53.39,16.51 -71.94,36.51 -15.66,17.35 -23.5,36.99 -23.5,58.93 0,19.04 5.18,33.02 15.55,41.94 9.4,-20 23.26,-40.25 41.57,-60.74 20,-22.41 41.09,-36.15 63.27,-41.21 3.62,-0.72 8.26,-1.08 13.92,-1.08 5.66,0 12.23,2.29 19.7,6.87 1.69,0.97 2.59,1.93 2.71,2.89 0.12,0.97 -0.42,1.69 -1.63,2.17 -1.2,0.48 -3.01,0.3 -5.42,-0.54 -2.41,-0.84 -6.45,-1.26 -12.11,-1.26 -5.66,0 -13.8,2.89 -24.4,8.68 -10.6,5.78 -21.33,14.82 -32.18,27.11 -21.45,24.34 -37.12,47.48 -47,69.41 15.18,6.99 33.38,10.48 54.59,10.48 9.4,0 19.4,-0.6 30.01,-1.81 34.46,-4.58 66.64,-14.94 96.53,-31.09 0.48,-6.51 0.72,-12.9 0.72,-19.16zm-2.89 31.81c-40.25,21.45 -82.67,32.18 -127.26,32.18 -21.69,0 -40.73,-3.25 -57.12,-9.76 -7.47,19.52 -11.21,36.39 -11.21,50.61 0,33.26 10,54.83 30.01,64.71 10.85,5.06 21.63,7.59 32.36,7.59 10.72,0 21.15,-2.29 31.27,-6.87 21.21,-9.64 40.25,-24.7 57.12,-45.19 16.87,-20.49 29.64,-43.02 38.32,-67.6 3.37,-9.64 5.54,-18.2 6.51,-25.67z"/>
  <path id="_8" class="fil2" d="M1555.22 262.83c0,-10.36 4.46,-22.9 13.38,-37.6 -3.86,0 -4.94,-1.93 -3.25,-5.78l6.51 -12.65c8.2,-15.66 14.94,-28.92 20.25,-39.77 2.41,-5.06 7.11,-7.59 14.1,-7.59l22.05 0c-8.68,6.27 -17.41,18.38 -26.21,36.33 -8.8,17.96 -15.61,32.06 -20.43,42.3 -4.82,10.24 -7.23,18.02 -7.23,23.32 0,5.3 0.91,9.04 2.71,11.21 1.81,2.17 4.28,3.25 7.41,3.25 4.58,0 10.97,-4.82 19.16,-14.46 12.77,-14.94 30.73,-46.39 53.87,-94.36 2.65,-5.06 7.35,-7.59 14.1,-7.59l19.52 0c-5.3,4.1 -9.46,8.31 -12.47,12.65 -3.01,4.34 -7.17,12.05 -12.47,23.14 -14.46,28.92 -22.53,48.08 -24.22,57.48 -0.72,3.37 -1.08,6.51 -1.08,9.4 0,7.71 2.65,11.81 7.95,12.29 13.01,0 29.04,-20.13 48.08,-60.37 1.45,-3.37 2.89,-4.7 4.34,-3.98 1.45,0.72 2.17,1.69 2.17,2.89 0,1.2 -1.08,3.98 -3.25,8.31 -2.17,4.34 -4.28,8.56 -6.33,12.65 -2.05,4.1 -5.18,9.7 -9.4,16.81 -4.22,7.11 -8.14,12.72 -11.75,16.81 -9.4,10.6 -18.62,15.91 -27.65,15.91 -9.04,0 -15.25,-3.98 -18.62,-11.93 -1.45,-3.62 -2.17,-8.2 -2.17,-13.74 0,-5.54 1.2,-12.41 3.62,-20.61 -17.59,30.85 -33.86,46.27 -48.81,46.27 -13.01,0 -20.61,-5.42 -22.78,-16.27 -0.72,-1.2 -1.08,-2.65 -1.08,-4.34z"/>
  <path id="_9" class="fil2" d="M1745.74 138.82c0,10.85 -6.87,21.09 -20.61,30.73 4.82,0.24 11.27,0.36 19.34,0.36 8.07,0 18.26,-0.6 30.55,-1.81 0.48,0.72 0.72,2.65 0.72,5.78 0,3.13 -1.45,7.77 -4.34,13.92 -2.89,6.15 -5.48,11.45 -7.77,15.91 -2.29,4.46 -4.46,8.68 -6.51,12.65 -2.05,3.98 -4.34,8.86 -6.87,14.64 -2.53,5.78 -4.64,11.09 -6.33,15.91 -6.03,18.32 -5.06,27.48 2.89,27.48 10.12,0 25.06,-20.13 44.83,-60.37 1.69,-3.13 3.07,-4.34 4.16,-3.62 1.08,0.72 1.63,1.63 1.63,2.71 0,1.08 -1.57,4.82 -4.7,11.21 -3.13,6.39 -6.51,12.95 -10.12,19.7 -3.62,6.75 -9.28,14.58 -16.99,23.5 -9.16,11.09 -17.96,16.63 -26.39,16.63 -9.4,0 -15.91,-5.66 -19.52,-16.99 -0.72,-2.17 -1.08,-5.42 -1.08,-9.76 0,-4.34 1.39,-10.12 4.16,-17.35 2.77,-7.23 7.17,-16.03 13.19,-26.39 6.03,-10.36 9.4,-16.45 10.12,-18.26 0.72,-1.81 1.08,-3.55 1.08,-5.24 0,-7.47 -9.64,-11.45 -28.92,-11.93l-4.34 11.57c-15.18,39.77 -29.76,66.4 -43.74,79.9 -2.41,2.17 -3.62,1.45 -3.62,-2.17 0,-0.72 0.24,-1.57 0.72,-2.53 13.5,-17.83 25.19,-38.92 35.07,-63.27 9.88,-24.34 16.75,-47.48 20.61,-69.41 1.45,-7.47 4.82,-11.21 10.12,-11.21 5.3,0 9.16,3.37 11.57,10.12 0.72,2.17 1.08,4.7 1.08,7.59z"/>
  <path id="_10" class="fil2" d="M1856.72 157.26c17.59,0 26.39,11.09 26.39,33.26 0,10.12 -2.65,20.97 -7.95,32.54 -6.75,15.66 -16.87,29.89 -30.37,42.66 3.13,6.03 8.8,9.04 16.99,9.04 6.51,0 12.65,-3.25 18.44,-9.76 7.23,-7.47 12.41,-14.04 15.55,-19.7 3.13,-5.66 5.42,-9.82 6.87,-12.47 1.45,-2.65 3.31,-6.45 5.6,-11.39 2.29,-4.94 3.67,-7.95 4.16,-9.04 0.48,-1.08 1.33,-1.63 2.53,-1.63 2.41,-0.24 3.62,0.6 3.62,2.53 0,0.72 -0.24,1.57 -0.72,2.53l-2.17 5.06c-1.45,3.37 -2.53,5.78 -3.25,7.23 -0.72,1.45 -1.99,4.04 -3.79,7.77 -1.81,3.74 -3.38,6.69 -4.7,8.86 -1.33,2.17 -3.13,5.06 -5.42,8.68 -2.29,3.62 -4.34,6.51 -6.15,8.68 -1.81,2.17 -4.04,4.58 -6.69,7.23 -2.65,2.65 -5.18,4.7 -7.59,6.15 -6.03,3.62 -11.69,5.42 -16.99,5.42 -9.88,0 -17.59,-3.13 -23.14,-9.4 -11.09,8.2 -21.33,12.29 -30.73,12.29 -17.59,0 -26.39,-11.09 -26.39,-33.26 0,-10.12 2.65,-20.97 7.95,-32.54 7.23,-16.87 17.41,-31.21 30.55,-43.02 13.13,-11.81 25.61,-17.71 37.42,-17.71zm3.98 11.21c-6.51,0 -14.22,4.34 -23.14,13.01 -8.92,8.68 -16.87,20.49 -23.86,35.43 -8.43,17.35 -12.65,31.57 -12.65,42.66 0,11.09 4.22,16.63 12.65,16.63 6.03,0 12.77,-3.25 20.25,-9.76 -3.86,-5.54 -5.78,-11.45 -5.78,-17.71 0.48,-10.36 4.7,-15.55 12.65,-15.55 3.13,0 5.72,1.08 7.77,3.25 2.05,2.17 3.07,4.16 3.07,5.96 0,1.81 -0.24,3.68 -0.72,5.6 4.1,-6.03 8.8,-14.58 14.1,-25.67 6.03,-12.29 9.04,-24.34 9.04,-36.15 0,-11.81 -4.46,-17.71 -13.38,-17.71z"/>
  <path class="fil3" d="M158.99 793.51c-24.06,18.42 -48.45,27.63 -73.16,27.63 -26.01,0 -44.98,-9.64 -56.9,-28.94 -8.45,-14.09 -12.68,-29.75 -12.68,-46.98 0,-17.23 3.14,-34.41 9.43,-51.53 -15.17,-10.19 -23.52,-23.85 -25.04,-40.97 -0.43,-3.25 -0.65,-6.5 -0.65,-9.76 0,-26.01 11.16,-47.79 33.49,-65.35 23.84,-18.64 52.02,-27.96 84.54,-27.96 32.51,0 59.45,9.05 80.8,27.15 21.35,18.1 32.02,43.95 32.02,77.54 0,2.17 0,4.34 0,6.5 21.68,-14.3 35.76,-27.96 42.27,-40.97 1.08,-2.39 2.49,-3.42 4.23,-3.09 1.73,0.32 2.6,1.03 2.6,2.11 0,1.08 -0.65,2.6 -1.95,4.55 -12.79,20.16 -28.94,36.42 -48.45,48.77 -0.87,10.19 -3.63,22.43 -8.29,36.74 -4.66,14.3 -12.52,29.1 -23.57,44.38 -11.06,15.28 -23.95,28.67 -38.69,40.15zm52.67 -139.48c0,-36.63 -11.71,-63.73 -35.11,-81.29 -15.61,-11.71 -33.81,-17.56 -54.62,-17.56 -6.07,0 -12.25,0.54 -18.53,1.63 -26.44,3.9 -48.01,14.85 -64.7,32.84 -14.09,15.61 -21.13,33.27 -21.13,53 0,17.13 4.66,29.7 13.98,37.72 8.45,-17.99 20.92,-36.2 37.39,-54.62 17.99,-20.16 36.96,-32.51 56.9,-37.07 3.25,-0.65 7.42,-0.98 12.52,-0.98 5.09,0 11,2.06 17.72,6.18 1.52,0.87 2.33,1.73 2.44,2.6 0.11,0.87 -0.38,1.52 -1.46,1.95 -1.08,0.44 -2.71,0.27 -4.88,-0.49 -2.17,-0.76 -5.8,-1.14 -10.89,-1.14 -5.1,0 -12.41,2.6 -21.95,7.81 -9.54,5.2 -19.18,13.33 -28.94,24.38 -19.29,21.89 -33.38,42.7 -42.27,62.43 13.66,6.29 30.02,9.43 49.1,9.43 8.45,0 17.45,-0.54 26.99,-1.63 31,-4.12 59.94,-13.44 86.81,-27.96 0.43,-5.85 0.65,-11.59 0.65,-17.23zm-2.6 28.61c-36.2,19.29 -74.35,28.94 -114.45,28.94 -19.51,0 -36.63,-2.93 -51.37,-8.78 -6.72,17.56 -10.08,32.73 -10.08,45.52 0,29.91 9,49.31 26.99,58.2 9.76,4.55 19.45,6.83 29.1,6.83 9.64,0 19.02,-2.06 28.12,-6.18 19.08,-8.67 36.2,-22.22 51.37,-40.64 15.18,-18.43 26.66,-38.69 34.47,-60.8 3.03,-8.67 4.98,-16.37 5.85,-23.09z"/>
  <path id="_1_4" class="fil3" d="M320.59 712.88c0,-12.35 -5.1,-18.53 -15.28,-18.53 -0.87,0 -1.73,0 -2.6,0 -3.9,0.43 -6.18,-0.32 -6.83,-2.28 -0.65,-1.95 0.32,-3.25 2.93,-3.9 2.6,-0.65 5.42,-0.76 8.45,-0.32 11.27,1.73 18.96,7.04 23.08,15.93 2.82,5.42 4.23,10.73 4.23,15.93 0,18.64 -6.83,36.96 -20.48,54.95 -13.66,18.21 -31.32,27.31 -53,27.31 -8.02,0 -14.52,-2.27 -19.51,-6.83 -4.98,-4.55 -7.48,-10.62 -7.48,-18.21 0,-9.11 5.2,-24.5 15.61,-46.17 -17.77,33.6 -29.26,52.89 -34.46,57.87 -2.17,1.95 -3.25,1.3 -3.25,-1.95 0,-0.65 0.22,-1.41 0.65,-2.27 7.59,-9.97 22.7,-37.07 45.36,-81.29 22.65,-44.22 38.53,-73.16 47.63,-86.81 7.37,-10.62 14.52,-15.93 21.46,-15.93 0,0 0.11,0 0.32,0l1.63 0c0.22,0 2.12,0.32 5.69,0.97 3.58,0.65 6.23,0.76 7.97,0.33 -7.15,7.59 -18.43,22.76 -33.81,45.52 -38.15,56.57 -57.23,98.84 -57.23,126.81 0,11.49 3.69,17.99 11.06,19.51 0.65,0.22 1.41,0.32 2.27,0.32 6.72,0 15.12,-6.01 25.2,-18.04 10.08,-12.03 18.37,-25.74 24.87,-41.13 3.68,-8.02 5.53,-15.28 5.53,-21.79z"/>
  <path id="_2_5" class="fil3" d="M449.67 713.21c-3.9,3.9 -9.43,12.73 -16.58,26.5 -7.15,13.77 -11.43,24.06 -12.84,30.89 -1.41,6.83 -2.11,12.36 -2.11,16.58 0,4.23 1.63,6.34 4.88,6.34 4.12,0 9.21,-3.79 15.28,-11.38 8.89,-11.05 17.67,-25.47 26.34,-43.24 0.87,-1.95 1.84,-3.03 2.93,-3.25 1.73,-0.65 2.6,0 2.6,1.95 0,1.08 -0.32,2.39 -0.98,3.9 -19.94,40.32 -36.74,60.47 -50.4,60.47 -6.29,0 -11.38,-3.03 -15.28,-9.1 -1.95,-3.25 -2.93,-7.59 -2.93,-13 0,-5.42 1.08,-12.03 3.25,-19.84 -17.34,27.96 -32.3,41.94 -44.87,41.94 -3.47,0 -6.61,-1.08 -9.43,-3.25 -6.5,-4.55 -9.76,-12.35 -9.76,-23.41 0,-21.24 9.21,-42.81 27.64,-64.7 10.4,-12.14 23.19,-20.05 38.36,-23.74 4.12,-1.08 8.02,-1.63 11.71,-1.63 9.97,0 18.43,3.47 25.36,10.4 2.17,2.38 2.82,4.66 1.95,6.83 -0.87,2.17 -2.71,3.03 -5.53,2.6 -2.39,-7.8 -7.59,-11.71 -15.61,-11.71 -9.32,0 -20.81,7.37 -34.47,22.11 -7.8,8.67 -15.06,18.86 -21.78,30.56 -8.45,14.09 -12.68,25.36 -12.68,33.81 0,8.45 2.71,12.68 8.13,12.68 13,0 30.02,-19.94 51.05,-59.82 4.12,-8.02 7.59,-13.49 10.4,-16.42 2.82,-2.93 6.39,-4.39 10.73,-4.39 0.87,0 3.09,0.32 6.67,0.97 3.58,0.65 6.23,0.76 7.96,0.33z"/>
  <path id="_3_6" class="fil3" d="M482.51 738.57c-0.22,0.87 -1.19,3.85 -2.93,8.94 -1.74,5.09 -3.2,9.97 -4.39,14.63 -1.19,4.66 -1.79,9.32 -1.79,13.98 0,4.66 1.08,9 3.25,13.01 2.17,4.01 5.63,6.01 10.4,6.01 7.8,0 15.39,-5.26 22.76,-15.77 7.37,-10.51 15.17,-23.9 23.41,-40.15 1.73,-3.03 3.36,-4.23 4.88,-3.58 1.08,0.87 1.3,2 0.65,3.41 -0.65,1.41 -2,4.44 -4.06,9.1 -2.06,4.66 -3.58,7.91 -4.55,9.76 -0.98,1.84 -2.71,5.09 -5.2,9.75 -2.49,4.66 -4.66,8.13 -6.5,10.4 -1.84,2.28 -4.34,5.2 -7.48,8.78 -3.14,3.58 -6.12,6.23 -8.94,7.97 -7.59,4.77 -14.74,7.15 -21.46,7.15 -6.72,0 -11.92,-1.46 -15.61,-4.39 -3.69,-2.92 -5.91,-6.07 -6.67,-9.43 -0.76,-3.36 -1.14,-6.34 -1.14,-8.94 0,-2.6 0.11,-5.96 0.33,-10.08 0.65,-6.93 2,-13.66 4.06,-20.16 2.06,-6.5 3.2,-10.19 3.42,-11.06 4.98,-17.99 12.08,-37.61 21.3,-58.85 9.21,-21.24 17.02,-37.23 23.41,-47.96 6.39,-10.73 11.43,-18.04 15.12,-21.94 7.37,-7.81 14.63,-11.71 21.79,-11.71 4.98,0 8.34,3.58 10.08,10.73 0.22,1.3 0.33,2.93 0.33,4.88 0,7.37 -2.6,16.69 -7.81,27.96 -18.64,41.4 -40.86,73.92 -66.65,97.54zm2.6 -10.4c11.06,-11.27 22,-25.47 32.84,-42.59 10.84,-17.12 18.8,-31.7 23.9,-43.73 5.1,-12.03 7.64,-20.21 7.64,-24.55 0,-4.34 -0.76,-6.5 -2.28,-6.5 -2.17,0 -6.29,4.28 -12.35,12.84 -6.07,8.56 -14.25,23.95 -24.55,46.17 -10.3,22.22 -18.69,41.67 -25.2,58.36z"/>
  <path id="_4_7" class="fil3" d="M602.16 782.46c0,6.94 2.82,10.4 8.45,10.4 10.19,0 23.74,-17.01 40.64,-51.05 0.65,-1.3 1.25,-2.6 1.79,-3.9 0.54,-1.3 1.41,-2.17 2.6,-2.6 1.19,-0.44 2,-0.17 2.44,0.81 0.44,0.98 0.22,2.55 -0.65,4.71 -17.34,40.32 -34.9,60.48 -52.67,60.48 -5.85,0 -10.51,-2.6 -13.98,-7.8 -3.47,-5.2 -5.2,-10.35 -5.2,-15.45 0,-5.09 0.54,-9.81 1.63,-14.14 -12.57,20.81 -23.41,32.62 -32.51,35.44 -2.6,1.08 -5.15,1.63 -7.64,1.63 -2.49,0 -4.93,-0.32 -7.32,-0.98 -10.62,-2.82 -15.93,-11.27 -15.93,-25.36 0,-9.54 2.44,-20.1 7.32,-31.7 4.88,-11.6 11.76,-22.71 20.65,-33.33 8.89,-10.62 19.62,-17.77 32.19,-21.46 4.55,-1.52 9.92,-2.28 16.09,-2.28 6.18,0 13.06,1.95 20.65,5.85 14.74,-27.74 27.31,-53.43 37.72,-77.06 3.03,-7.15 6.01,-11.76 8.94,-13.82 2.93,-2.06 5.63,-3.09 8.13,-3.09 2.49,0 4.01,0 4.55,0 0.54,0 2.6,0.27 6.18,0.81 3.58,0.54 6.34,0.71 8.29,0.49 -4.98,4.55 -18.21,26.66 -39.67,66.33 -27.31,50.72 -43.78,84.54 -49.42,101.44 -2.17,6.29 -3.25,11.49 -3.25,15.61zm15.93 -85.51c-2.82,-2.82 -6.77,-4.23 -11.87,-4.23 -5.09,0 -12.19,3.79 -21.3,11.38 -14.52,12.14 -26.55,27.09 -36.09,44.87 -6.29,11.71 -9.43,21.35 -9.43,28.94 0,3.47 0.71,6.61 2.12,9.43 1.41,2.82 3.63,4.22 6.66,4.22 7.37,0 16.47,-7.59 27.31,-22.76 10.84,-15.17 25.04,-39.12 42.59,-71.85z"/>
  <path id="_5_8" class="fil3" d="M697.42 674.84c-3.03,2.6 -6.39,3.9 -10.08,3.9 -3.69,0 -6.61,-1.3 -8.78,-3.9 -2.17,-2.6 -3.03,-5.74 -2.6,-9.43 0.65,-3.68 2.49,-6.83 5.53,-9.43 3.03,-2.6 6.39,-3.9 10.08,-3.9 3.68,0 6.66,1.3 8.94,3.9 2.27,2.6 3.09,5.74 2.44,9.43 -0.65,3.69 -2.49,6.83 -5.53,9.43zm-31.86 119.32c4.12,0 8.45,-2.06 13.01,-6.18 8.02,-8.02 18.21,-24.38 30.56,-49.1 1.52,-3.25 3.03,-4.23 4.55,-2.93 0.44,0.43 0.65,1.14 0.65,2.11 0,0.98 -0.87,3.36 -2.6,7.15 -1.73,3.79 -3.3,7.21 -4.71,10.24 -1.41,3.03 -4.12,7.96 -8.13,14.79 -4.01,6.83 -7.64,12.08 -10.89,15.77 -8.89,10.19 -17.29,15.28 -25.2,15.28 -7.91,0 -13.6,-2.39 -17.07,-7.15 -3.47,-4.77 -5.2,-10.08 -5.2,-15.93 0,-5.85 1.41,-12.25 4.23,-19.18l20.81 -53c0.43,-1.3 0.65,-3.03 0.65,-5.2 0,-2.17 -1.3,-4.98 -3.9,-8.45l17.88 -0.33c4.98,0 7.91,0.92 8.78,2.76 0.87,1.84 0.22,4.71 -1.95,8.62l-26.01 60.8c-3.69,8.02 -5.53,14.85 -5.53,20.48 0,6.29 3.36,9.43 10.08,9.43z"/>
  <path id="_6_9" class="fil3" d="M807.64 694.67c-26.66,46.82 -39.99,77.38 -39.99,91.69 0,5.64 2.06,8.45 6.18,8.45 11.05,0 25.9,-18.75 44.54,-56.25 1.3,-3.03 2.6,-4.23 3.9,-3.58 1.3,0.65 1.95,1.52 1.95,2.6 0,1.08 -0.44,2.39 -1.3,3.9 -11.49,23.19 -21.19,39.18 -29.1,47.96 -7.91,8.78 -15.82,13.17 -23.74,13.17 -7.91,0 -13.93,-3.03 -18.04,-9.1 -2.17,-2.82 -3.25,-6.67 -3.25,-11.54 0,-4.88 1.08,-10.78 3.25,-17.72 2.17,-6.94 8.13,-18.21 17.88,-33.81 2.39,-3.9 3.58,-6.99 3.58,-9.27 0,-2.28 -1.84,-3.41 -5.53,-3.41 -3.69,0 -10.73,4.88 -21.13,14.63 -15.61,14.3 -30.67,35.76 -45.2,64.38 -1.3,2.17 -2.76,3.52 -4.39,4.06 -1.63,0.54 -4.82,0.92 -9.59,1.14 -4.77,0.22 -7.91,0.76 -9.43,1.63 3.47,-6.94 10.3,-21.14 20.48,-42.59 18.21,-37.93 30.13,-59.61 35.76,-65.03 2.6,-2.6 6.18,-3.9 10.73,-3.9 0.87,0 3.09,0.33 6.66,0.98 3.58,0.65 6.23,0.76 7.96,0.32 -8.02,4.34 -21.13,24.71 -39.34,61.13 10.19,-12.57 19.45,-22.6 27.8,-30.07 8.34,-7.48 18.37,-14.42 30.07,-20.81 11.71,-6.39 20.27,-9.59 25.69,-9.59 1.3,0 2.49,0.22 3.58,0.65z"/>
  <path id="_7_10" class="fil3" d="M877.54 687.52c15.82,0 23.74,9.97 23.74,29.91 0,9.11 -2.38,18.86 -7.15,29.26 -6.07,14.09 -15.18,26.88 -27.31,38.37 2.82,5.42 7.91,8.13 15.28,8.13 5.85,0 11.38,-2.93 16.58,-8.78 6.5,-6.72 11.16,-12.63 13.98,-17.72 2.82,-5.1 4.88,-8.83 6.18,-11.22 1.3,-2.38 2.98,-5.8 5.04,-10.24 2.06,-4.44 3.3,-7.15 3.74,-8.13 0.43,-0.98 1.19,-1.46 2.28,-1.46 2.17,-0.22 3.25,0.54 3.25,2.27 0,0.65 -0.22,1.41 -0.65,2.28l-1.95 4.55c-1.3,3.03 -2.27,5.2 -2.93,6.5 -0.65,1.3 -1.79,3.63 -3.41,6.99 -1.63,3.36 -3.03,6.01 -4.23,7.96 -1.19,1.95 -2.82,4.55 -4.88,7.81 -2.06,3.25 -3.9,5.85 -5.53,7.8 -1.63,1.95 -3.63,4.12 -6.01,6.5 -2.39,2.39 -4.66,4.23 -6.83,5.53 -5.42,3.25 -10.51,4.88 -15.28,4.88 -8.89,0 -15.82,-2.82 -20.81,-8.45 -9.97,7.37 -19.18,11.05 -27.64,11.05 -15.82,0 -23.74,-9.97 -23.74,-29.91 0,-9.1 2.39,-18.86 7.15,-29.26 6.5,-15.17 15.66,-28.07 27.48,-38.69 11.81,-10.62 23.03,-15.93 33.65,-15.93zm3.58 10.08c-5.85,0 -12.79,3.9 -20.81,11.71 -8.02,7.8 -15.17,18.42 -21.46,31.86 -7.59,15.61 -11.38,28.4 -11.38,38.37 0,9.97 3.79,14.96 11.38,14.96 5.42,0 11.49,-2.93 18.21,-8.78 -3.47,-4.98 -5.2,-10.29 -5.2,-15.93 0.43,-9.32 4.23,-13.98 11.38,-13.98 2.82,0 5.15,0.98 6.99,2.93 1.84,1.95 2.76,3.74 2.76,5.37 0,1.63 -0.22,3.3 -0.65,5.04 3.68,-5.42 7.91,-13.11 12.68,-23.08 5.42,-11.06 8.13,-21.89 8.13,-32.51 0,-10.62 -4.01,-15.93 -12.03,-15.93z"/>
  <path id="_8_11" class="fil3" d="M1025.81 751.24c-3.03,7.37 -4.55,15.61 -4.55,24.71 0,6.07 1.35,10.89 4.06,14.47 2.71,3.58 6.56,5.36 11.54,5.36 19.72,0 37.61,-18.53 53.65,-55.6 1.52,-3.47 3.36,-4.99 5.53,-4.55 0.87,0.22 1.3,0.76 1.3,1.63 0,0.87 -2.44,6.56 -7.32,17.07 -4.88,10.51 -9.81,19.02 -14.79,25.53 -11.05,15.17 -24.71,22.76 -40.97,22.76 -8.67,0 -16.04,-2.82 -22.11,-8.45 -6.07,-5.64 -9.1,-13.33 -9.1,-23.08 0,-9.76 2.33,-20.11 6.99,-31.05 4.66,-10.95 11,-21.14 19.02,-30.56 8.02,-9.43 17.23,-16.31 27.64,-20.65 4.98,-2.17 9.75,-3.25 14.31,-3.25 4.55,0 8.78,1.3 12.68,3.9 3.69,3.03 5.53,6.39 5.53,10.08 0,13.01 -7.8,25.47 -23.41,37.39 -4.77,3.68 -11.49,6.99 -20.16,9.91 -8.67,2.93 -15.28,4.39 -19.83,4.39zm54.62 -52.02c0,-4.34 -1.73,-6.5 -5.2,-6.5 -6.07,0 -15.28,7.48 -27.63,22.43 -7.37,9.1 -13.87,19.29 -19.51,30.56 3.68,0 9.05,-1.3 16.09,-3.9 7.05,-2.6 13.17,-6.07 18.37,-10.4 11.92,-10.19 17.88,-20.92 17.88,-32.19z"/>
  <path id="_9_12" class="fil3" d="M1439.06 578.6c20.59,-16.26 36.96,-24.38 49.1,-24.38 3.47,0 6.61,0.65 9.43,1.95 6.29,2.6 9.43,6.72 9.43,12.35 0,5.64 -3.25,11.6 -9.76,17.88 -3.9,3.25 -10.3,4.88 -19.18,4.88 -8.89,0 -20.05,-1.63 -33.49,-4.88 -10.62,9.76 -29.7,32.84 -57.23,69.26 -17.77,23.63 -29.53,38.69 -35.28,45.19 -5.74,6.5 -10.89,12.08 -15.44,16.75 -4.55,4.66 -8.56,8.78 -12.03,12.35 -3.47,3.58 -7.69,7.64 -12.68,12.19 -4.98,4.55 -8.83,8.08 -11.54,10.57 -2.71,2.49 -6.61,5.85 -11.7,10.08 -5.1,4.23 -8.45,7.05 -10.08,8.45 -1.63,1.41 -4.99,4.17 -10.08,8.29 -5.09,4.12 -7.86,6.4 -8.29,6.83 59.39,25.79 100.68,40.97 123.88,45.52 8.45,1.52 17.12,2.27 26.01,2.27 8.89,0 17.94,-0.7 27.15,-2.11 9.21,-1.41 17.34,-4.83 24.38,-10.24 7.05,-5.42 11.11,-11.71 12.19,-18.86 1.08,-7.15 2.82,-10.73 5.2,-10.73 1.95,0 2.93,1.63 2.93,4.88 0,3.25 -0.16,6.5 -0.49,9.76 -0.32,3.25 -1.57,7.04 -3.74,11.38 -2.17,4.34 -5.74,9.27 -10.73,14.79 -4.99,5.53 -12.9,10.13 -23.74,13.82 -11.27,3.9 -24.06,5.85 -38.37,5.85 -14.31,0 -34.14,-5.1 -59.5,-15.28 -25.36,-10.19 -47.25,-20.48 -65.68,-30.89l-27.64 -15.61c-21.89,15.61 -40.64,23.41 -56.25,23.41 -3.03,0 -5.96,-0.32 -8.78,-0.98 -13.01,-3.03 -21.24,-10.19 -24.71,-21.46 -1.08,-3.25 -1.63,-6.4 -1.63,-9.43 0,-6.5 2.66,-12.57 7.97,-18.21 5.31,-5.64 12.84,-8.45 22.6,-8.45 4.77,0 10.08,0.76 15.93,2.28 11.27,3.03 26.77,10.84 46.49,23.41 56.36,-65.9 92.99,-109.14 109.9,-129.73 21.89,-25.79 44.98,-48.55 69.26,-68.28 -32.3,-8.89 -62.64,-13.33 -91.04,-13.33 -15.17,0 -30.13,1.41 -44.87,4.23 -9.97,2.6 -18.86,6.94 -26.66,13.01 -9.32,7.59 -13.98,15.23 -13.98,22.92 0,7.7 4.88,14.9 14.63,21.62 4.98,3.47 6.18,5.64 3.58,6.5 -2.6,0.87 -5.09,0.76 -7.48,-0.32 -3.68,-0.87 -7.69,-3.68 -12.03,-8.45 -6.5,-7.59 -9.76,-15.82 -9.76,-24.71 0,-10.19 3.79,-19.84 11.38,-28.94 4.77,-5.85 12.35,-10.95 22.76,-15.28 13.66,-5.64 29.59,-8.45 47.8,-8.45 12.35,0 24.55,1.46 36.58,4.39 12.03,2.93 21.13,5.26 27.31,6.99 6.18,1.73 14.85,4.39 26.01,7.96 11.16,3.58 18.48,5.91 21.95,6.99zm10.4 2.93c11.92,3.47 21.13,5.2 27.63,5.2 6.5,0 11.54,-1.14 15.12,-3.41 3.58,-2.27 5.36,-6.56 5.36,-12.84 0,-1.74 -0.7,-3.85 -2.11,-6.34 -1.41,-2.49 -3.96,-3.74 -7.64,-3.74 -8.89,0 -21.68,7.04 -38.37,21.13zm-272.14 196.06c-1.3,2.39 -1.95,5.2 -1.95,8.45 0,3.25 2.22,7.04 6.67,11.38 4.44,4.34 11.76,6.5 21.95,6.5 7.8,0 15.82,-1.68 24.06,-5.04 8.24,-3.36 14.74,-7.1 19.51,-11.22 -4.34,-3.47 -7.59,-5.96 -9.76,-7.48 -15.61,-8.67 -28.67,-13.01 -39.18,-13.01 -10.51,0 -17.61,3.47 -21.3,10.4z"/>
  <path id="_10_13" class="fil3" d="M1410.12 751.24c-3.03,7.37 -4.55,15.61 -4.55,24.71 0,6.07 1.35,10.89 4.06,14.47 2.71,3.58 6.56,5.36 11.54,5.36 19.72,0 37.61,-18.53 53.65,-55.6 1.52,-3.47 3.36,-4.99 5.53,-4.55 0.87,0.22 1.3,0.76 1.3,1.63 0,0.87 -2.44,6.56 -7.32,17.07 -4.88,10.51 -9.81,19.02 -14.79,25.53 -11.05,15.17 -24.71,22.76 -40.97,22.76 -8.67,0 -16.04,-2.82 -22.11,-8.45 -6.07,-5.64 -9.1,-13.33 -9.1,-23.08 0,-9.76 2.33,-20.11 6.99,-31.05 4.66,-10.95 11,-21.14 19.02,-30.56 8.02,-9.43 17.23,-16.31 27.64,-20.65 4.98,-2.17 9.75,-3.25 14.31,-3.25 4.55,0 8.78,1.3 12.68,3.9 3.69,3.03 5.53,6.39 5.53,10.08 0,13.01 -7.8,25.47 -23.41,37.39 -4.77,3.68 -11.49,6.99 -20.16,9.91 -8.67,2.93 -15.28,4.39 -19.83,4.39zm54.62 -52.02c0,-4.34 -1.73,-6.5 -5.2,-6.5 -6.07,0 -15.28,7.48 -27.63,22.43 -7.37,9.1 -13.87,19.29 -19.51,30.56 3.68,0 9.05,-1.3 16.09,-3.9 7.05,-2.6 13.17,-6.07 18.37,-10.4 11.92,-10.19 17.88,-20.92 17.88,-32.19z"/>
  <path id="_11" class="fil3" d="M1493.68 738.57c-0.22,0.87 -1.19,3.85 -2.93,8.94 -1.74,5.09 -3.2,9.97 -4.39,14.63 -1.19,4.66 -1.79,9.32 -1.79,13.98 0,4.66 1.08,9 3.25,13.01 2.17,4.01 5.63,6.01 10.4,6.01 7.8,0 15.39,-5.26 22.76,-15.77 7.37,-10.51 15.17,-23.9 23.41,-40.15 1.73,-3.03 3.36,-4.23 4.88,-3.58 1.08,0.87 1.3,2 0.65,3.41 -0.65,1.41 -2,4.44 -4.06,9.1 -2.06,4.66 -3.58,7.91 -4.55,9.76 -0.98,1.84 -2.71,5.09 -5.2,9.75 -2.49,4.66 -4.66,8.13 -6.5,10.4 -1.84,2.28 -4.34,5.2 -7.48,8.78 -3.14,3.58 -6.12,6.23 -8.94,7.97 -7.59,4.77 -14.74,7.15 -21.46,7.15 -6.72,0 -11.92,-1.46 -15.61,-4.39 -3.69,-2.92 -5.91,-6.07 -6.67,-9.43 -0.76,-3.36 -1.14,-6.34 -1.14,-8.94 0,-2.6 0.11,-5.96 0.33,-10.08 0.65,-6.93 2,-13.66 4.06,-20.16 2.06,-6.5 3.2,-10.19 3.42,-11.06 4.98,-17.99 12.08,-37.61 21.3,-58.85 9.21,-21.24 17.02,-37.23 23.41,-47.96 6.39,-10.73 11.43,-18.04 15.12,-21.94 7.37,-7.81 14.63,-11.71 21.79,-11.71 4.98,0 8.34,3.58 10.08,10.73 0.22,1.3 0.33,2.93 0.33,4.88 0,7.37 -2.6,16.69 -7.81,27.96 -18.64,41.4 -40.86,73.92 -66.65,97.54zm2.6 -10.4c11.06,-11.27 22,-25.47 32.84,-42.59 10.84,-17.12 18.8,-31.7 23.9,-43.73 5.1,-12.03 7.64,-20.21 7.64,-24.55 0,-4.34 -0.76,-6.5 -2.28,-6.5 -2.17,0 -6.29,4.28 -12.35,12.84 -6.07,8.56 -14.25,23.95 -24.55,46.17 -10.3,22.22 -18.69,41.67 -25.2,58.36z"/>
  <path id="_12" class="fil3" d="M1589.27 674.84c-3.03,2.6 -6.39,3.9 -10.08,3.9 -3.69,0 -6.61,-1.3 -8.78,-3.9 -2.17,-2.6 -3.03,-5.74 -2.6,-9.43 0.65,-3.68 2.49,-6.83 5.53,-9.43 3.03,-2.6 6.39,-3.9 10.08,-3.9 3.68,0 6.66,1.3 8.94,3.9 2.27,2.6 3.09,5.74 2.44,9.43 -0.65,3.69 -2.49,6.83 -5.53,9.43zm-31.86 119.32c4.12,0 8.45,-2.06 13.01,-6.18 8.02,-8.02 18.21,-24.38 30.56,-49.1 1.52,-3.25 3.03,-4.23 4.55,-2.93 0.44,0.43 0.65,1.14 0.65,2.11 0,0.98 -0.87,3.36 -2.6,7.15 -1.73,3.79 -3.3,7.21 -4.71,10.24 -1.41,3.03 -4.12,7.96 -8.13,14.79 -4.01,6.83 -7.64,12.08 -10.89,15.77 -8.89,10.19 -17.29,15.28 -25.2,15.28 -7.91,0 -13.6,-2.39 -17.07,-7.15 -3.47,-4.77 -5.2,-10.08 -5.2,-15.93 0,-5.85 1.41,-12.25 4.23,-19.18l20.81 -53c0.43,-1.3 0.65,-3.03 0.65,-5.2 0,-2.17 -1.3,-4.98 -3.9,-8.45l17.88 -0.33c4.98,0 7.91,0.92 8.78,2.76 0.87,1.84 0.22,4.71 -1.95,8.62l-26.01 60.8c-3.69,8.02 -5.53,14.85 -5.53,20.48 0,6.29 3.36,9.43 10.08,9.43z"/>
  <path id="_13" class="fil3" d="M1699.49 694.67c-26.66,46.82 -39.99,77.38 -39.99,91.69 0,5.64 2.06,8.45 6.18,8.45 11.05,0 25.9,-18.75 44.54,-56.25 1.3,-3.03 2.6,-4.23 3.9,-3.58 1.3,0.65 1.95,1.52 1.95,2.6 0,1.08 -0.44,2.39 -1.3,3.9 -11.49,23.19 -21.19,39.18 -29.1,47.96 -7.91,8.78 -15.82,13.17 -23.74,13.17 -7.91,0 -13.93,-3.03 -18.04,-9.1 -2.17,-2.82 -3.25,-6.67 -3.25,-11.54 0,-4.88 1.08,-10.78 3.25,-17.72 2.17,-6.94 8.13,-18.21 17.88,-33.81 2.39,-3.9 3.58,-6.99 3.58,-9.27 0,-2.28 -1.84,-3.41 -5.53,-3.41 -3.69,0 -10.73,4.88 -21.13,14.63 -15.61,14.3 -30.67,35.76 -45.2,64.38 -1.3,2.17 -2.76,3.52 -4.39,4.06 -1.63,0.54 -4.82,0.92 -9.59,1.14 -4.77,0.22 -7.91,0.76 -9.43,1.63 3.47,-6.94 10.3,-21.14 20.48,-42.59 18.21,-37.93 30.13,-59.61 35.76,-65.03 2.6,-2.6 6.18,-3.9 10.73,-3.9 0.87,0 3.09,0.33 6.66,0.98 3.58,0.65 6.23,0.76 7.96,0.32 -8.02,4.34 -21.13,24.71 -39.34,61.13 10.19,-12.57 19.45,-22.6 27.8,-30.07 8.34,-7.48 18.37,-14.42 30.07,-20.81 11.71,-6.39 20.27,-9.59 25.69,-9.59 1.3,0 2.49,0.22 3.58,0.65z"/>
  <path id="_14" class="fil3" d="M1778.82 782.46c0,6.94 2.82,10.4 8.45,10.4 10.19,0 23.74,-17.01 40.64,-51.05 0.65,-1.3 1.25,-2.6 1.79,-3.9 0.54,-1.3 1.41,-2.17 2.6,-2.6 1.19,-0.44 2,-0.17 2.44,0.81 0.44,0.98 0.22,2.55 -0.65,4.71 -17.34,40.32 -34.9,60.48 -52.67,60.48 -5.85,0 -10.51,-2.6 -13.98,-7.8 -3.47,-5.2 -5.2,-10.35 -5.2,-15.45 0,-5.09 0.54,-9.81 1.63,-14.14 -12.57,20.81 -23.41,32.62 -32.51,35.44 -2.6,1.08 -5.15,1.63 -7.64,1.63 -2.49,0 -4.93,-0.32 -7.32,-0.98 -10.62,-2.82 -15.93,-11.27 -15.93,-25.36 0,-9.54 2.44,-20.1 7.32,-31.7 4.88,-11.6 11.76,-22.71 20.65,-33.33 8.89,-10.62 19.62,-17.77 32.19,-21.46 4.55,-1.52 9.92,-2.28 16.09,-2.28 6.18,0 13.06,1.95 20.65,5.85 14.74,-27.74 27.31,-53.43 37.72,-77.06 3.03,-7.15 6.01,-11.76 8.94,-13.82 2.93,-2.06 5.63,-3.09 8.13,-3.09 2.49,0 4.01,0 4.55,0 0.54,0 2.6,0.27 6.18,0.81 3.58,0.54 6.34,0.71 8.29,0.49 -4.98,4.55 -18.21,26.66 -39.67,66.33 -27.31,50.72 -43.78,84.54 -49.42,101.44 -2.17,6.29 -3.25,11.49 -3.25,15.61zm15.93 -85.51c-2.82,-2.82 -6.77,-4.23 -11.87,-4.23 -5.09,0 -12.19,3.79 -21.3,11.38 -14.52,12.14 -26.55,27.09 -36.09,44.87 -6.29,11.71 -9.43,21.35 -9.43,28.94 0,3.47 0.71,6.61 2.12,9.43 1.41,2.82 3.63,4.22 6.66,4.22 7.37,0 16.47,-7.59 27.31,-22.76 10.84,-15.17 25.04,-39.12 42.59,-71.85z"/>
  <path id="_15" class="fil3" d="M1928.39 713.21c-3.9,3.9 -9.43,12.73 -16.58,26.5 -7.15,13.77 -11.43,24.06 -12.84,30.89 -1.41,6.83 -2.11,12.36 -2.11,16.58 0,4.23 1.63,6.34 4.88,6.34 4.12,0 9.21,-3.79 15.28,-11.38 8.89,-11.05 17.67,-25.47 26.34,-43.24 0.87,-1.95 1.84,-3.03 2.93,-3.25 1.73,-0.65 2.6,0 2.6,1.95 0,1.08 -0.32,2.39 -0.98,3.9 -19.94,40.32 -36.74,60.47 -50.4,60.47 -6.29,0 -11.38,-3.03 -15.28,-9.1 -1.95,-3.25 -2.93,-7.59 -2.93,-13 0,-5.42 1.08,-12.03 3.25,-19.84 -17.34,27.96 -32.3,41.94 -44.87,41.94 -3.47,0 -6.61,-1.08 -9.43,-3.25 -6.5,-4.55 -9.76,-12.35 -9.76,-23.41 0,-21.24 9.21,-42.81 27.64,-64.7 10.4,-12.14 23.19,-20.05 38.36,-23.74 4.12,-1.08 8.02,-1.63 11.71,-1.63 9.97,0 18.43,3.47 25.36,10.4 2.17,2.38 2.82,4.66 1.95,6.83 -0.87,2.17 -2.71,3.03 -5.53,2.6 -2.39,-7.8 -7.59,-11.71 -15.61,-11.71 -9.32,0 -20.81,7.37 -34.47,22.11 -7.8,8.67 -15.06,18.86 -21.78,30.56 -8.45,14.09 -12.68,25.36 -12.68,33.81 0,8.45 2.71,12.68 8.13,12.68 13,0 30.02,-19.94 51.05,-59.82 4.12,-8.02 7.59,-13.49 10.4,-16.42 2.82,-2.93 6.39,-4.39 10.73,-4.39 0.87,0 3.09,0.32 6.67,0.97 3.58,0.65 6.23,0.76 7.96,0.33z"/>
 </g>
</svg>
