<?xml version="1.0" encoding="UTF-8"?>
<!DOCTYPE svg PUBLIC "-//W3C//DTD SVG 1.1//EN" "http://www.w3.org/Graphics/SVG/1.1/DTD/svg11.dtd">
<!-- Creator: CorelDRAW -->
<svg xmlns="http://www.w3.org/2000/svg" xml:space="preserve" width="66.3321mm" height="27.8964mm" version="1.1" style="shape-rendering:geometricPrecision; text-rendering:geometricPrecision; image-rendering:optimizeQuality; fill-rule:evenodd; clip-rule:evenodd"
viewBox="0 0 1813.39 762.63"
 xmlns:xlink="http://www.w3.org/1999/xlink"
 xmlns:xodm="http://www.corel.com/coreldraw/odm/2003">
 <defs>
  <style type="text/css">
   <![CDATA[
    .fil0 {fill:#CCCCCC;fill-rule:nonzero}
    .fil1 {fill:#CCCCCC;fill-rule:nonzero}
    .fil2 {fill:url(#id0);fill-rule:nonzero}
   ]]>
  </style>
  <linearGradient id="id0" gradientUnits="objectBoundingBox" x1="50.2914%" y1="0%" x2="49.7087%" y2="101.104%">
   <stop offset="0" style="stop-opacity:1; stop-color:#A26A2D"/>
   <stop offset="0.54902" style="stop-opacity:1; stop-color:#EBB750"/>
   <stop offset="1" style="stop-opacity:1; stop-color:#A26A2D"/>
  </linearGradient>
 </defs>
 <g id="Camada_x0020_1">
  <metadata id="CorelCorpID_0Corel-Layer"/>
  <g id="_2005234734480">
   <path class="fil0" d="M358.54 73.66c21.06,-7.29 39.09,-10.94 54.07,-10.94 14.99,0 30.78,1.21 47.39,3.64 16.61,2.43 44.76,3.65 84.45,3.65 39.69,0 70.88,-8.51 93.56,-25.52l4.86 2.43c-13.77,36.45 -38.07,62.37 -72.91,77.77 -34.83,15.39 -69.67,23.09 -104.5,23.09l-123.94 -3.64 -133.66 232.09c54.28,-36.45 108.55,-54.68 162.83,-54.68 35.64,0 64.81,8.91 87.49,26.73 22.68,17.82 34.02,44.15 34.02,78.98 0,53.47 -22.08,106.73 -66.22,159.79 -44.15,53.06 -96.8,95.59 -157.96,127.59 -61.16,32 -115.64,48 -163.43,48 -47.8,0 -78.58,-4.86 -92.35,-14.58l0 -8.5 7.29 -8.5 4.86 -2.43c19.44,7.29 44.56,10.94 75.34,10.94 68.04,0 136.9,-34.43 206.57,-103.28 69.67,-68.86 104.5,-137.31 104.5,-205.36 0,-25.11 -6.89,-44.35 -20.66,-57.72 -13.77,-13.37 -31.39,-20.05 -52.86,-20.05 -21.47,0 -40.71,3.24 -57.72,9.72 -17.01,6.48 -37.26,16.81 -60.75,30.98 -23.49,14.18 -39.29,23.29 -47.39,27.34l-7.29 -2.43 0 -7.29c5.67,-16.2 37.47,-74.93 95.39,-176.19 57.92,-101.26 90.93,-155.13 99.03,-161.61z"/>
   <path id="_1" class="fil0" d="M1028.61 178.16c0,48.6 -11.74,105.92 -35.24,171.94 -23.49,66.02 -53.67,129.61 -90.53,190.77 -36.86,61.16 -81.82,113 -134.88,155.53 -53.06,42.53 -103.29,63.79 -150.67,63.79 -47.39,0 -82.43,-15.19 -105.11,-45.57 -22.68,-30.38 -34.02,-67.84 -34.02,-112.4 0,-62.37 21.87,-137.31 65.62,-224.8 43.74,-87.49 100.65,-165.05 170.72,-232.7 70.07,-67.64 137.11,-101.46 201.1,-101.46 75.34,0 113,44.96 113,134.88zm-239.98 442.3c57.92,-76.96 104.7,-161 140.35,-252.14 35.64,-91.13 53.47,-164.24 53.47,-219.33 0,-55.09 -21.87,-82.63 -65.62,-82.63 -37.26,0 -78.37,23.7 -123.33,71.08 -44.96,47.39 -84.85,102.88 -119.69,166.47 -34.83,63.59 -64,127.59 -87.49,191.99 -23.49,64.4 -35.24,114.02 -35.24,148.85 0,60.76 24.71,91.13 74.12,91.13 51.03,0 105.51,-38.48 163.43,-115.44z"/>
   <path class="fil1" d="M1164.41 577.41c0,-19.1 1.04,-37.84 3.12,-56.25 8.33,0.69 12.85,1.74 13.89,1.39 2.78,-0.35 7.29,-1.74 6.25,-6.94 -0.35,-3.12 -7.29,-5.9 -18.75,-7.64 12.5,-98.26 45.83,-180.54 45.83,-185.75 0,-3.12 -16.67,-9.37 -28.47,-9.37 -17.01,0 -59.37,94.78 -120.13,191.3 -13.19,0.69 -26.04,1.74 -37.15,3.47 -37.84,5.56 -106.24,20.14 -104.51,30.55 1.04,9.37 6.6,18.05 12.85,17.01 12.5,-1.74 41.66,-20.14 104.16,-29.51 3.82,-0.35 7.64,-1.04 11.46,-1.39 -61.45,93.74 -140.61,182.97 -230.88,182.97 -73.95,0 -113.88,-47.57 -113.88,-102.07 0,-72.91 70.83,-145.47 123.6,-145.47 17.01,0 34.72,6.25 34.72,-3.82 0,-10.42 -1.74,-34.72 -44.44,-34.72 -58.68,0 -151.03,87.15 -151.03,167.35 0,80.2 52.08,135.41 144.09,135.41 113.19,0 207.97,-109.37 268.03,-202.76 18.05,-1.39 33.68,-2.08 46.87,-2.08 -3.12,22.57 -5.21,45.14 -5.21,63.88 0,82.98 46.18,121.52 91.31,121.52 12.15,0 21.87,-6.94 21.87,-10.76 0,-4.17 -73.61,3.82 -73.61,-116.31zm-32.29 -73.26c-12.15,-0.69 -25,-1.04 -37.84,-0.69 38.19,-62.49 59.72,-113.88 59.72,-113.88 0,0 -13.54,55.9 -21.87,114.57z"/>
   <path id="_1_0" class="fil1" d="M1328.28 657.95c39.93,0 124.3,-123.6 149.29,-158.67 4.17,-5.9 -3.82,-10.42 -8.68,-4.17 -18.4,25.35 -97.91,133.32 -121.17,133.32 -37.84,0 72.22,-103.12 72.22,-149.64 0,-17.36 -6.6,-27.78 -22.22,-27.78 -44.79,0 -111.45,92.35 -114.57,92.35 -2.78,0 26.73,-46.18 26.73,-68.05 0,-21.87 -30.55,-27.08 -30.55,-22.91 0,45.48 -96.52,187.83 -96.52,191.65 -0.35,2.78 9.37,13.89 22.57,13.89 14.23,0 132.28,-182.97 169.78,-182.97 34.37,0 -74.99,91.31 -74.99,149.29 0,0 -1.74,33.68 28.12,33.68z"/>
   <path id="_2" class="fil1" d="M1641.11 495.12c-13.54,18.4 -37.15,44.44 -65.97,57.29 12.5,-23.96 20.48,-46.52 20.48,-61.8 0,-17.01 -7.64,-39.58 -37.15,-39.58 -27.43,0 -51.38,14.58 -64.58,38.89 -3.47,-1.04 -8.68,-1.74 -17.36,-1.74 -22.57,0 -60.76,79.16 -60.76,122.91 0,44.44 27.43,46.87 39.93,46.87 37.84,0 79.85,-42.01 107.98,-86.45 36.8,-13.89 67.36,-45.83 86.1,-72.22 4.17,-5.9 -4.17,-10.42 -8.68,-4.17zm-171.17 138.53c-8.33,0 -19.79,-5.9 -19.79,-23.26 0,-26.04 18.4,-56.94 32.98,-79.85 0,1.04 -0.35,2.43 -0.35,3.47 0,21.87 5.9,44.79 43.05,44.79 5.21,0 10.42,-0.35 15.28,-1.04 -20.83,30.21 -47.22,55.9 -71.17,55.9zm82.63 -74.65c-3.82,0.69 -7.99,1.04 -12.15,1.04 -12.15,0 -28.12,-8.33 -28.12,-29.51 0,-21.18 23.26,-57.63 50.34,-57.63 11.11,0 15.62,6.94 15.62,17.36 0,14.58 -10.07,42.01 -25.69,68.74z"/>
   <path id="_3" class="fil1" d="M1788.32 495.12c-13.89,18.75 -62.49,88.53 -93.74,114.57 2.43,-7.29 3.47,-16.32 3.47,-24.3 0,-39.58 -17.71,-78.81 -17.71,-120.82 0,-27.43 26.39,-41.66 26.39,-53.12 0,-3.82 -4.51,-7.29 -11.11,-7.29 -27.08,0 -58.33,23.96 -58.33,54.86 0,40.62 43.75,178.8 -15.97,178.8 -19.44,0 -26.73,-12.5 -26.73,-25 0,-12.85 -13.19,-14.58 -13.19,3.12 0,19.79 13.19,42.01 44.09,42.01 1.74,0 5.21,0 5.21,0 65.62,0 141.31,-123.6 166.31,-158.67 4.17,-5.9 -4.17,-10.42 -8.68,-4.17z"/>
  </g>
  <path class="fil2" d="M356.92 205.89c0,13.19 -4.75,25.46 -14.23,36.8 -13.43,16.2 -31.36,27.89 -53.82,35.07 -16.67,5.32 -32.87,7.99 -48.61,7.99 -5.79,0 -11.46,-0.35 -17.01,-1.04 -36.34,-4.63 -67.12,-12.61 -92.35,-23.96 -22.91,16.9 -47.1,25.35 -72.56,25.35 -30.09,0 -48.72,-8.33 -55.9,-25 -1.62,-3.93 -2.43,-8.57 -2.43,-13.89 0,-5.32 2.66,-11 7.99,-17.01 8.33,-9.26 19.9,-13.89 34.72,-13.89 9.72,0 18.52,1.39 26.39,4.17 7.87,2.78 17.59,7.29 29.16,13.54 11.57,6.25 20.14,10.76 25.69,13.54 10.18,-9.95 20.72,-23.78 31.59,-41.49 10.88,-17.71 20.43,-35.07 28.64,-52.08 8.22,-17.01 18.69,-35.93 31.42,-56.76 12.73,-20.83 25.69,-38.54 38.89,-53.12l19.79 -22.57c-18.29,-3.24 -38.42,-4.86 -60.41,-4.86 -21.99,0 -46.18,2.89 -72.56,8.68 -36.11,7.64 -63.88,23.15 -83.33,46.52 -11.8,14.12 -17.71,27.54 -17.71,40.27 0,16.9 8.22,27.89 24.65,32.98 5.79,1.62 10.88,2.43 15.28,2.43 4.4,0 9.49,-0.81 15.28,-2.43 5.79,-1.62 11.4,-5.04 16.84,-10.24 5.44,-5.21 9.37,-10.24 11.8,-15.1 2.43,-4.86 3.64,-8.51 3.64,-10.94 0,-2.43 1.16,-3.64 3.47,-3.64 2.32,0.23 3.59,1.85 3.82,4.86l0 0.35c-2.55,16.9 -11.57,29.74 -27.08,38.54 -9.49,5.09 -18.98,7.64 -28.47,7.64l-18.05 -3.12c-24.54,-8.57 -36.8,-24.54 -36.8,-47.91 0,-15.97 7.06,-31.71 21.18,-47.22 22.68,-25.46 56.01,-41.32 99.99,-47.57 21.29,-3.01 43.46,-4.51 66.49,-4.51 23.03,0 46.46,2.55 70.31,7.64 6.48,-5.56 12.15,-9.26 17.01,-11.11 4.86,-1.85 7.7,-2.78 8.51,-2.78 0.81,0 1.33,0.11 1.56,0.35 1.39,0 1.68,0.75 0.87,2.26 -0.81,1.51 -3.36,3.65 -7.64,6.42 -4.28,2.78 -6.89,5.32 -7.81,7.64 31.48,8.1 54.16,19.68 68.05,34.72 7.41,8.33 11.11,16.84 11.11,25.52 0,8.68 -2.55,17.42 -7.64,26.21 -6.71,11.57 -17.59,20.31 -32.64,26.21 -15.04,5.9 -30.21,9.2 -45.48,9.9 14.81,4.63 28.58,11.11 41.32,19.44 18.05,11.8 27.08,27.54 27.08,47.22zm-121.52 70.13c25.92,0 47.91,-7.41 65.97,-22.22 19.68,-15.74 29.51,-32.75 29.51,-51.04 0,-18.98 -10.07,-33.33 -30.21,-43.05 -7.41,-3.47 -16.49,-6.89 -27.25,-10.24 -10.76,-3.35 -19.44,-6.19 -26.04,-8.5 -6.6,-2.32 -10.36,-4.51 -11.29,-6.6 0,-4.4 3.36,-6.71 10.07,-6.94 4.4,0 11.11,0.35 20.14,1.04 9.03,0.69 16.78,0.98 23.26,0.87 6.48,-0.11 14.29,-2.43 23.44,-6.94 9.14,-4.51 16.95,-10.36 23.43,-17.53 10.42,-11.57 15.62,-22.45 15.62,-32.64 0,-21.76 -20.37,-37.38 -61.11,-46.87 -12.27,16.9 -34.26,52.6 -65.97,107.11 -31.71,54.51 -56.13,91.02 -73.26,109.54l-13.19 12.5c26.15,10.88 54.28,17.82 84.37,20.83 4.4,0.46 8.57,0.69 12.5,0.69zm-119.09 -21.87c-27.08,-12.96 -44.21,-20.72 -51.38,-23.26 -7.18,-2.55 -14.29,-3.82 -21.35,-3.82 -7.06,0 -12.67,2.49 -16.84,7.46 -4.17,4.98 -6.25,9.49 -6.25,13.54 0,4.05 0.93,7.93 2.78,11.63 5.09,10.42 15.74,15.62 31.94,15.62 21.99,0 42.36,-7.06 61.11,-21.18z"/>
  <path id="_1_1" class="fil2" d="M440.94 151.03c16.9,0 25.35,10.65 25.35,31.94 0,9.72 -2.55,20.14 -7.64,31.25 -6.48,15.04 -16.2,28.7 -29.16,40.97 3.01,5.79 8.45,8.68 16.32,8.68 6.25,0 12.15,-3.12 17.71,-9.37 6.94,-7.18 11.92,-13.48 14.93,-18.92 3.01,-5.44 5.21,-9.43 6.6,-11.98 1.39,-2.55 3.18,-6.19 5.38,-10.94 2.2,-4.74 3.53,-7.64 3.99,-8.68 0.46,-1.04 1.27,-1.56 2.43,-1.56 2.32,-0.23 3.47,0.58 3.47,2.43 0,0.69 -0.23,1.5 -0.69,2.43l-2.08 4.86c-1.39,3.24 -2.43,5.56 -3.12,6.94 -0.69,1.39 -1.91,3.88 -3.64,7.46 -1.74,3.59 -3.24,6.42 -4.51,8.51 -1.27,2.08 -3.01,4.86 -5.21,8.33 -2.2,3.47 -4.17,6.25 -5.9,8.33 -1.74,2.08 -3.88,4.4 -6.42,6.94 -2.55,2.55 -4.98,4.51 -7.29,5.9 -5.79,3.47 -11.23,5.21 -16.32,5.21 -9.49,0 -16.9,-3.01 -22.22,-9.03 -10.65,7.87 -20.48,11.8 -29.51,11.8 -16.9,0 -25.35,-10.65 -25.35,-31.94 0,-9.72 2.55,-20.14 7.64,-31.25 6.94,-16.2 16.72,-29.97 29.34,-41.32 12.61,-11.34 24.59,-17.01 35.93,-17.01zm3.82 10.76c-6.25,0 -13.66,4.17 -22.22,12.5 -8.57,8.33 -16.2,19.68 -22.91,34.02 -8.1,16.67 -12.15,30.32 -12.15,40.97 0,10.65 4.05,15.97 12.15,15.97 5.79,0 12.27,-3.12 19.44,-9.37 -3.7,-5.32 -5.56,-11 -5.56,-17.01 0.46,-9.95 4.51,-14.93 12.15,-14.93 3.01,0 5.5,1.04 7.47,3.12 1.97,2.08 2.95,3.99 2.95,5.73 0,1.74 -0.23,3.53 -0.69,5.38 3.93,-5.79 8.45,-14 13.54,-24.65 5.79,-11.8 8.68,-23.38 8.68,-34.72 0,-11.34 -4.28,-17.01 -12.85,-17.01z"/>
  <path id="_2_2" class="fil2" d="M567.31 252.41c0,7.41 3.01,11.11 9.03,11.11 10.88,0 25.35,-18.17 43.4,-54.51 0.69,-1.39 1.33,-2.78 1.91,-4.17 0.58,-1.39 1.5,-2.32 2.78,-2.78 1.27,-0.46 2.14,-0.17 2.6,0.87 0.46,1.04 0.23,2.72 -0.69,5.04 -18.52,43.05 -37.26,64.58 -56.25,64.58 -6.25,0 -11.23,-2.78 -14.93,-8.33 -3.7,-5.56 -5.56,-11.05 -5.56,-16.49 0,-5.44 0.58,-10.47 1.74,-15.1 -13.43,22.22 -25,34.83 -34.72,37.84 -2.78,1.16 -5.5,1.74 -8.16,1.74 -2.66,0 -5.27,-0.35 -7.81,-1.04 -11.34,-3.01 -17.01,-12.04 -17.01,-27.08 0,-10.18 2.61,-21.47 7.81,-33.85 5.21,-12.38 12.56,-24.24 22.05,-35.59 9.49,-11.34 20.95,-18.98 34.37,-22.91 4.86,-1.62 10.59,-2.43 17.19,-2.43 6.6,0 13.95,2.08 22.05,6.25 15.74,-29.63 29.16,-57.05 40.27,-82.28 3.24,-7.64 6.42,-12.56 9.55,-14.76 3.12,-2.2 6.02,-3.3 8.68,-3.3 2.66,0 4.28,0 4.86,0 0.58,0 2.78,0.29 6.6,0.87 3.82,0.58 6.77,0.75 8.85,0.52 -5.32,4.86 -19.44,28.47 -42.36,70.83 -29.16,54.16 -46.76,90.27 -52.77,108.32 -2.32,6.71 -3.47,12.27 -3.47,16.67zm17.01 -91.31c-3.01,-3.01 -7.23,-4.51 -12.67,-4.51 -5.44,0 -13.02,4.05 -22.74,12.15 -15.51,12.96 -28.36,28.93 -38.54,47.91 -6.71,12.5 -10.07,22.8 -10.07,30.9 0,3.7 0.75,7.06 2.26,10.07 1.5,3.01 3.88,4.51 7.12,4.51 7.87,0 17.59,-8.1 29.16,-24.3 11.57,-16.2 26.73,-41.78 45.48,-76.73z"/>
  <path id="_3_3" class="fil2" d="M727.02 178.46c-4.17,4.17 -10.07,13.6 -17.71,28.29 -7.64,14.7 -12.21,25.69 -13.71,32.98 -1.51,7.29 -2.26,13.19 -2.26,17.71 0,4.51 1.74,6.77 5.21,6.77 4.4,0 9.84,-4.05 16.32,-12.15 9.49,-11.8 18.86,-27.2 28.12,-46.18 0.93,-2.08 1.97,-3.24 3.12,-3.47 1.85,-0.69 2.78,0 2.78,2.08 0,1.16 -0.35,2.55 -1.04,4.17 -21.29,43.05 -39.23,64.58 -53.82,64.58 -6.71,0 -12.15,-3.24 -16.32,-9.72 -2.08,-3.47 -3.12,-8.1 -3.12,-13.89 0,-5.79 1.16,-12.85 3.47,-21.18 -18.52,29.86 -34.49,44.79 -47.91,44.79 -3.7,0 -7.06,-1.16 -10.07,-3.47 -6.94,-4.86 -10.42,-13.19 -10.42,-25 0,-22.68 9.84,-45.71 29.51,-69.09 11.11,-12.96 24.77,-21.41 40.97,-25.35 4.4,-1.16 8.57,-1.74 12.5,-1.74 10.65,0 19.68,3.7 27.08,11.11 2.32,2.55 3.01,4.98 2.08,7.29 -0.93,2.32 -2.89,3.24 -5.9,2.78 -2.55,-8.33 -8.1,-12.5 -16.67,-12.5 -9.95,0 -22.22,7.87 -36.8,23.61 -8.33,9.26 -16.09,20.14 -23.26,32.64 -9.03,15.04 -13.54,27.08 -13.54,36.11 0,9.03 2.89,13.54 8.68,13.54 13.89,0 32.06,-21.29 54.51,-63.88 4.4,-8.57 8.1,-14.41 11.11,-17.53 3.01,-3.12 6.83,-4.69 11.46,-4.69 0.93,0 3.3,0.35 7.12,1.04 3.82,0.69 6.65,0.81 8.5,0.35z"/>
  <path id="_4" class="fil2" d="M772.85 265.95c3.01,0.46 5.09,0.69 6.25,0.69 9.26,0 18.4,-5.44 27.43,-16.32 4.86,-6.02 13.54,-21.18 26.04,-45.48 0.46,-1.16 1.27,-1.74 2.43,-1.74 2.08,-0.23 3.12,0.58 3.12,2.43 0,0.46 -0.52,1.79 -1.56,3.99 -1.04,2.2 -2.03,4.4 -2.95,6.6 -0.93,2.2 -2.43,5.38 -4.51,9.55 -2.08,4.17 -3.88,7.52 -5.38,10.07 -1.51,2.55 -3.41,5.67 -5.73,9.37 -2.32,3.7 -4.63,6.6 -6.94,8.68l-7.29 7.64c-3.93,3.93 -8.57,6.71 -13.89,8.33 -8.57,2.78 -16.9,3.01 -25,0.69 -5.32,2.32 -10.07,3.47 -14.23,3.47 -16.43,0 -26.39,-6.48 -29.86,-19.44 -0.69,-3.01 -1.04,-6.65 -1.04,-10.94 0,-4.28 1.45,-8.39 4.34,-12.32 2.89,-3.93 5.96,-6.02 9.2,-6.25 11.8,-22.45 21.87,-42.7 30.21,-60.76 9.26,-19.68 20.02,-29.51 32.29,-29.51 3.24,0 6.42,0.75 9.55,2.26 3.12,1.51 4.28,3.18 3.47,5.04 -0.81,1.85 -2.49,2.2 -5.04,1.04 -2.55,-1.16 -4.75,-1.74 -6.6,-1.74 -1.85,0 -3.47,0.35 -4.86,1.04 -7.87,3.7 -11.8,11.69 -11.8,23.96 0,6.48 0.93,11.8 2.78,15.97 1.85,4.17 3.93,8.68 6.25,13.54 5.32,12.04 7.99,21.87 7.99,29.51 0,7.64 -2.43,15.16 -7.29,22.57 -4.86,7.41 -10.65,13.43 -17.36,18.05zm-11.8 -2.43c10.18,-7.87 15.28,-20.6 15.28,-38.19 0,-7.18 -0.81,-17.01 -2.43,-29.51 -1.62,-12.5 -2.43,-20.95 -2.43,-25.35 0,-4.4 0.11,-7.41 0.35,-9.03 -17.59,35.18 -28.47,56.59 -32.64,64.23 4.86,0 7.29,3.47 7.29,10.42 0,13.66 4.86,22.8 14.58,27.43zm-26.04 -9.37c0,1.39 0.11,2.89 0.35,4.51 1.85,6.25 6.13,9.37 12.85,9.37 2.78,0 5.09,-0.46 6.94,-1.39 -8.57,-5.32 -13.19,-14 -13.89,-26.04 -4.17,4.17 -6.25,8.68 -6.25,13.54z"/>
  <path id="_5" class="fil2" d="M995.06 252.41c0,7.41 3.01,11.11 9.03,11.11 10.88,0 25.35,-18.17 43.4,-54.51 0.69,-1.39 1.33,-2.78 1.91,-4.17 0.58,-1.39 1.5,-2.32 2.78,-2.78 1.27,-0.46 2.14,-0.17 2.6,0.87 0.46,1.04 0.23,2.72 -0.69,5.04 -18.52,43.05 -37.26,64.58 -56.25,64.58 -6.25,0 -11.23,-2.78 -14.93,-8.33 -3.7,-5.56 -5.56,-11.05 -5.56,-16.49 0,-5.44 0.58,-10.47 1.74,-15.1 -13.43,22.22 -25,34.83 -34.72,37.84 -2.78,1.16 -5.5,1.74 -8.16,1.74 -2.66,0 -5.27,-0.35 -7.81,-1.04 -11.34,-3.01 -17.01,-12.04 -17.01,-27.08 0,-10.18 2.61,-21.47 7.81,-33.85 5.21,-12.38 12.56,-24.24 22.05,-35.59 9.49,-11.34 20.95,-18.98 34.37,-22.91 4.86,-1.62 10.59,-2.43 17.19,-2.43 6.6,0 13.95,2.08 22.05,6.25 15.74,-29.63 29.16,-57.05 40.27,-82.28 3.24,-7.64 6.42,-12.56 9.55,-14.76 3.12,-2.2 6.02,-3.3 8.68,-3.3 2.66,0 4.28,0 4.86,0 0.58,0 2.78,0.29 6.6,0.87 3.82,0.58 6.77,0.75 8.85,0.52 -5.32,4.86 -19.44,28.47 -42.36,70.83 -29.16,54.16 -46.76,90.27 -52.77,108.32 -2.32,6.71 -3.47,12.27 -3.47,16.67zm17.01 -91.31c-3.01,-3.01 -7.23,-4.51 -12.67,-4.51 -5.44,0 -13.02,4.05 -22.74,12.15 -15.51,12.96 -28.36,28.93 -38.54,47.91 -6.71,12.5 -10.07,22.8 -10.07,30.9 0,3.7 0.75,7.06 2.26,10.07 1.5,3.01 3.88,4.51 7.12,4.51 7.87,0 17.59,-8.1 29.16,-24.3 11.57,-16.2 26.73,-41.78 45.48,-76.73z"/>
  <path id="_6" class="fil2" d="M1064.5 219.08c-3.24,7.87 -4.86,16.67 -4.86,26.39 0,6.48 1.45,11.63 4.34,15.45 2.89,3.82 7,5.73 12.32,5.73 21.06,0 40.16,-19.79 57.29,-59.37 1.62,-3.7 3.59,-5.32 5.9,-4.86 0.93,0.23 1.39,0.81 1.39,1.74 0,0.93 -2.6,7 -7.81,18.23 -5.21,11.23 -10.48,20.31 -15.8,27.26 -11.8,16.2 -26.39,24.3 -43.75,24.3 -9.26,0 -17.13,-3.01 -23.61,-9.03 -6.48,-6.02 -9.72,-14.23 -9.72,-24.65 0,-10.42 2.49,-21.47 7.47,-33.16 4.98,-11.69 11.74,-22.57 20.31,-32.64 8.57,-10.07 18.4,-17.42 29.51,-22.05 5.32,-2.32 10.42,-3.47 15.28,-3.47 4.86,0 9.37,1.39 13.54,4.17 3.93,3.24 5.9,6.83 5.9,10.76 0,13.89 -8.33,27.2 -25,39.93 -5.09,3.93 -12.27,7.46 -21.53,10.59 -9.26,3.12 -16.32,4.69 -21.18,4.69zm58.33 -55.55c0,-4.63 -1.85,-6.94 -5.56,-6.94 -6.48,0 -16.32,7.99 -29.51,23.96 -7.87,9.72 -14.81,20.6 -20.83,32.64 3.93,0 9.66,-1.39 17.19,-4.17 7.52,-2.78 14.06,-6.48 19.62,-11.11 12.73,-10.88 19.1,-22.34 19.1,-34.37z"/>
  <path id="_7" class="fil2" d="M1391.55 264.21c-25.69,19.68 -51.73,29.51 -78.12,29.51 -27.78,0 -48.03,-10.3 -60.76,-30.9 -9.03,-15.04 -13.54,-31.77 -13.54,-50.17 0,-18.4 3.36,-36.74 10.07,-55.03 -16.2,-10.88 -25.11,-25.46 -26.73,-43.75 -0.46,-3.47 -0.69,-6.94 -0.69,-10.42 0,-27.78 11.92,-51.04 35.76,-69.79 25.46,-19.9 55.55,-29.86 90.27,-29.86 34.72,0 63.48,9.66 86.28,28.99 22.8,19.33 34.2,46.93 34.2,82.81 0,2.32 0,4.63 0,6.94 23.15,-15.28 38.19,-29.86 45.14,-43.75 1.16,-2.55 2.66,-3.65 4.51,-3.3 1.85,0.35 2.78,1.1 2.78,2.26 0,1.16 -0.69,2.78 -2.08,4.86 -13.66,21.53 -30.9,38.89 -51.73,52.08 -0.93,10.88 -3.88,23.96 -8.85,39.23 -4.98,15.28 -13.37,31.07 -25.17,47.39 -11.8,16.32 -25.58,30.61 -41.32,42.88zm56.25 -148.95c0,-39.12 -12.5,-68.05 -37.5,-86.8 -16.67,-12.5 -36.11,-18.75 -58.33,-18.75 -6.48,0 -13.08,0.58 -19.79,1.74 -28.24,4.17 -51.27,15.86 -69.09,35.07 -15.04,16.67 -22.57,35.53 -22.57,56.59 0,18.29 4.98,31.71 14.93,40.27 9.03,-19.21 22.34,-38.65 39.93,-58.33 19.21,-21.53 39.47,-34.72 60.76,-39.58 3.47,-0.69 7.93,-1.04 13.37,-1.04 5.44,0 11.74,2.2 18.92,6.6 1.62,0.93 2.49,1.85 2.61,2.78 0.11,0.93 -0.41,1.62 -1.56,2.08 -1.16,0.46 -2.89,0.29 -5.21,-0.52 -2.32,-0.81 -6.19,-1.21 -11.63,-1.21 -5.44,0 -13.25,2.78 -23.44,8.33 -10.18,5.56 -20.48,14.23 -30.9,26.04 -20.6,23.38 -35.65,45.6 -45.14,66.66 14.58,6.71 32.06,10.07 52.43,10.07 9.03,0 18.63,-0.58 28.82,-1.74 33.1,-4.4 64,-14.35 92.7,-29.86 0.46,-6.25 0.69,-12.38 0.69,-18.4zm-2.78 30.55c-38.65,20.6 -79.39,30.9 -122.21,30.9 -20.83,0 -39.12,-3.12 -54.86,-9.37 -7.18,18.75 -10.76,34.95 -10.76,48.61 0,31.94 9.61,52.66 28.82,62.15 10.42,4.86 20.77,7.29 31.08,7.29 10.3,0 20.31,-2.2 30.03,-6.6 20.37,-9.26 38.65,-23.72 54.86,-43.4 16.2,-19.68 28.47,-41.32 36.8,-64.93 3.24,-9.26 5.32,-17.47 6.25,-24.65z"/>
  <path id="_8" class="fil2" d="M1464.46 252.41c0,-9.95 4.28,-21.99 12.85,-36.11 -3.7,0 -4.75,-1.85 -3.12,-5.56l6.25 -12.15c7.87,-15.04 14.35,-27.78 19.44,-38.19 2.32,-4.86 6.83,-7.29 13.54,-7.29l21.18 0c-8.33,6.02 -16.72,17.65 -25.17,34.89 -8.45,17.24 -14.99,30.79 -19.62,40.62 -4.63,9.84 -6.94,17.3 -6.94,22.4 0,5.09 0.87,8.68 2.61,10.76 1.74,2.08 4.11,3.12 7.12,3.12 4.4,0 10.53,-4.63 18.4,-13.89 12.27,-14.35 29.51,-44.56 51.73,-90.62 2.55,-4.86 7.06,-7.29 13.54,-7.29l18.75 0c-5.09,3.93 -9.08,7.99 -11.98,12.15 -2.9,4.17 -6.89,11.57 -11.98,22.22 -13.89,27.78 -21.64,46.18 -23.26,55.2 -0.69,3.24 -1.04,6.25 -1.04,9.03 0,7.41 2.55,11.34 7.64,11.8 12.5,0 27.89,-19.33 46.18,-57.98 1.39,-3.24 2.78,-4.51 4.17,-3.82 1.39,0.69 2.08,1.62 2.08,2.78 0,1.16 -1.04,3.82 -3.12,7.99 -2.08,4.17 -4.11,8.22 -6.07,12.15 -1.97,3.93 -4.98,9.32 -9.03,16.14 -4.05,6.83 -7.81,12.21 -11.29,16.15 -9.03,10.18 -17.88,15.28 -26.56,15.28 -8.68,0 -14.64,-3.82 -17.88,-11.46 -1.39,-3.47 -2.08,-7.87 -2.08,-13.19 0,-5.32 1.16,-11.92 3.47,-19.79 -16.9,29.63 -32.52,44.44 -46.87,44.44 -12.5,0 -19.79,-5.21 -21.87,-15.62 -0.69,-1.16 -1.04,-2.55 -1.04,-4.17z"/>
  <path id="_9" class="fil2" d="M1647.43 133.32c0,10.42 -6.6,20.25 -19.79,29.51 4.63,0.23 10.82,0.35 18.58,0.35 7.75,0 17.53,-0.58 29.34,-1.74 0.46,0.69 0.69,2.55 0.69,5.56 0,3.01 -1.39,7.46 -4.17,13.37 -2.78,5.9 -5.27,11 -7.46,15.28 -2.2,4.28 -4.28,8.33 -6.25,12.15 -1.97,3.82 -4.17,8.51 -6.6,14.06 -2.43,5.56 -4.46,10.65 -6.08,15.28 -5.79,17.59 -4.86,26.39 2.78,26.39 9.72,0 24.07,-19.33 43.05,-57.98 1.62,-3.01 2.95,-4.17 3.99,-3.47 1.04,0.69 1.56,1.56 1.56,2.6 0,1.04 -1.5,4.63 -4.51,10.76 -3.01,6.13 -6.25,12.44 -9.72,18.92 -3.47,6.48 -8.91,14 -16.32,22.57 -8.79,10.65 -17.24,15.97 -25.35,15.97 -9.03,0 -15.28,-5.44 -18.75,-16.32 -0.69,-2.08 -1.04,-5.21 -1.04,-9.37 0,-4.17 1.33,-9.72 3.99,-16.67 2.66,-6.94 6.88,-15.39 12.67,-25.35 5.79,-9.95 9.03,-15.8 9.72,-17.53 0.69,-1.74 1.04,-3.41 1.04,-5.03 0,-7.18 -9.26,-11 -27.78,-11.46l-4.17 11.11c-14.58,38.19 -28.58,63.77 -42.01,76.73 -2.32,2.08 -3.47,1.39 -3.47,-2.08 0,-0.69 0.23,-1.5 0.69,-2.43 12.96,-17.13 24.19,-37.38 33.68,-60.76 9.49,-23.38 16.09,-45.6 19.79,-66.66 1.39,-7.18 4.63,-10.76 9.72,-10.76 5.09,0 8.79,3.24 11.11,9.72 0.69,2.08 1.04,4.51 1.04,7.29z"/>
  <path id="_10" class="fil2" d="M1754.02 151.03c16.9,0 25.35,10.65 25.35,31.94 0,9.72 -2.55,20.14 -7.64,31.25 -6.48,15.04 -16.2,28.7 -29.16,40.97 3.01,5.79 8.45,8.68 16.32,8.68 6.25,0 12.15,-3.12 17.71,-9.37 6.94,-7.18 11.92,-13.48 14.93,-18.92 3.01,-5.44 5.21,-9.43 6.6,-11.98 1.39,-2.55 3.18,-6.19 5.38,-10.94 2.2,-4.74 3.53,-7.64 3.99,-8.68 0.46,-1.04 1.27,-1.56 2.43,-1.56 2.32,-0.23 3.47,0.58 3.47,2.43 0,0.69 -0.23,1.5 -0.69,2.43l-2.08 4.86c-1.39,3.24 -2.43,5.56 -3.12,6.94 -0.69,1.39 -1.91,3.88 -3.64,7.46 -1.74,3.59 -3.24,6.42 -4.51,8.51 -1.27,2.08 -3.01,4.86 -5.21,8.33 -2.2,3.47 -4.17,6.25 -5.9,8.33 -1.74,2.08 -3.88,4.4 -6.42,6.94 -2.55,2.55 -4.98,4.51 -7.29,5.9 -5.79,3.47 -11.23,5.21 -16.32,5.21 -9.49,0 -16.9,-3.01 -22.22,-9.03 -10.65,7.87 -20.48,11.8 -29.51,11.8 -16.9,0 -25.35,-10.65 -25.35,-31.94 0,-9.72 2.55,-20.14 7.64,-31.25 6.94,-16.2 16.72,-29.97 29.34,-41.32 12.61,-11.34 24.59,-17.01 35.93,-17.01zm3.82 10.76c-6.25,0 -13.66,4.17 -22.22,12.5 -8.57,8.33 -16.2,19.68 -22.91,34.02 -8.1,16.67 -12.15,30.32 -12.15,40.97 0,10.65 4.05,15.97 12.15,15.97 5.79,0 12.27,-3.12 19.44,-9.37 -3.7,-5.32 -5.56,-11 -5.56,-17.01 0.46,-9.95 4.51,-14.93 12.15,-14.93 3.01,0 5.5,1.04 7.47,3.12 1.97,2.08 2.95,3.99 2.95,5.73 0,1.74 -0.23,3.53 -0.69,5.38 3.93,-5.79 8.45,-14 13.54,-24.65 5.79,-11.8 8.68,-23.38 8.68,-34.72 0,-11.34 -4.28,-17.01 -12.85,-17.01z"/>
 </g>
</svg>
