<?xml version="1.0" encoding="UTF-8"?>
<!DOCTYPE svg PUBLIC "-//W3C//DTD SVG 1.1//EN" "http://www.w3.org/Graphics/SVG/1.1/DTD/svg11.dtd">
<!-- Creator: CorelDRAW -->
<svg xmlns="http://www.w3.org/2000/svg" xml:space="preserve" width="61.0715mm" height="9.8921mm" version="1.1" style="shape-rendering:geometricPrecision; text-rendering:geometricPrecision; image-rendering:optimizeQuality; fill-rule:evenodd; clip-rule:evenodd"
viewBox="0 0 588 95.24"
 xmlns:xlink="http://www.w3.org/1999/xlink"
 xmlns:xodm="http://www.corel.com/coreldraw/odm/2003">
 <defs>
  <style type="text/css">
   <![CDATA[
    .fil1 {fill:#CC9933;fill-rule:nonzero}
    .fil0 {fill:white;fill-rule:nonzero}
   ]]>
  </style>
 </defs>
 <g id="Camada_x0020_1">
  <metadata id="CorelCorpID_0Corel-Layer"/>
  <path class="fil0" d="M115.73 66.76c0,4.28 -1.54,8.26 -4.62,11.93 -4.35,5.25 -10.17,9.04 -17.45,11.37 -5.4,1.73 -10.66,2.59 -15.76,2.59 -1.88,0 -3.71,-0.11 -5.52,-0.34 -11.78,-1.5 -21.77,-4.09 -29.95,-7.77 -7.43,5.48 -15.27,8.22 -23.53,8.22 -9.76,0 -15.8,-2.7 -18.12,-8.11 -0.53,-1.28 -0.79,-2.78 -0.79,-4.5 0,-1.73 0.86,-3.56 2.59,-5.52 2.7,-3 6.45,-4.5 11.26,-4.5 3.15,0 6,0.45 8.56,1.35 2.55,0.9 5.7,2.36 9.46,4.39 3.75,2.03 6.53,3.49 8.33,4.39 3.3,-3.23 6.72,-7.71 10.24,-13.45 3.53,-5.74 6.62,-11.37 9.29,-16.89 2.66,-5.52 6.06,-11.65 10.19,-18.41 4.13,-6.75 8.33,-12.5 12.61,-17.22l6.42 -7.32c-5.93,-1.05 -12.46,-1.58 -19.59,-1.58 -7.13,0 -14.97,0.94 -23.53,2.81 -11.71,2.48 -20.71,7.51 -27.02,15.09 -3.83,4.58 -5.74,8.93 -5.74,13.06 0,5.48 2.66,9.04 7.99,10.69 1.88,0.53 3.53,0.79 4.95,0.79 1.43,0 3.08,-0.26 4.95,-0.79 1.88,-0.52 3.7,-1.63 5.46,-3.32 1.76,-1.69 3.04,-3.32 3.83,-4.9 0.79,-1.58 1.18,-2.76 1.18,-3.55 0,-0.79 0.38,-1.18 1.13,-1.18 0.75,0.08 1.16,0.6 1.24,1.58l0 0.11c-0.83,5.48 -3.75,9.64 -8.78,12.5 -3.08,1.65 -6.15,2.48 -9.23,2.48l-5.85 -1.01c-7.96,-2.78 -11.93,-7.96 -11.93,-15.54 0,-5.18 2.29,-10.28 6.87,-15.31 7.35,-8.26 18.16,-13.4 32.42,-15.42 6.91,-0.98 14.09,-1.46 21.56,-1.46 7.47,0 15.07,0.83 22.8,2.48 2.1,-1.8 3.94,-3 5.52,-3.6 1.58,-0.6 2.5,-0.9 2.76,-0.9 0.26,0 0.43,0.04 0.51,0.11 0.45,0 0.54,0.24 0.28,0.73 -0.26,0.49 -1.09,1.18 -2.48,2.08 -1.39,0.9 -2.23,1.73 -2.53,2.48 10.21,2.63 17.56,6.38 22.07,11.26 2.4,2.7 3.6,5.46 3.6,8.27 0,2.81 -0.83,5.65 -2.48,8.5 -2.18,3.75 -5.7,6.59 -10.58,8.5 -4.88,1.91 -9.79,2.98 -14.75,3.21 4.8,1.5 9.27,3.6 13.4,6.3 5.85,3.83 8.78,8.93 8.78,15.31zm-39.4 22.74c8.41,0 15.54,-2.4 21.39,-7.2 6.38,-5.1 9.57,-10.62 9.57,-16.55 0,-6.15 -3.26,-10.81 -9.79,-13.96 -2.4,-1.13 -5.35,-2.23 -8.84,-3.32 -3.49,-1.09 -6.3,-2.01 -8.44,-2.76 -2.14,-0.75 -3.36,-1.46 -3.66,-2.14 0,-1.43 1.09,-2.18 3.26,-2.25 1.43,0 3.6,0.11 6.53,0.34 2.93,0.23 5.44,0.32 7.54,0.28 2.1,-0.04 4.63,-0.79 7.6,-2.25 2.96,-1.46 5.5,-3.36 7.6,-5.69 3.38,-3.75 5.07,-7.28 5.07,-10.58 0,-7.06 -6.6,-12.12 -19.81,-15.2 -3.98,5.48 -11.11,17.06 -21.39,34.73 -10.28,17.67 -18.2,29.51 -23.75,35.52l-4.28 4.05c8.48,3.53 17.6,5.78 27.36,6.75 1.43,0.15 2.78,0.23 4.05,0.23zm-38.61 -7.09c-8.78,-4.2 -14.34,-6.72 -16.66,-7.54 -2.33,-0.83 -4.63,-1.24 -6.92,-1.24 -2.29,0 -4.11,0.81 -5.46,2.42 -1.35,1.61 -2.03,3.08 -2.03,4.39 0,1.31 0.3,2.57 0.9,3.77 1.65,3.38 5.1,5.07 10.36,5.07 7.13,0 13.73,-2.29 19.81,-6.87z"/>
  <path id="_1" class="fil0" d="M142.97 48.97c5.48,0 8.22,3.45 8.22,10.36 0,3.15 -0.83,6.53 -2.48,10.13 -2.1,4.88 -5.25,9.31 -9.46,13.28 0.98,1.88 2.74,2.81 5.29,2.81 2.03,0 3.94,-1.01 5.74,-3.04 2.25,-2.33 3.87,-4.37 4.84,-6.14 0.98,-1.76 1.69,-3.06 2.14,-3.88 0.45,-0.83 1.03,-2.01 1.74,-3.55 0.71,-1.54 1.14,-2.48 1.29,-2.81 0.15,-0.34 0.41,-0.51 0.79,-0.51 0.75,-0.08 1.13,0.19 1.13,0.79 0,0.23 -0.07,0.49 -0.22,0.79l-0.68 1.58c-0.45,1.05 -0.79,1.8 -1.01,2.25 -0.23,0.45 -0.62,1.26 -1.18,2.42 -0.56,1.16 -1.05,2.08 -1.46,2.76 -0.41,0.67 -0.98,1.58 -1.69,2.7 -0.71,1.13 -1.35,2.03 -1.91,2.7 -0.56,0.68 -1.26,1.43 -2.08,2.25 -0.83,0.83 -1.61,1.46 -2.36,1.91 -1.88,1.13 -3.64,1.69 -5.29,1.69 -3.08,0 -5.48,-0.98 -7.2,-2.93 -3.45,2.55 -6.64,3.83 -9.57,3.83 -5.48,0 -8.22,-3.45 -8.22,-10.36 0,-3.15 0.83,-6.53 2.48,-10.13 2.25,-5.25 5.42,-9.72 9.51,-13.4 4.09,-3.68 7.97,-5.52 11.65,-5.52zm1.24 3.49c-2.03,0 -4.43,1.35 -7.2,4.05 -2.78,2.7 -5.25,6.38 -7.43,11.03 -2.63,5.4 -3.94,9.83 -3.94,13.28 0,3.45 1.31,5.18 3.94,5.18 1.88,0 3.98,-1.01 6.3,-3.04 -1.2,-1.73 -1.8,-3.56 -1.8,-5.52 0.15,-3.23 1.46,-4.84 3.94,-4.84 0.98,0 1.78,0.34 2.42,1.01 0.64,0.68 0.96,1.29 0.96,1.86 0,0.56 -0.08,1.14 -0.23,1.74 1.28,-1.88 2.74,-4.54 4.39,-7.99 1.88,-3.83 2.81,-7.58 2.81,-11.26 0,-3.68 -1.39,-5.52 -4.17,-5.52z"/>
  <path id="_2" class="fil0" d="M183.95 81.84c0,2.4 0.98,3.6 2.93,3.6 3.53,0 8.22,-5.89 14.07,-17.68 0.23,-0.45 0.43,-0.9 0.62,-1.35 0.19,-0.45 0.49,-0.75 0.9,-0.9 0.41,-0.15 0.69,-0.06 0.84,0.28 0.15,0.34 0.08,0.88 -0.23,1.63 -6,13.96 -12.08,20.94 -18.24,20.94 -2.03,0 -3.64,-0.9 -4.84,-2.7 -1.2,-1.8 -1.8,-3.58 -1.8,-5.35 0,-1.76 0.19,-3.4 0.56,-4.9 -4.35,7.21 -8.11,11.3 -11.26,12.27 -0.9,0.38 -1.78,0.56 -2.65,0.56 -0.86,0 -1.71,-0.11 -2.53,-0.34 -3.68,-0.98 -5.52,-3.9 -5.52,-8.78 0,-3.3 0.84,-6.96 2.53,-10.98 1.69,-4.01 4.07,-7.86 7.15,-11.54 3.08,-3.68 6.79,-6.15 11.15,-7.43 1.58,-0.53 3.43,-0.79 5.57,-0.79 2.14,0 4.52,0.67 7.15,2.03 5.1,-9.61 9.46,-18.5 13.06,-26.68 1.05,-2.48 2.08,-4.07 3.1,-4.78 1.01,-0.71 1.95,-1.07 2.81,-1.07 0.86,0 1.39,0 1.58,0 0.19,0 0.9,0.09 2.14,0.28 1.24,0.19 2.2,0.24 2.87,0.17 -1.73,1.58 -6.3,9.23 -13.73,22.97 -9.46,17.56 -15.16,29.27 -17.11,35.12 -0.75,2.18 -1.13,3.98 -1.13,5.4zm5.52 -29.61c-0.98,-0.98 -2.35,-1.46 -4.11,-1.46 -1.76,0 -4.22,1.31 -7.37,3.94 -5.03,4.2 -9.19,9.38 -12.5,15.54 -2.18,4.05 -3.26,7.39 -3.26,10.02 0,1.2 0.24,2.29 0.73,3.26 0.49,0.98 1.26,1.46 2.31,1.46 2.55,0 5.7,-2.63 9.46,-7.88 3.75,-5.25 8.67,-13.55 14.75,-24.88z"/>
  <path id="_3" class="fil0" d="M235.74 57.87c-1.35,1.35 -3.26,4.41 -5.74,9.17 -2.48,4.77 -3.96,8.33 -4.45,10.69 -0.49,2.36 -0.73,4.28 -0.73,5.74 0,1.46 0.56,2.2 1.69,2.2 1.43,0 3.19,-1.31 5.29,-3.94 3.08,-3.83 6.12,-8.82 9.12,-14.97 0.3,-0.68 0.64,-1.05 1.01,-1.13 0.6,-0.23 0.9,0 0.9,0.67 0,0.38 -0.11,0.83 -0.34,1.35 -6.91,13.96 -12.72,20.94 -17.45,20.94 -2.18,0 -3.94,-1.05 -5.29,-3.15 -0.67,-1.13 -1.01,-2.63 -1.01,-4.5 0,-1.88 0.38,-4.17 1.13,-6.87 -6,9.68 -11.18,14.52 -15.54,14.52 -1.2,0 -2.29,-0.38 -3.26,-1.13 -2.25,-1.58 -3.38,-4.28 -3.38,-8.11 0,-7.36 3.19,-14.82 9.57,-22.4 3.6,-4.2 8.03,-6.94 13.28,-8.22 1.43,-0.37 2.78,-0.56 4.05,-0.56 3.45,0 6.38,1.2 8.78,3.6 0.75,0.83 0.98,1.61 0.67,2.36 -0.3,0.75 -0.94,1.05 -1.91,0.9 -0.83,-2.7 -2.63,-4.05 -5.4,-4.05 -3.23,0 -7.21,2.55 -11.93,7.66 -2.7,3 -5.22,6.53 -7.54,10.58 -2.93,4.88 -4.39,8.78 -4.39,11.71 0,2.93 0.94,4.39 2.81,4.39 4.5,0 10.4,-6.91 17.68,-20.71 1.43,-2.78 2.63,-4.67 3.6,-5.69 0.98,-1.01 2.21,-1.52 3.71,-1.52 0.3,0 1.07,0.11 2.31,0.34 1.24,0.22 2.16,0.26 2.76,0.11z"/>
  <path id="_4" class="fil0" d="M250.6 86.23c0.98,0.15 1.65,0.23 2.03,0.23 3,0 5.97,-1.76 8.89,-5.29 1.58,-1.95 4.39,-6.87 8.44,-14.75 0.15,-0.38 0.41,-0.56 0.79,-0.56 0.67,-0.08 1.01,0.19 1.01,0.79 0,0.15 -0.17,0.58 -0.51,1.29 -0.34,0.71 -0.66,1.43 -0.96,2.14 -0.3,0.71 -0.79,1.75 -1.46,3.1 -0.68,1.35 -1.26,2.44 -1.74,3.26 -0.49,0.83 -1.11,1.84 -1.86,3.04 -0.75,1.2 -1.5,2.14 -2.25,2.81l-2.36 2.48c-1.28,1.28 -2.78,2.18 -4.5,2.7 -2.78,0.9 -5.48,0.98 -8.11,0.22 -1.73,0.75 -3.26,1.13 -4.62,1.13 -5.33,0 -8.56,-2.1 -9.68,-6.3 -0.23,-0.98 -0.34,-2.16 -0.34,-3.55 0,-1.39 0.47,-2.72 1.41,-4 0.94,-1.28 1.93,-1.95 2.98,-2.03 3.83,-7.28 7.09,-13.85 9.79,-19.7 3,-6.38 6.49,-9.57 10.47,-9.57 1.05,0 2.08,0.24 3.1,0.73 1.01,0.49 1.39,1.03 1.13,1.63 -0.26,0.6 -0.81,0.71 -1.63,0.34 -0.83,-0.38 -1.54,-0.56 -2.14,-0.56 -0.6,0 -1.13,0.11 -1.58,0.34 -2.55,1.2 -3.83,3.79 -3.83,7.77 0,2.1 0.3,3.83 0.9,5.18 0.6,1.35 1.28,2.81 2.03,4.39 1.73,3.9 2.59,7.09 2.59,9.57 0,2.48 -0.79,4.92 -2.36,7.32 -1.58,2.4 -3.45,4.35 -5.63,5.85zm-3.83 -0.79c3.3,-2.55 4.95,-6.68 4.95,-12.38 0,-2.33 -0.26,-5.52 -0.79,-9.57 -0.52,-4.05 -0.79,-6.79 -0.79,-8.22 0,-1.43 0.04,-2.4 0.11,-2.93 -5.7,11.41 -9.23,18.35 -10.58,20.83 1.58,0 2.36,1.13 2.36,3.38 0,4.43 1.58,7.39 4.73,8.89zm-8.44 -3.04c0,0.45 0.04,0.94 0.11,1.46 0.6,2.03 1.99,3.04 4.17,3.04 0.9,0 1.65,-0.15 2.25,-0.45 -2.78,-1.73 -4.28,-4.54 -4.5,-8.44 -1.35,1.35 -2.03,2.81 -2.03,4.39z"/>
  <path id="_5" class="fil0" d="M322.65 81.84c0,2.4 0.98,3.6 2.93,3.6 3.53,0 8.22,-5.89 14.07,-17.68 0.23,-0.45 0.43,-0.9 0.62,-1.35 0.19,-0.45 0.49,-0.75 0.9,-0.9 0.41,-0.15 0.69,-0.06 0.84,0.28 0.15,0.34 0.08,0.88 -0.23,1.63 -6,13.96 -12.08,20.94 -18.24,20.94 -2.03,0 -3.64,-0.9 -4.84,-2.7 -1.2,-1.8 -1.8,-3.58 -1.8,-5.35 0,-1.76 0.19,-3.4 0.56,-4.9 -4.35,7.21 -8.11,11.3 -11.26,12.27 -0.9,0.38 -1.78,0.56 -2.65,0.56 -0.86,0 -1.71,-0.11 -2.53,-0.34 -3.68,-0.98 -5.52,-3.9 -5.52,-8.78 0,-3.3 0.84,-6.96 2.53,-10.98 1.69,-4.01 4.07,-7.86 7.15,-11.54 3.08,-3.68 6.79,-6.15 11.15,-7.43 1.58,-0.53 3.43,-0.79 5.57,-0.79 2.14,0 4.52,0.67 7.15,2.03 5.1,-9.61 9.46,-18.5 13.06,-26.68 1.05,-2.48 2.08,-4.07 3.1,-4.78 1.01,-0.71 1.95,-1.07 2.81,-1.07 0.86,0 1.39,0 1.58,0 0.19,0 0.9,0.09 2.14,0.28 1.24,0.19 2.2,0.24 2.87,0.17 -1.73,1.58 -6.3,9.23 -13.73,22.97 -9.46,17.56 -15.16,29.27 -17.11,35.12 -0.75,2.18 -1.13,3.98 -1.13,5.4zm5.52 -29.61c-0.98,-0.98 -2.35,-1.46 -4.11,-1.46 -1.76,0 -4.22,1.31 -7.37,3.94 -5.03,4.2 -9.19,9.38 -12.5,15.54 -2.18,4.05 -3.26,7.39 -3.26,10.02 0,1.2 0.24,2.29 0.73,3.26 0.49,0.98 1.26,1.46 2.31,1.46 2.55,0 5.7,-2.63 9.46,-7.88 3.75,-5.25 8.67,-13.55 14.75,-24.88z"/>
  <path id="_6" class="fil0" d="M345.17 71.04c-1.05,2.55 -1.58,5.4 -1.58,8.56 0,2.1 0.47,3.77 1.41,5.01 0.94,1.24 2.27,1.86 4,1.86 6.83,0 13.02,-6.42 18.58,-19.25 0.53,-1.2 1.16,-1.73 1.91,-1.58 0.3,0.07 0.45,0.26 0.45,0.56 0,0.3 -0.84,2.27 -2.53,5.91 -1.69,3.64 -3.4,6.59 -5.12,8.84 -3.83,5.25 -8.56,7.88 -14.18,7.88 -3,0 -5.55,-0.98 -7.66,-2.93 -2.1,-1.95 -3.15,-4.62 -3.15,-7.99 0,-3.38 0.81,-6.96 2.42,-10.75 1.61,-3.79 3.81,-7.32 6.59,-10.58 2.78,-3.26 5.97,-5.65 9.57,-7.15 1.73,-0.75 3.38,-1.13 4.95,-1.13 1.58,0 3.04,0.45 4.39,1.35 1.28,1.05 1.91,2.21 1.91,3.49 0,4.5 -2.7,8.82 -8.11,12.95 -1.65,1.28 -3.98,2.42 -6.98,3.43 -3,1.01 -5.29,1.52 -6.87,1.52zm18.91 -18.01c0,-1.5 -0.6,-2.25 -1.8,-2.25 -2.1,0 -5.29,2.59 -9.57,7.77 -2.55,3.15 -4.8,6.68 -6.76,10.58 1.28,0 3.13,-0.45 5.57,-1.35 2.44,-0.9 4.56,-2.1 6.36,-3.6 4.13,-3.53 6.19,-7.24 6.19,-11.14z"/>
  <path id="_7" class="fil0" d="M451.21 85.67c-8.33,6.38 -16.77,9.57 -25.33,9.57 -9.01,0 -15.57,-3.34 -19.7,-10.02 -2.93,-4.88 -4.39,-10.3 -4.39,-16.27 0,-5.97 1.09,-11.91 3.26,-17.84 -5.25,-3.53 -8.14,-8.26 -8.67,-14.18 -0.15,-1.13 -0.23,-2.25 -0.23,-3.38 0,-9.01 3.87,-16.55 11.6,-22.63 8.26,-6.45 18.01,-9.68 29.27,-9.68 11.26,0 20.58,3.13 27.98,9.4 7.39,6.27 11.09,15.22 11.09,26.85 0,0.75 0,1.5 0,2.25 7.51,-4.95 12.38,-9.68 14.64,-14.18 0.38,-0.83 0.86,-1.18 1.46,-1.07 0.6,0.11 0.9,0.36 0.9,0.73 0,0.38 -0.22,0.9 -0.67,1.58 -4.43,6.98 -10.02,12.61 -16.77,16.89 -0.3,3.53 -1.26,7.77 -2.87,12.72 -1.61,4.95 -4.33,10.08 -8.16,15.37 -3.83,5.29 -8.29,9.93 -13.4,13.9zm18.24 -48.3c0,-12.68 -4.05,-22.07 -12.16,-28.14 -5.4,-4.05 -11.71,-6.08 -18.91,-6.08 -2.1,0 -4.24,0.19 -6.42,0.56 -9.16,1.35 -16.62,5.14 -22.4,11.37 -4.88,5.4 -7.32,11.52 -7.32,18.35 0,5.93 1.61,10.28 4.84,13.06 2.93,-6.23 7.24,-12.53 12.95,-18.91 6.23,-6.98 12.8,-11.26 19.7,-12.83 1.13,-0.23 2.57,-0.34 4.33,-0.34 1.76,0 3.81,0.71 6.14,2.14 0.53,0.3 0.81,0.6 0.84,0.9 0.04,0.3 -0.13,0.53 -0.51,0.68 -0.38,0.15 -0.94,0.09 -1.69,-0.17 -0.75,-0.26 -2.01,-0.39 -3.77,-0.39 -1.76,0 -4.3,0.9 -7.6,2.7 -3.3,1.8 -6.64,4.62 -10.02,8.44 -6.68,7.58 -11.56,14.79 -14.63,21.61 4.73,2.18 10.39,3.26 17,3.26 2.93,0 6.04,-0.19 9.34,-0.56 10.73,-1.43 20.75,-4.65 30.06,-9.68 0.15,-2.03 0.23,-4.02 0.23,-5.97zm-0.9 9.91c-12.53,6.68 -25.74,10.02 -39.63,10.02 -6.76,0 -12.68,-1.01 -17.79,-3.04 -2.33,6.08 -3.49,11.33 -3.49,15.76 0,10.36 3.11,17.07 9.34,20.15 3.38,1.58 6.74,2.36 10.08,2.36 3.34,0 6.59,-0.71 9.74,-2.14 6.6,-3 12.53,-7.69 17.79,-14.07 5.25,-6.38 9.23,-13.4 11.93,-21.05 1.05,-3 1.73,-5.67 2.03,-7.99z"/>
  <path id="_8" class="fil0" d="M474.86 81.84c0,-3.23 1.39,-7.13 4.17,-11.71 -1.2,0 -1.54,-0.6 -1.01,-1.8l2.03 -3.94c2.55,-4.88 4.65,-9.01 6.3,-12.38 0.75,-1.58 2.21,-2.36 4.39,-2.36l6.87 0c-2.7,1.95 -5.42,5.72 -8.16,11.31 -2.74,5.59 -4.86,9.98 -6.36,13.17 -1.5,3.19 -2.25,5.61 -2.25,7.26 0,1.65 0.28,2.82 0.84,3.49 0.56,0.68 1.33,1.01 2.31,1.01 1.43,0 3.41,-1.5 5.97,-4.5 3.98,-4.65 9.57,-14.45 16.77,-29.38 0.83,-1.58 2.29,-2.36 4.39,-2.36l6.08 0c-1.65,1.28 -2.95,2.59 -3.88,3.94 -0.94,1.35 -2.23,3.75 -3.88,7.21 -4.5,9.01 -7.02,14.97 -7.54,17.9 -0.23,1.05 -0.34,2.03 -0.34,2.93 0,2.4 0.83,3.68 2.48,3.83 4.05,0 9.04,-6.27 14.97,-18.8 0.45,-1.05 0.9,-1.46 1.35,-1.24 0.45,0.23 0.68,0.52 0.68,0.9 0,0.38 -0.34,1.24 -1.01,2.59 -0.68,1.35 -1.33,2.67 -1.97,3.94 -0.64,1.28 -1.61,3.02 -2.93,5.23 -1.31,2.21 -2.53,3.96 -3.66,5.23 -2.93,3.3 -5.8,4.95 -8.61,4.95 -2.81,0 -4.75,-1.24 -5.8,-3.72 -0.45,-1.13 -0.67,-2.55 -0.67,-4.28 0,-1.73 0.37,-3.86 1.13,-6.42 -5.48,9.61 -10.54,14.41 -15.2,14.41 -4.05,0 -6.42,-1.69 -7.09,-5.07 -0.23,-0.37 -0.34,-0.83 -0.34,-1.35z"/>
  <path id="_9" class="fil0" d="M534.18 43.23c0,3.38 -2.14,6.57 -6.42,9.57 1.5,0.08 3.51,0.11 6.02,0.11 2.51,0 5.69,-0.19 9.51,-0.56 0.15,0.23 0.23,0.83 0.23,1.8 0,0.98 -0.45,2.42 -1.35,4.33 -0.9,1.91 -1.71,3.56 -2.42,4.95 -0.71,1.39 -1.39,2.7 -2.03,3.94 -0.64,1.24 -1.35,2.76 -2.14,4.56 -0.79,1.8 -1.45,3.45 -1.97,4.95 -1.88,5.7 -1.58,8.56 0.9,8.56 3.15,0 7.81,-6.27 13.96,-18.8 0.53,-0.98 0.96,-1.35 1.29,-1.13 0.34,0.22 0.51,0.51 0.51,0.84 0,0.34 -0.49,1.5 -1.46,3.49 -0.98,1.99 -2.03,4.03 -3.15,6.14 -1.13,2.1 -2.89,4.54 -5.29,7.32 -2.85,3.45 -5.59,5.18 -8.22,5.18 -2.93,0 -4.95,-1.76 -6.08,-5.29 -0.22,-0.67 -0.34,-1.69 -0.34,-3.04 0,-1.35 0.43,-3.15 1.29,-5.4 0.86,-2.25 2.23,-4.99 4.11,-8.22 1.88,-3.23 2.93,-5.12 3.15,-5.69 0.23,-0.56 0.34,-1.11 0.34,-1.63 0,-2.33 -3,-3.57 -9.01,-3.72l-1.35 3.6c-4.73,12.38 -9.27,20.68 -13.62,24.88 -0.75,0.67 -1.13,0.45 -1.13,-0.68 0,-0.23 0.08,-0.49 0.23,-0.79 4.2,-5.55 7.84,-12.12 10.92,-19.7 3.08,-7.58 5.22,-14.78 6.42,-21.61 0.45,-2.33 1.5,-3.49 3.15,-3.49 1.65,0 2.85,1.05 3.6,3.15 0.23,0.68 0.34,1.46 0.34,2.36z"/>
  <path id="_10" class="fil0" d="M568.75 48.97c5.48,0 8.22,3.45 8.22,10.36 0,3.15 -0.83,6.53 -2.48,10.13 -2.1,4.88 -5.25,9.31 -9.46,13.28 0.98,1.88 2.74,2.81 5.29,2.81 2.03,0 3.94,-1.01 5.74,-3.04 2.25,-2.33 3.87,-4.37 4.84,-6.14 0.98,-1.76 1.69,-3.06 2.14,-3.88 0.45,-0.83 1.03,-2.01 1.74,-3.55 0.71,-1.54 1.14,-2.48 1.29,-2.81 0.15,-0.34 0.41,-0.51 0.79,-0.51 0.75,-0.08 1.13,0.19 1.13,0.79 0,0.23 -0.07,0.49 -0.22,0.79l-0.68 1.58c-0.45,1.05 -0.79,1.8 -1.01,2.25 -0.23,0.45 -0.62,1.26 -1.18,2.42 -0.56,1.16 -1.05,2.08 -1.46,2.76 -0.41,0.67 -0.98,1.58 -1.69,2.7 -0.71,1.13 -1.35,2.03 -1.91,2.7 -0.56,0.68 -1.26,1.43 -2.08,2.25 -0.83,0.83 -1.61,1.46 -2.36,1.91 -1.88,1.13 -3.64,1.69 -5.29,1.69 -3.08,0 -5.48,-0.98 -7.2,-2.93 -3.45,2.55 -6.64,3.83 -9.57,3.83 -5.48,0 -8.22,-3.45 -8.22,-10.36 0,-3.15 0.83,-6.53 2.48,-10.13 2.25,-5.25 5.42,-9.72 9.51,-13.4 4.09,-3.68 7.97,-5.52 11.65,-5.52zm1.24 3.49c-2.03,0 -4.43,1.35 -7.2,4.05 -2.78,2.7 -5.25,6.38 -7.43,11.03 -2.63,5.4 -3.94,9.83 -3.94,13.28 0,3.45 1.31,5.18 3.94,5.18 1.88,0 3.98,-1.01 6.3,-3.04 -1.2,-1.73 -1.8,-3.56 -1.8,-5.52 0.15,-3.23 1.46,-4.84 3.94,-4.84 0.98,0 1.78,0.34 2.42,1.01 0.64,0.68 0.96,1.29 0.96,1.86 0,0.56 -0.08,1.14 -0.23,1.74 1.28,-1.88 2.74,-4.54 4.39,-7.99 1.88,-3.83 2.81,-7.58 2.81,-11.26 0,-3.68 -1.39,-5.52 -4.17,-5.52z"/>
  <path class="fil1" d="M132.62 64.94c0,3.87 -1.39,7.47 -4.18,10.8 -3.94,4.76 -9.21,8.19 -15.8,10.29 -4.89,1.56 -9.65,2.34 -14.27,2.34 -1.7,0 -3.36,-0.1 -4.99,-0.31 -10.67,-1.36 -19.7,-3.7 -27.11,-7.03 -6.73,4.96 -13.83,7.44 -21.3,7.44 -8.83,0 -14.3,-2.45 -16.41,-7.34 -0.48,-1.16 -0.71,-2.51 -0.71,-4.08 0,-1.56 0.78,-3.23 2.34,-4.99 2.45,-2.72 5.84,-4.08 10.19,-4.08 2.85,0 5.44,0.41 7.74,1.22 2.31,0.82 5.16,2.14 8.56,3.97 3.4,1.83 5.91,3.16 7.54,3.97 2.99,-2.92 6.08,-6.98 9.27,-12.18 3.19,-5.2 6,-10.29 8.41,-15.29 2.41,-4.99 5.49,-10.55 9.22,-16.66 3.74,-6.11 7.54,-11.31 11.41,-15.59l5.81 -6.62c-5.37,-0.95 -11.28,-1.43 -17.73,-1.43 -6.45,0 -13.55,0.85 -21.3,2.55 -10.6,2.24 -18.75,6.79 -24.46,13.66 -3.47,4.14 -5.2,8.08 -5.2,11.82 0,4.96 2.41,8.19 7.24,9.68 1.7,0.48 3.19,0.71 4.48,0.71 1.29,0 2.79,-0.24 4.48,-0.71 1.7,-0.48 3.35,-1.48 4.94,-3.01 1.6,-1.53 2.75,-3.01 3.47,-4.43 0.71,-1.43 1.07,-2.5 1.07,-3.21 0,-0.71 0.34,-1.07 1.02,-1.07 0.68,0.07 1.05,0.54 1.12,1.43l0 0.1c-0.75,4.96 -3.4,8.73 -7.95,11.31 -2.79,1.5 -5.57,2.24 -8.36,2.24l-5.3 -0.92c-7.2,-2.51 -10.8,-7.2 -10.8,-14.06 0,-4.69 2.07,-9.31 6.22,-13.86 6.66,-7.47 16.44,-12.13 29.35,-13.96 6.25,-0.88 12.76,-1.32 19.52,-1.32 6.76,0 13.64,0.75 20.64,2.24 1.9,-1.63 3.57,-2.72 4.99,-3.26 1.43,-0.54 2.26,-0.82 2.5,-0.82 0.24,0 0.39,0.03 0.46,0.1 0.41,0 0.49,0.22 0.26,0.66 -0.24,0.44 -0.99,1.07 -2.24,1.89 -1.26,0.82 -2.02,1.56 -2.29,2.24 9.24,2.38 15.9,5.77 19.97,10.19 2.17,2.45 3.26,4.94 3.26,7.49 0,2.55 -0.75,5.11 -2.24,7.69 -1.97,3.4 -5.16,5.96 -9.58,7.69 -4.42,1.73 -8.87,2.7 -13.35,2.9 4.35,1.36 8.39,3.26 12.13,5.71 5.3,3.47 7.95,8.08 7.95,13.86zm-35.67 20.59c7.61,0 14.06,-2.17 19.36,-6.52 5.77,-4.62 8.66,-9.61 8.66,-14.98 0,-5.57 -2.96,-9.78 -8.87,-12.64 -2.17,-1.02 -4.84,-2.02 -8,-3.01 -3.16,-0.98 -5.71,-1.82 -7.64,-2.5 -1.94,-0.68 -3.04,-1.32 -3.31,-1.94 0,-1.29 0.98,-1.97 2.96,-2.04 1.29,0 3.26,0.1 5.91,0.31 2.65,0.2 4.93,0.29 6.83,0.26 1.9,-0.03 4.19,-0.71 6.88,-2.04 2.68,-1.32 4.98,-3.04 6.88,-5.15 3.06,-3.4 4.59,-6.59 4.59,-9.58 0,-6.39 -5.98,-10.97 -17.94,-13.76 -3.6,4.96 -10.06,15.44 -19.36,31.44 -9.31,16 -16.48,26.72 -21.5,32.15l-3.87 3.67c7.68,3.19 15.93,5.23 24.76,6.11 1.29,0.14 2.51,0.2 3.67,0.2zm-34.95 -6.42c-7.95,-3.8 -12.98,-6.08 -15.08,-6.83 -2.11,-0.75 -4.19,-1.12 -6.27,-1.12 -2.07,0 -3.72,0.73 -4.94,2.19 -1.22,1.46 -1.83,2.79 -1.83,3.97 0,1.19 0.27,2.33 0.81,3.41 1.5,3.06 4.62,4.59 9.38,4.59 6.45,0 12.43,-2.07 17.94,-6.22z"/>
  <path id="_1_0" class="fil1" d="M157.28 48.84c4.96,0 7.44,3.13 7.44,9.38 0,2.85 -0.75,5.91 -2.24,9.17 -1.9,4.42 -4.76,8.42 -8.56,12.03 0.88,1.7 2.48,2.55 4.79,2.55 1.83,0 3.57,-0.92 5.2,-2.75 2.04,-2.11 3.5,-3.96 4.38,-5.55 0.88,-1.6 1.53,-2.77 1.94,-3.52 0.41,-0.75 0.93,-1.82 1.58,-3.21 0.65,-1.39 1.04,-2.24 1.17,-2.55 0.14,-0.31 0.37,-0.46 0.71,-0.46 0.68,-0.07 1.02,0.17 1.02,0.71 0,0.2 -0.07,0.44 -0.2,0.71l-0.61 1.43c-0.41,0.95 -0.71,1.63 -0.92,2.04 -0.2,0.41 -0.56,1.14 -1.07,2.19 -0.51,1.05 -0.95,1.89 -1.32,2.5 -0.37,0.61 -0.88,1.43 -1.53,2.45 -0.65,1.02 -1.22,1.83 -1.73,2.45 -0.51,0.61 -1.14,1.29 -1.89,2.04 -0.75,0.75 -1.46,1.32 -2.14,1.73 -1.7,1.02 -3.3,1.53 -4.79,1.53 -2.79,0 -4.96,-0.88 -6.52,-2.65 -3.13,2.31 -6.01,3.47 -8.66,3.47 -4.96,0 -7.44,-3.13 -7.44,-9.38 0,-2.85 0.75,-5.91 2.24,-9.17 2.04,-4.76 4.91,-8.8 8.61,-12.13 3.7,-3.33 7.22,-4.99 10.55,-4.99zm1.12 3.16c-1.83,0 -4.01,1.22 -6.52,3.67 -2.51,2.45 -4.76,5.77 -6.73,9.99 -2.38,4.89 -3.57,8.9 -3.57,12.03 0,3.13 1.19,4.69 3.57,4.69 1.7,0 3.6,-0.92 5.71,-2.75 -1.09,-1.56 -1.63,-3.23 -1.63,-4.99 0.14,-2.92 1.32,-4.38 3.57,-4.38 0.88,0 1.61,0.31 2.19,0.92 0.58,0.61 0.87,1.17 0.87,1.68 0,0.51 -0.07,1.04 -0.2,1.58 1.16,-1.7 2.48,-4.11 3.97,-7.24 1.7,-3.47 2.55,-6.86 2.55,-10.19 0,-3.33 -1.26,-4.99 -3.77,-4.99z"/>
  <path id="_2_1" class="fil1" d="M194.38 78.6c0,2.17 0.88,3.26 2.65,3.26 3.19,0 7.44,-5.33 12.74,-16 0.2,-0.41 0.39,-0.82 0.56,-1.22 0.17,-0.41 0.44,-0.68 0.82,-0.82 0.37,-0.14 0.63,-0.05 0.76,0.25 0.14,0.31 0.07,0.8 -0.2,1.48 -5.44,12.64 -10.94,18.96 -16.51,18.96 -1.83,0 -3.29,-0.82 -4.38,-2.45 -1.09,-1.63 -1.63,-3.24 -1.63,-4.84 0,-1.6 0.17,-3.07 0.51,-4.43 -3.94,6.52 -7.34,10.23 -10.19,11.11 -0.81,0.34 -1.61,0.51 -2.39,0.51 -0.78,0 -1.55,-0.1 -2.29,-0.31 -3.33,-0.88 -4.99,-3.53 -4.99,-7.95 0,-2.99 0.76,-6.3 2.29,-9.94 1.53,-3.63 3.69,-7.12 6.47,-10.45 2.79,-3.33 6.15,-5.57 10.09,-6.73 1.43,-0.48 3.11,-0.71 5.04,-0.71 1.94,0 4.09,0.61 6.47,1.83 4.62,-8.7 8.56,-16.75 11.82,-24.15 0.95,-2.24 1.89,-3.69 2.8,-4.33 0.92,-0.65 1.77,-0.97 2.55,-0.97 0.78,0 1.26,0 1.43,0 0.17,0 0.82,0.08 1.94,0.26 1.12,0.17 1.99,0.22 2.6,0.15 -1.56,1.43 -5.71,8.36 -12.43,20.79 -8.56,15.9 -13.72,26.5 -15.49,31.8 -0.68,1.97 -1.02,3.6 -1.02,4.89zm4.99 -26.8c-0.88,-0.88 -2.12,-1.32 -3.72,-1.32 -1.6,0 -3.82,1.19 -6.68,3.57 -4.55,3.8 -8.32,8.49 -11.31,14.06 -1.97,3.67 -2.95,6.69 -2.95,9.07 0,1.09 0.22,2.07 0.66,2.96 0.44,0.88 1.14,1.32 2.09,1.32 2.31,0 5.16,-2.38 8.56,-7.13 3.4,-4.76 7.85,-12.26 13.35,-22.52z"/>
  <path id="_3_2" class="fil1" d="M241.26 56.89c-1.22,1.22 -2.95,3.99 -5.2,8.31 -2.24,4.31 -3.58,7.54 -4.03,9.68 -0.44,2.14 -0.66,3.87 -0.66,5.2 0,1.32 0.51,1.99 1.53,1.99 1.29,0 2.89,-1.19 4.79,-3.57 2.79,-3.47 5.54,-7.98 8.26,-13.55 0.27,-0.61 0.58,-0.95 0.92,-1.02 0.54,-0.2 0.82,0 0.82,0.61 0,0.34 -0.1,0.75 -0.31,1.22 -6.25,12.64 -11.52,18.96 -15.8,18.96 -1.97,0 -3.57,-0.95 -4.79,-2.85 -0.61,-1.02 -0.92,-2.38 -0.92,-4.08 0,-1.7 0.34,-3.77 1.02,-6.22 -5.44,8.76 -10.12,13.15 -14.06,13.15 -1.09,0 -2.07,-0.34 -2.96,-1.02 -2.04,-1.43 -3.06,-3.87 -3.06,-7.34 0,-6.66 2.89,-13.42 8.66,-20.28 3.26,-3.8 7.27,-6.28 12.03,-7.44 1.29,-0.34 2.51,-0.51 3.67,-0.51 3.13,0 5.77,1.09 7.95,3.26 0.68,0.75 0.88,1.46 0.61,2.14 -0.27,0.68 -0.85,0.95 -1.73,0.82 -0.75,-2.45 -2.38,-3.67 -4.89,-3.67 -2.92,0 -6.52,2.31 -10.8,6.93 -2.45,2.72 -4.72,5.91 -6.83,9.58 -2.65,4.42 -3.97,7.95 -3.97,10.6 0,2.65 0.85,3.97 2.55,3.97 4.08,0 9.41,-6.25 16,-18.75 1.29,-2.51 2.38,-4.23 3.26,-5.15 0.88,-0.92 2,-1.38 3.36,-1.38 0.27,0 0.97,0.1 2.09,0.31 1.12,0.2 1.95,0.24 2.5,0.1z"/>
  <path id="_4_3" class="fil1" d="M254.71 82.58c0.88,0.14 1.5,0.2 1.84,0.2 2.72,0 5.4,-1.6 8.05,-4.79 1.43,-1.77 3.97,-6.22 7.64,-13.35 0.14,-0.34 0.37,-0.51 0.71,-0.51 0.61,-0.07 0.92,0.17 0.92,0.71 0,0.14 -0.15,0.53 -0.46,1.17 -0.31,0.65 -0.59,1.29 -0.87,1.94 -0.27,0.65 -0.71,1.58 -1.32,2.8 -0.61,1.22 -1.14,2.21 -1.58,2.95 -0.44,0.75 -1,1.66 -1.68,2.75 -0.68,1.09 -1.36,1.94 -2.04,2.55l-2.14 2.24c-1.16,1.15 -2.51,1.97 -4.08,2.45 -2.51,0.82 -4.96,0.88 -7.34,0.2 -1.56,0.68 -2.96,1.02 -4.18,1.02 -4.82,0 -7.74,-1.9 -8.76,-5.71 -0.2,-0.88 -0.31,-1.95 -0.31,-3.21 0,-1.26 0.42,-2.46 1.27,-3.62 0.85,-1.16 1.75,-1.77 2.7,-1.83 3.46,-6.59 6.42,-12.53 8.87,-17.83 2.72,-5.77 5.88,-8.66 9.48,-8.66 0.95,0 1.89,0.22 2.8,0.66 0.92,0.44 1.26,0.93 1.02,1.48 -0.24,0.54 -0.73,0.65 -1.48,0.31 -0.75,-0.34 -1.39,-0.51 -1.94,-0.51 -0.54,0 -1.02,0.1 -1.43,0.31 -2.31,1.09 -3.47,3.43 -3.47,7.03 0,1.9 0.27,3.46 0.82,4.69 0.54,1.22 1.15,2.55 1.83,3.97 1.56,3.53 2.34,6.42 2.34,8.66 0,2.24 -0.71,4.45 -2.14,6.62 -1.43,2.17 -3.13,3.94 -5.1,5.3zm-3.47 -0.71c2.99,-2.31 4.48,-6.05 4.48,-11.21 0,-2.11 -0.24,-4.99 -0.71,-8.66 -0.48,-3.67 -0.71,-6.15 -0.71,-7.44 0,-1.29 0.03,-2.17 0.1,-2.65 -5.16,10.33 -8.36,16.61 -9.58,18.85 1.43,0 2.14,1.02 2.14,3.06 0,4.01 1.43,6.69 4.28,8.05zm-7.64 -2.75c0,0.41 0.03,0.85 0.1,1.32 0.54,1.83 1.8,2.75 3.77,2.75 0.82,0 1.49,-0.14 2.04,-0.41 -2.51,-1.56 -3.87,-4.11 -4.08,-7.64 -1.22,1.22 -1.83,2.55 -1.83,3.97z"/>
  <path id="_5_4" class="fil1" d="M319.93 78.6c0,2.17 0.88,3.26 2.65,3.26 3.19,0 7.44,-5.33 12.74,-16 0.2,-0.41 0.39,-0.82 0.56,-1.22 0.17,-0.41 0.44,-0.68 0.82,-0.82 0.37,-0.14 0.63,-0.05 0.76,0.25 0.14,0.31 0.07,0.8 -0.2,1.48 -5.44,12.64 -10.94,18.96 -16.51,18.96 -1.83,0 -3.29,-0.82 -4.38,-2.45 -1.09,-1.63 -1.63,-3.24 -1.63,-4.84 0,-1.6 0.17,-3.07 0.51,-4.43 -3.94,6.52 -7.34,10.23 -10.19,11.11 -0.81,0.34 -1.61,0.51 -2.39,0.51 -0.78,0 -1.55,-0.1 -2.29,-0.31 -3.33,-0.88 -4.99,-3.53 -4.99,-7.95 0,-2.99 0.76,-6.3 2.29,-9.94 1.53,-3.63 3.69,-7.12 6.47,-10.45 2.79,-3.33 6.15,-5.57 10.09,-6.73 1.43,-0.48 3.11,-0.71 5.04,-0.71 1.94,0 4.09,0.61 6.47,1.83 4.62,-8.7 8.56,-16.75 11.82,-24.15 0.95,-2.24 1.89,-3.69 2.8,-4.33 0.92,-0.65 1.77,-0.97 2.55,-0.97 0.78,0 1.26,0 1.43,0 0.17,0 0.82,0.08 1.94,0.26 1.12,0.17 1.99,0.22 2.6,0.15 -1.56,1.43 -5.71,8.36 -12.43,20.79 -8.56,15.9 -13.72,26.5 -15.49,31.8 -0.68,1.97 -1.02,3.6 -1.02,4.89zm4.99 -26.8c-0.88,-0.88 -2.12,-1.32 -3.72,-1.32 -1.6,0 -3.82,1.19 -6.68,3.57 -4.55,3.8 -8.32,8.49 -11.31,14.06 -1.97,3.67 -2.95,6.69 -2.95,9.07 0,1.09 0.22,2.07 0.66,2.96 0.44,0.88 1.14,1.32 2.09,1.32 2.31,0 5.16,-2.38 8.56,-7.13 3.4,-4.76 7.85,-12.26 13.35,-22.52z"/>
  <path id="_6_5" class="fil1" d="M340.32 68.82c-0.95,2.31 -1.43,4.89 -1.43,7.75 0,1.9 0.42,3.41 1.27,4.53 0.85,1.12 2.05,1.68 3.62,1.68 6.18,0 11.79,-5.81 16.82,-17.43 0.48,-1.09 1.05,-1.56 1.73,-1.43 0.27,0.07 0.41,0.24 0.41,0.51 0,0.27 -0.76,2.06 -2.29,5.35 -1.53,3.29 -3.07,5.96 -4.64,8 -3.47,4.76 -7.75,7.13 -12.84,7.13 -2.72,0 -5.03,-0.88 -6.93,-2.65 -1.9,-1.77 -2.85,-4.18 -2.85,-7.24 0,-3.06 0.73,-6.3 2.19,-9.73 1.46,-3.43 3.45,-6.62 5.96,-9.58 2.51,-2.96 5.4,-5.11 8.66,-6.47 1.56,-0.68 3.06,-1.02 4.48,-1.02 1.43,0 2.75,0.41 3.97,1.22 1.15,0.95 1.73,2 1.73,3.16 0,4.08 -2.45,7.98 -7.34,11.72 -1.49,1.16 -3.6,2.19 -6.32,3.11 -2.72,0.92 -4.79,1.38 -6.22,1.38zm17.12 -16.31c0,-1.36 -0.54,-2.04 -1.63,-2.04 -1.9,0 -4.79,2.34 -8.66,7.03 -2.31,2.85 -4.35,6.05 -6.11,9.58 1.15,0 2.84,-0.41 5.04,-1.22 2.21,-0.82 4.13,-1.9 5.76,-3.26 3.74,-3.19 5.61,-6.56 5.61,-10.09z"/>
  <path id="_7_6" class="fil1" d="M436.32 82.07c-7.54,5.77 -15.18,8.66 -22.93,8.66 -8.15,0 -14.1,-3.02 -17.83,-9.07 -2.65,-4.42 -3.97,-9.32 -3.97,-14.73 0,-5.4 0.98,-10.79 2.96,-16.15 -4.76,-3.19 -7.37,-7.47 -7.85,-12.84 -0.14,-1.02 -0.2,-2.04 -0.2,-3.06 0,-8.15 3.5,-14.98 10.5,-20.48 7.47,-5.84 16.31,-8.76 26.5,-8.76 10.19,0 18.63,2.84 25.33,8.51 6.69,5.67 10.04,13.77 10.04,24.31 0,0.68 0,1.36 0,2.04 6.79,-4.48 11.21,-8.76 13.25,-12.84 0.34,-0.75 0.78,-1.07 1.32,-0.97 0.54,0.1 0.82,0.32 0.82,0.66 0,0.34 -0.2,0.82 -0.61,1.43 -4.01,6.32 -9.07,11.41 -15.19,15.29 -0.27,3.19 -1.14,7.03 -2.6,11.52 -1.46,4.48 -3.92,9.12 -7.39,13.91 -3.47,4.79 -7.51,8.99 -12.13,12.59zm16.51 -43.72c0,-11.48 -3.67,-19.97 -11.01,-25.48 -4.89,-3.67 -10.6,-5.5 -17.12,-5.5 -1.9,0 -3.84,0.17 -5.81,0.51 -8.29,1.22 -15.05,4.65 -20.28,10.29 -4.42,4.89 -6.62,10.43 -6.62,16.61 0,5.37 1.46,9.31 4.38,11.82 2.65,-5.64 6.56,-11.35 11.72,-17.12 5.64,-6.32 11.58,-10.19 17.83,-11.62 1.02,-0.2 2.33,-0.31 3.92,-0.31 1.6,0 3.45,0.65 5.55,1.94 0.48,0.27 0.73,0.54 0.76,0.82 0.03,0.27 -0.12,0.48 -0.46,0.61 -0.34,0.14 -0.85,0.08 -1.53,-0.15 -0.68,-0.24 -1.82,-0.36 -3.41,-0.36 -1.6,0 -3.89,0.81 -6.88,2.45 -2.99,1.63 -6.01,4.18 -9.07,7.64 -6.05,6.86 -10.46,13.38 -13.25,19.57 4.28,1.97 9.41,2.96 15.39,2.96 2.65,0 5.47,-0.17 8.46,-0.51 9.72,-1.29 18.79,-4.21 27.21,-8.76 0.14,-1.83 0.2,-3.63 0.2,-5.4zm-0.82 8.97c-11.35,6.05 -23.3,9.07 -35.87,9.07 -6.11,0 -11.48,-0.92 -16.1,-2.75 -2.11,5.5 -3.16,10.26 -3.16,14.27 0,9.38 2.82,15.46 8.46,18.24 3.06,1.43 6.1,2.14 9.12,2.14 3.02,0 5.96,-0.65 8.82,-1.94 5.98,-2.72 11.35,-6.96 16.1,-12.74 4.76,-5.77 8.36,-12.13 10.8,-19.06 0.95,-2.72 1.56,-5.13 1.83,-7.24z"/>
  <path id="_8_7" class="fil1" d="M457.72 78.6c0,-2.92 1.26,-6.45 3.77,-10.6 -1.09,0 -1.39,-0.54 -0.92,-1.63l1.84 -3.57c2.31,-4.42 4.21,-8.15 5.71,-11.21 0.68,-1.43 2,-2.14 3.97,-2.14l6.22 0c-2.45,1.77 -4.91,5.18 -7.39,10.24 -2.48,5.06 -4.4,9.04 -5.76,11.92 -1.36,2.89 -2.04,5.08 -2.04,6.57 0,1.5 0.25,2.55 0.76,3.16 0.51,0.61 1.21,0.92 2.09,0.92 1.29,0 3.09,-1.36 5.4,-4.08 3.6,-4.21 8.66,-13.08 15.19,-26.6 0.75,-1.43 2.07,-2.14 3.97,-2.14l5.5 0c-1.5,1.16 -2.67,2.34 -3.52,3.57 -0.85,1.22 -2.02,3.4 -3.52,6.52 -4.08,8.15 -6.35,13.55 -6.83,16.2 -0.2,0.95 -0.31,1.83 -0.31,2.65 0,2.17 0.75,3.33 2.24,3.47 3.67,0 8.19,-5.67 13.55,-17.02 0.41,-0.95 0.82,-1.32 1.22,-1.12 0.41,0.2 0.61,0.48 0.61,0.82 0,0.34 -0.31,1.12 -0.92,2.34 -0.61,1.22 -1.21,2.41 -1.78,3.57 -0.58,1.16 -1.46,2.73 -2.65,4.74 -1.19,2 -2.29,3.58 -3.31,4.74 -2.65,2.99 -5.25,4.48 -7.8,4.48 -2.55,0 -4.3,-1.12 -5.25,-3.36 -0.41,-1.02 -0.61,-2.31 -0.61,-3.87 0,-1.56 0.34,-3.5 1.02,-5.81 -4.96,8.7 -9.55,13.04 -13.76,13.04 -3.67,0 -5.81,-1.53 -6.42,-4.59 -0.2,-0.34 -0.31,-0.75 -0.31,-1.22z"/>
  <path id="_9_8" class="fil1" d="M511.42 43.65c0,3.06 -1.94,5.94 -5.81,8.66 1.36,0.07 3.18,0.1 5.45,0.1 2.28,0 5.15,-0.17 8.61,-0.51 0.14,0.2 0.2,0.75 0.2,1.63 0,0.88 -0.41,2.19 -1.22,3.92 -0.82,1.73 -1.55,3.23 -2.19,4.48 -0.65,1.26 -1.26,2.45 -1.83,3.57 -0.58,1.12 -1.22,2.5 -1.94,4.13 -0.71,1.63 -1.31,3.13 -1.78,4.48 -1.7,5.16 -1.43,7.74 0.81,7.74 2.85,0 7.07,-5.67 12.64,-17.02 0.47,-0.88 0.87,-1.22 1.17,-1.02 0.31,0.2 0.46,0.46 0.46,0.76 0,0.31 -0.44,1.36 -1.32,3.16 -0.88,1.8 -1.83,3.65 -2.85,5.55 -1.02,1.9 -2.61,4.11 -4.79,6.62 -2.58,3.13 -5.06,4.69 -7.44,4.69 -2.65,0 -4.48,-1.6 -5.5,-4.79 -0.2,-0.61 -0.31,-1.53 -0.31,-2.75 0,-1.22 0.39,-2.85 1.17,-4.89 0.78,-2.04 2.02,-4.52 3.72,-7.44 1.7,-2.92 2.65,-4.64 2.85,-5.15 0.2,-0.51 0.31,-1 0.31,-1.48 0,-2.11 -2.72,-3.23 -8.15,-3.36l-1.22 3.26c-4.28,11.21 -8.39,18.72 -12.33,22.52 -0.68,0.61 -1.02,0.41 -1.02,-0.61 0,-0.2 0.07,-0.44 0.2,-0.71 3.8,-5.03 7.1,-10.97 9.89,-17.83 2.79,-6.86 4.72,-13.38 5.81,-19.57 0.41,-2.11 1.36,-3.16 2.85,-3.16 1.5,0 2.58,0.95 3.26,2.85 0.2,0.61 0.31,1.32 0.31,2.14z"/>
  <path id="_10_9" class="fil1" d="M542.71 48.84c4.96,0 7.44,3.13 7.44,9.38 0,2.85 -0.75,5.91 -2.24,9.17 -1.9,4.42 -4.76,8.42 -8.56,12.03 0.88,1.7 2.48,2.55 4.79,2.55 1.83,0 3.57,-0.92 5.2,-2.75 2.04,-2.11 3.5,-3.96 4.38,-5.55 0.88,-1.6 1.53,-2.77 1.94,-3.52 0.41,-0.75 0.93,-1.82 1.58,-3.21 0.65,-1.39 1.04,-2.24 1.17,-2.55 0.14,-0.31 0.37,-0.46 0.71,-0.46 0.68,-0.07 1.02,0.17 1.02,0.71 0,0.2 -0.07,0.44 -0.2,0.71l-0.61 1.43c-0.41,0.95 -0.71,1.63 -0.92,2.04 -0.2,0.41 -0.56,1.14 -1.07,2.19 -0.51,1.05 -0.95,1.89 -1.32,2.5 -0.37,0.61 -0.88,1.43 -1.53,2.45 -0.65,1.02 -1.22,1.83 -1.73,2.45 -0.51,0.61 -1.14,1.29 -1.89,2.04 -0.75,0.75 -1.46,1.32 -2.14,1.73 -1.7,1.02 -3.3,1.53 -4.79,1.53 -2.79,0 -4.96,-0.88 -6.52,-2.65 -3.13,2.31 -6.01,3.47 -8.66,3.47 -4.96,0 -7.44,-3.13 -7.44,-9.38 0,-2.85 0.75,-5.91 2.24,-9.17 2.04,-4.76 4.91,-8.8 8.61,-12.13 3.7,-3.33 7.22,-4.99 10.55,-4.99zm1.12 3.16c-1.83,0 -4.01,1.22 -6.52,3.67 -2.51,2.45 -4.76,5.77 -6.73,9.99 -2.38,4.89 -3.57,8.9 -3.57,12.03 0,3.13 1.19,4.69 3.57,4.69 1.7,0 3.6,-0.92 5.71,-2.75 -1.09,-1.56 -1.63,-3.23 -1.63,-4.99 0.14,-2.92 1.32,-4.38 3.57,-4.38 0.88,0 1.61,0.31 2.19,0.92 0.58,0.61 0.87,1.17 0.87,1.68 0,0.51 -0.07,1.04 -0.2,1.58 1.16,-1.7 2.48,-4.11 3.97,-7.24 1.7,-3.47 2.55,-6.86 2.55,-10.19 0,-3.33 -1.26,-4.99 -3.77,-4.99z"/>
 </g>
</svg>
