<?xml version="1.0" encoding="UTF-8"?>
<!DOCTYPE svg PUBLIC "-//W3C//DTD SVG 1.1//EN" "http://www.w3.org/Graphics/SVG/1.1/DTD/svg11.dtd">
<!-- Creator: CorelDRAW -->
<svg xmlns="http://www.w3.org/2000/svg" xml:space="preserve" width="41.8054mm" height="40.503mm" version="1.1" style="shape-rendering:geometricPrecision; text-rendering:geometricPrecision; image-rendering:optimizeQuality; fill-rule:evenodd; clip-rule:evenodd"
viewBox="0 0 280.25 271.52"
 xmlns:xlink="http://www.w3.org/1999/xlink"
 xmlns:xodm="http://www.corel.com/coreldraw/odm/2003">
 <defs>
  <style type="text/css">
   <![CDATA[
    .fil1 {fill:white}
    .fil0 {fill:white;fill-rule:nonzero}
   ]]>
  </style>
 </defs>
 <g id="Camada_x0020_1">
  <metadata id="CorelCorpID_0Corel-Layer"/>
  <g id="_2004562269856">
   <g>
    <g>
     <path class="fil0" d="M125.49 239.7l-0 0.01c0.01,-0.02 0.02,-0.04 0,-0.01z"/>
     <path class="fil1" d="M124.42 249.46c-0.51,-0.44 -1.01,-0.87 -1.52,-1.3 -1.4,-1.18 -2.83,-2.3 -4.3,-3.34 -4.97,-3.51 -10.32,-6.03 -15.94,-7.41 -3.25,-0.8 -6.55,-1.25 -9.86,-1.36 -2.02,-0.07 -4.02,0.03 -6.04,0.02 -2.54,-0.01 -5.09,-0.11 -7.62,-0.34 -6.65,-0.59 -13.27,-1.99 -19.58,-4.69 -6.99,-2.99 -13.34,-7.5 -18.77,-13.71 -1.36,-1.57 -3.04,-2.77 -4.81,-3.49 -0.47,-0.19 -0.92,-0.35 -1.4,-0.5 -0.38,-0.12 -0.79,-0.2 -1.16,-0.36 0.31,-0.04 0.67,0.03 0.97,0.08 0.43,0.07 0.88,0.18 1.3,0.31 1.46,0.46 2.84,1.18 4.09,2.23 0.71,0.59 1.3,1.24 1.94,1.91 0.84,0.88 1.71,1.74 2.59,2.56 3.24,2.99 6.66,5.46 10.35,7.51 10.57,5.85 22.49,7.49 33.97,7.37 4.19,-0.13 8.4,0.17 12.52,1.09 5.83,1.31 11.34,3.72 16.48,7.35 1.85,1.31 3.65,2.76 5.36,4.34 0.56,0.52 1.1,1.05 1.64,1.59 0.36,0.38 0.7,0.74 1.03,1.16 -0.44,-0.31 -0.84,-0.68 -1.25,-1.04zm-9.09 -10.23l0 0c-1.96,-1.45 -3.94,-2.85 -5.98,-4.13 -6.21,-3.9 -12.68,-6.69 -19.48,-8.53 -1.56,-0.42 -3.14,-0.79 -4.71,-1.11 -0.58,-0.12 -1.16,-0.24 -1.74,-0.34 -0.61,-0.11 -1.18,-0.21 -1.79,-0.37 -1.46,-0.38 -2.9,-0.75 -4.34,-1.19 -4.25,-1.32 -8.49,-3.14 -12.22,-6.02 -1.75,-1.36 -3.4,-2.96 -4.82,-4.81 -0.35,-0.45 -0.68,-0.92 -1,-1.4 -0.22,-0.34 -0.41,-0.66 -0.58,-1.04 0.34,0.32 0.62,0.71 0.92,1.08 0.44,0.52 0.87,1.04 1.33,1.54 1.22,1.33 2.53,2.52 3.92,3.58 4.03,3.05 8.6,4.9 13.21,6.22l4.62 1.18 5.24 1.05c1.74,0.42 3.48,0.9 5.2,1.45 5.74,1.84 11.23,4.46 16.45,7.92 1.93,1.28 3.82,2.68 5.63,4.17 0.54,0.45 1.08,0.9 1.61,1.37 0.7,0.62 1.39,1.24 2.03,1.97 -1.21,-0.77 -2.35,-1.73 -3.51,-2.59zm-73.67 -85.66l0 0c-0.26,2.58 -0.8,5.23 -1.71,7.58 -0.32,0.84 -0.79,1.97 -1.34,2.61 0.11,-0.51 0.3,-0.99 0.47,-1.47 0.18,-0.53 0.35,-1.05 0.51,-1.59 0.51,-1.75 0.88,-3.56 1.1,-5.4 0.92,-7.68 -0.39,-15.93 -3.67,-22.58 -1.01,-2.06 -2.22,-3.96 -3.6,-5.67 -0.48,-0.59 -0.98,-1.16 -1.49,-1.71 -0.4,-0.43 -0.82,-0.84 -1.18,-1.32 0.82,0.37 1.61,1.11 2.29,1.77 1.37,1.33 2.65,2.98 3.7,4.71 3.92,6.49 5.71,15.07 4.91,23.09zm-7.53 38.04l0 0c0.05,0.46 0.07,0.97 0.1,1.43 -0.02,-0.07 -0.14,-0.47 -0.16,-0.54 -0.08,-0.26 -0.17,-0.54 -0.24,-0.81 -0.07,-0.27 -0.13,-0.56 -0.19,-0.83 -0.17,-0.74 -0.33,-1.48 -0.51,-2.23 -0.54,-2.3 -1.05,-4.59 -1.64,-6.87 -1.88,-7.14 -4.4,-14.08 -8.62,-19.63 -1.55,-2.05 -3.29,-3.84 -5.19,-5.4 -0.62,-0.51 -1.26,-0.98 -1.9,-1.45 -0.51,-0.37 -1.04,-0.71 -1.52,-1.15 0.84,0.21 1.67,0.71 2.43,1.17 1.55,0.93 3.03,2.14 4.38,3.45 6.5,6.34 9.87,16.1 11.85,25.73 0.35,1.7 0.66,3.42 0.93,5.14 0.1,0.65 0.22,1.33 0.29,1.99z"/>
     <path class="fil1" d="M126.47 250.48l-0.41 0.11c-0.49,-0.52 -0.98,-1.05 -1.47,-1.56l-0.32 -0.32 0.48 0.75c-0.58,-0.52 -1.13,-1.12 -1.66,-1.73l-1.02 -1.21 -1.39 -1.3c-4.25,-3.86 -8.78,-7 -13.75,-9.36 -7.23,-3.44 -14.86,-4.88 -22.5,-6.17 -2.55,-0.43 -5.11,-0.84 -7.66,-1.28 -3.48,-0.6 -6.96,-1.28 -10.41,-2.1 -1.38,-0.33 -2.75,-0.68 -4.12,-1.05 -1.08,-0.29 -2.15,-0.59 -3.21,-0.96 -2.53,-0.88 -5.02,-2.08 -7.35,-3.58 -3.57,-2.3 -6.87,-5.3 -9.63,-8.93 -5.03,-6.62 -8.21,-14.88 -8.81,-23.94 -0.23,-3.49 -0.05,-7 0.51,-10.43 0.31,-1.91 0.75,-3.82 1.31,-5.65 0.32,-1.07 0.67,-2.18 1.1,-3.18 0.42,-0.98 0.87,-1.89 1.35,-2.77l0.36 -0.62 0.46 -1.49c0.21,-0.71 0.39,-1.43 0.56,-2.16 1.1,-4.9 1.23,-10.25 -1.55,-14.39 -0.23,-0.34 -0.48,-0.67 -0.74,-0.98l-0.8 -0.84 -1.57 -1.1c-1.63,-0.93 -3.4,-1.27 -5.24,-0.65 -2.94,0.99 -5.05,4.56 -4.66,8.32 0.11,1.06 0.41,2.07 0.85,2.99l0.46 0.86 0.51 0.63c0.57,0.61 1.22,1.04 1.98,1.23 1.53,0.38 3.23,-0.53 3.57,-2.53 0.15,-0.89 0.01,-1.82 -0.26,-2.65 -0.07,-0.23 -0.16,-0.47 -0.25,-0.7 -0.1,-0.25 -0.18,-0.47 -0.24,-0.75 0.37,0.24 0.71,0.89 0.91,1.33 0.76,1.69 0.77,3.62 -0.3,5.1 -1.14,1.56 -3.05,1.82 -4.59,1.12 -0.78,-0.36 -1.55,-1.01 -2.12,-1.76 -0.23,-0.31 -0.43,-0.66 -0.62,-1.01 -0.91,-1.7 -1.38,-3.78 -1.19,-5.81 0.21,-2.31 1.1,-4.41 2.52,-5.94 0.5,-0.54 1.03,-0.98 1.62,-1.36 2.6,-1.68 5.63,-1.28 8.15,0.39 0.43,0.28 0.9,0.62 1.28,0.98 1.02,0.96 1.98,2.33 2.63,3.69 2.11,4.42 1.76,9.73 0.4,14.41l-0.23 0.72 0.69 -0.91c2.42,-2.95 5.47,-5.1 8.77,-6.14 6.6,-2.08 13.81,0.38 18.21,6.91 1.24,1.84 2.18,3.83 2.89,6.05 0.34,1.05 0.61,2.14 0.82,3.24 0.16,0.85 0.3,1.68 0.36,2.56 0.34,5.02 -0.87,9.68 -3.87,13.18 -0.88,1.02 -1.9,1.9 -2.98,2.58 -1.23,0.78 -2.54,1.34 -3.91,1.64 -2.44,0.55 -5.01,0.32 -7.3,-0.92 -0.9,-0.48 -1.8,-1.15 -2.55,-1.94 -0.36,-0.38 -0.7,-0.84 -1,-1.29 -1.63,-2.4 -2.49,-5.32 -2.15,-8.45 0.3,-2.77 1.66,-5.23 3.56,-6.74 1.03,-0.82 2.15,-1.33 3.35,-1.62 0.6,-0.15 1.33,-0.25 1.94,-0.24 1.05,0.02 2.24,0.48 3.11,1.21 1.49,1.25 2.43,3.46 2.21,5.69 -0.21,2.17 -1.5,3.65 -3.27,3.81 -0.42,0.03 -0.91,0.03 -1.32,-0.13 0.31,-0.04 0.63,-0.03 0.95,-0.07 0.71,-0.09 1.38,-0.31 1.97,-0.83 1.27,-1.12 1.51,-3.14 1.05,-4.88 -0.19,-0.71 -0.5,-1.37 -0.89,-1.94 -0.48,-0.7 -1.07,-1.2 -1.73,-1.54l-2.09 -0.53 -2.24 0.41c-2.19,0.71 -4.1,2.32 -5.13,4.96 -0.23,0.58 -0.41,1.22 -0.52,1.86 -0.12,0.72 -0.17,1.45 -0.15,2.18 0.03,0.91 0.18,1.81 0.43,2.66 0.26,0.88 0.6,1.69 1.03,2.44l1.45 2.06 1.94 1.55c0.7,0.41 1.44,0.72 2.21,0.94 4.45,1.25 9.51,-0.94 12.33,-5.34 1.55,-2.43 2.31,-5.26 2.42,-8.23l-0.1 -2.98 -0.72 -3.54c-0.32,-1.16 -0.71,-2.29 -1.18,-3.38 -0.71,-1.64 -1.63,-3.19 -2.7,-4.52 -5.03,-6.28 -12.92,-7.6 -19.3,-3.78 -3,1.79 -5.37,4.4 -7.2,7.64l-1.64 3.43 -1.64 5.67c-0.42,1.94 -0.72,3.92 -0.87,5.94 -0.25,3.28 -0.13,6.64 0.36,9.88 0.41,2.7 1.05,5.32 1.93,7.85 3.7,10.66 11.01,18.45 19.69,22.44l3.79 1.47 9.58 2.45c3.21,0.7 6.44,1.31 9.68,1.88 6.15,1.08 12.35,2.05 18.39,3.84 1.64,0.49 3.25,1.04 4.86,1.66 5.23,2.01 10.08,4.89 14.58,8.58l1.46 1.26 -1.62 -1.96c-4.86,-5.79 -10.1,-11.51 -16.48,-14.6 -1.21,-0.59 -2.44,-1.09 -3.71,-1.47 -0.79,-0.24 -1.58,-0.43 -2.38,-0.59 -0.58,-0.12 -1.17,-0.2 -1.75,-0.29 -0.86,-0.14 -1.72,-0.3 -2.58,-0.48 -0.94,-0.2 -1.89,-0.43 -2.83,-0.69 -4.63,-1.29 -9.81,-3.58 -12.66,-8.56 -1.07,-1.87 -1.68,-3.9 -2.02,-6.14 -0.08,-0.52 -0.14,-1.08 -0.17,-1.62 -0.02,-0.43 -0.07,-0.81 -0.03,-1.24 0.26,-3.26 1.27,-6.32 3.43,-8.39 0.52,-0.49 1.05,-0.89 1.65,-1.23 0.74,-0.42 1.6,-0.71 2.41,-0.84 1.95,-0.31 3.9,0.18 5.61,1.39 2.63,1.85 4.6,5.88 3.86,9.66 -0.71,3.67 -3.77,5.96 -6.75,5.55 -0.87,-0.12 -1.86,-0.5 -2.56,-1.18 -1.22,-1.18 -1.75,-3.27 -1.2,-5.07 0.35,-1.15 1.13,-1.99 2.16,-2.07 0.26,-0.02 0.64,-0.01 0.86,0.15 -0.21,0.07 -0.45,0.05 -0.67,0.1 -0.5,0.12 -0.93,0.32 -1.29,0.77 -1.03,1.26 -0.89,3.46 -0.01,4.78 0.18,0.26 0.38,0.49 0.6,0.68l0.72 0.46 1.05 0.34c2.5,0.47 5.25,-1.26 6,-4.34 0.18,-0.72 0.23,-1.45 0.17,-2.16l-0.42 -2.11 -0.73 -1.64c-0.29,-0.51 -0.63,-0.99 -1.01,-1.43 -2.46,-2.82 -6.34,-3.24 -9.15,-0.99 -1.68,1.35 -2.63,3.38 -3.1,5.64l-0.3 2.26 0.28 2.67c0.15,0.9 0.36,1.77 0.66,2.64 2.15,6.29 7.91,8.88 12.91,10.31 0.88,0.25 1.76,0.47 2.64,0.66 1.05,0.23 2.1,0.43 3.15,0.6 2.13,0.34 4.22,0.92 6.25,1.82 7.61,3.37 13.51,10.16 18.96,17.27 1,1.31 2,2.62 2.97,3.95l0.29 0.39 2.19 2.28 2.08 2.4z"/>
     <path class="fil1" d="M30.43 154.26c-0.81,0.24 -1.62,-0.38 -1.82,-1.37 -0.2,-1 0.3,-2 1.11,-2.23 0.81,-0.24 1.62,0.38 1.82,1.38 0.19,1 -0.31,1.99 -1.11,2.23z"/>
     <path class="fil1" d="M58.46 183.12c-2.02,0.59 -4.06,-0.95 -4.55,-3.44 -0.49,-2.49 0.76,-4.99 2.79,-5.58 2.03,-0.59 4.06,0.95 4.55,3.44 0.48,2.49 -0.77,4.99 -2.79,5.58z"/>
     <g>
      <path class="fil1" d="M66.1 197.03c-0.92,0.27 -1.85,-0.43 -2.07,-1.57 -0.22,-1.13 0.35,-2.27 1.27,-2.54 0.92,-0.27 1.85,0.43 2.07,1.57 0.22,1.13 -0.35,2.27 -1.27,2.54z"/>
      <path class="fil1" d="M60.36 197.68c-0.74,0.22 -1.49,-0.35 -1.67,-1.26 -0.18,-0.91 0.28,-1.83 1.03,-2.05 0.74,-0.22 1.49,0.35 1.67,1.26 0.18,0.92 -0.28,1.83 -1.03,2.05z"/>
      <path class="fil1" d="M72.33 192.48c-1.23,0.36 -2.47,-0.58 -2.76,-2.09 -0.29,-1.51 0.46,-3.03 1.7,-3.39 1.23,-0.36 2.47,0.58 2.76,2.09 0.29,1.52 -0.47,3.03 -1.7,3.39z"/>
      <path class="fil1" d="M65.77 156.15c-1.23,0.36 -2.47,-0.58 -2.76,-2.09 -0.3,-1.51 0.46,-3.03 1.7,-3.39 1.23,-0.36 2.47,0.58 2.76,2.09 0.29,1.52 -0.47,3.03 -1.7,3.39z"/>
      <path class="fil1" d="M77.47 184.68c-1.65,0.48 -3.32,-0.78 -3.71,-2.81 -0.4,-2.03 0.62,-4.07 2.28,-4.56 1.66,-0.48 3.32,0.78 3.71,2.81 0.4,2.03 -0.63,4.07 -2.28,4.56z"/>
      <path class="fil1" d="M73.06 162.66c-1.65,0.48 -3.32,-0.78 -3.71,-2.81 -0.4,-2.03 0.62,-4.07 2.28,-4.56 1.65,-0.48 3.32,0.77 3.71,2.81 0.39,2.03 -0.63,4.07 -2.28,4.56z"/>
      <path class="fil1" d="M78.74 174.77c-2.45,0.71 -4.93,-1.15 -5.51,-4.17 -0.59,-3.01 0.93,-6.05 3.38,-6.77 2.46,-0.71 4.93,1.15 5.52,4.17 0.59,3.02 -0.93,6.05 -3.39,6.77z"/>
     </g>
     <g>
      <path class="fil1" d="M93.56 202.41c-0.13,0.53 -0.59,0.83 -1.02,0.68 -0.44,-0.16 -0.69,-0.72 -0.56,-1.25 0.13,-0.53 0.59,-0.84 1.02,-0.68 0.44,0.16 0.69,0.72 0.56,1.25z"/>
      <path class="fil1" d="M92.41 205.48c-0.1,0.43 -0.47,0.68 -0.83,0.55 -0.35,-0.13 -0.55,-0.58 -0.45,-1.01 0.1,-0.43 0.48,-0.67 0.83,-0.55 0.35,0.13 0.56,0.58 0.45,1.01z"/>
      <path class="fil1" d="M93.5 198.16c-0.17,0.71 -0.78,1.11 -1.37,0.9 -0.58,-0.21 -0.92,-0.96 -0.75,-1.67 0.17,-0.71 0.78,-1.11 1.37,-0.9 0.58,0.21 0.92,0.96 0.75,1.67z"/>
      <path class="fil1" d="M79.62 192.83c-0.17,0.71 -0.78,1.12 -1.37,0.9 -0.58,-0.21 -0.92,-0.96 -0.75,-1.67 0.17,-0.71 0.79,-1.11 1.37,-0.9 0.58,0.21 0.92,0.96 0.75,1.67z"/>
      <path class="fil1" d="M92.08 193.7c-0.23,0.95 -1.05,1.5 -1.84,1.21 -0.78,-0.28 -1.23,-1.29 -1,-2.24 0.23,-0.95 1.05,-1.5 1.84,-1.22 0.79,0.28 1.23,1.29 1,2.24z"/>
      <path class="fil1" d="M83.57 190.69c-0.23,0.95 -1.05,1.5 -1.84,1.21 -0.78,-0.28 -1.23,-1.29 -1,-2.24 0.23,-0.95 1.05,-1.5 1.84,-1.21 0.78,0.28 1.23,1.29 1,2.24z"/>
      <path class="fil1" d="M89.03 190.69c-0.34,1.41 -1.57,2.22 -2.73,1.8 -1.16,-0.42 -1.83,-1.91 -1.49,-3.33 0.34,-1.42 1.56,-2.22 2.73,-1.81 1.16,0.42 1.83,1.91 1.49,3.33z"/>
     </g>
     <g>
      <path class="fil1" d="M34.84 137.88c0.34,0.36 0.38,1 0.08,1.42 -0.3,0.42 -0.82,0.47 -1.16,0.11 -0.34,-0.36 -0.38,-1 -0.08,-1.42 0.3,-0.42 0.82,-0.47 1.16,-0.1z"/>
      <path class="fil1" d="M36.65 140.43c0.28,0.29 0.31,0.81 0.06,1.15 -0.24,0.34 -0.66,0.38 -0.94,0.08 -0.28,-0.29 -0.31,-0.81 -0.07,-1.15 0.24,-0.34 0.66,-0.38 0.94,-0.08z"/>
      <path class="fil1" d="M31.66 136.18c0.46,0.48 0.5,1.33 0.11,1.9 -0.4,0.56 -1.09,0.62 -1.55,0.14 -0.46,-0.48 -0.5,-1.33 -0.11,-1.9 0.4,-0.56 1.09,-0.62 1.55,-0.14z"/>
      <path class="fil1" d="M21.95 149.43c0.46,0.48 0.5,1.33 0.1,1.9 -0.4,0.56 -1.09,0.62 -1.55,0.14 -0.46,-0.48 -0.5,-1.33 -0.11,-1.9 0.4,-0.56 1.09,-0.62 1.55,-0.14z"/>
      <path class="fil1" d="M27.75 135.91c0.61,0.65 0.68,1.79 0.14,2.55 -0.53,0.75 -1.47,0.84 -2.08,0.19 -0.61,-0.65 -0.68,-1.79 -0.14,-2.55 0.54,-0.76 1.47,-0.84 2.08,-0.19z"/>
      <path class="fil1" d="M21.98 144.15c0.61,0.65 0.68,1.79 0.14,2.55 -0.53,0.75 -1.47,0.84 -2.08,0.19 -0.61,-0.65 -0.68,-1.79 -0.14,-2.55 0.53,-0.75 1.47,-0.84 2.08,-0.19z"/>
      <path class="fil1" d="M24.25 138.07c0.91,0.97 1.01,2.66 0.21,3.78 -0.8,1.12 -2.18,1.25 -3.09,0.28 -0.91,-0.97 -1.01,-2.66 -0.21,-3.79 0.8,-1.12 2.18,-1.24 3.09,-0.28z"/>
     </g>
     <path class="fil1" d="M25.85 123.89c-8.25,-1.19 -7.95,-8.5 -2.88,-7.34 5.33,2.33 9.23,6.42 11.88,12.02 -2.44,-2.46 -5.3,-4.24 -9,-4.68z"/>
     <path class="fil1" d="M23.18 161.05l-0.71 0.56c-3.65,-2.49 -8.13,-5.2 -13.08,-5.49 -7.61,-0.86 -10.66,-6.43 -8.9,-10.04 4.06,-5.63 14.63,6.16 22.69,14.97z"/>
     <path class="fil1" d="M44.04 146.62c-0.13,2.75 -0.5,5.44 -1.17,8.07 -0.92,3.56 -2.4,6.8 -4.28,9.72 2.32,-4.32 3.73,-9.07 4.43,-14.17 0.65,-4.71 0.7,-9.51 0.71,-14.27 0.25,3.54 0.47,7.1 0.3,10.65z"/>
     <path class="fil1" d="M44.45 156.89c-2.07,2.2 -4.12,4.52 -5.81,7.17 1.56,-3.24 3.53,-6.02 5.92,-8.37 1.84,-1.81 3.81,-3.29 5.88,-4.67 -2.06,1.85 -4.06,3.82 -5.99,5.87z"/>
     <path class="fil1" d="M33.88 197.99c-2.16,-4.48 -3.54,-9.39 -4.76,-14.35 0.74,2.11 1.5,4.22 2.29,6.31 0.74,1.97 1.48,3.95 2.26,5.9 0.71,1.75 1.44,3.52 2.29,5.18 0.57,1.1 1.19,2.2 1.94,3.13 -1.63,-1.67 -2.95,-3.94 -4.02,-6.17z"/>
     <path class="fil1" d="M54.9 151.06c-3.57,1.04 -6.41,2.38 -8.89,3.87 2.12,-8.25 6.41,-13.64 11.97,-17.35 3.82,-3.12 6.02,-7.46 6.41,-13.17 3.75,13.75 0.62,23.67 -9.49,26.64z"/>
     <path class="fil1" d="M44.02 143.85c-6.65,-22.17 -9.85,-43.45 1.48,-61.02 -0.53,6.68 1.24,12.99 3.88,19.14 5.37,13.52 1.25,27.28 -5.37,41.88zm0.69 -37.49l0 0c-0.69,-3.01 -1.43,-6.08 -1.62,-9.21 -0.22,3.45 0.22,6.99 0.68,10.38 0.39,2.8 0.8,5.58 1.11,8.4 0.79,7.18 0.68,13.9 -1.04,20.89 2.85,-7.32 3.61,-14.43 2.46,-22.41 -0.39,-2.72 -0.99,-5.38 -1.6,-8.04z"/>
     <path class="fil1" d="M69.41 219.73l-0.44 0.38c-9.14,-4.85 -16.67,-12.21 -20.85,-24.84 6.29,2.38 10.15,6.15 12.43,10.8 2.38,5.06 5.46,9.5 8.87,13.67z"/>
     <path class="fil1" d="M24.73 221.72c17.22,-7.19 22.6,12.01 34,8.23 -13.96,4.62 -22.56,0.77 -34,-8.23z"/>
     <path class="fil1" d="M21.22 172.04c-5.64,0.7 -10.48,-3.1 -14.35,-12.4 2.19,1.67 4.7,2.17 7.45,1.81 4.86,-1.05 9.26,3.46 13.56,9.27l2.27 3.39c-1.98,-1.93 -5.03,-2.48 -8.92,-2.07zm-3.84 -6.56l0 0c-1.91,-0.36 -4.03,-0.6 -5.77,-1.76 2.32,2.31 5.57,2.82 8.35,3.44 1.78,0.4 3.62,0.9 5.2,2.09 -2.21,-2.43 -4.96,-3.24 -7.78,-3.77z"/>
     <path class="fil1" d="M99.9 261.36c-13.57,13.42 -34.26,13.21 -63.57,-3.61 9.25,-0.02 16.96,-3.84 23.54,-10.43 10.8,-12.76 31.74,-9.77 55.07,-3.09l12.96 4.37c-9.21,-1.07 -18.47,3.7 -28,12.76zm-23.65 -9.58l0 0c-5.8,2.96 -11.96,6.64 -18.98,7.13 10.9,1.41 20.59,-3.89 29.27,-7.94 5.57,-2.58 11.47,-5.01 18.12,-5.09 -10.87,-1.93 -19.83,1.53 -28.42,5.9z"/>
     <path class="fil1" d="M151.37 261.94c-9.53,-9.06 -18.79,-13.83 -28,-12.76l12.96 -4.37c23.33,-6.68 44.27,-9.67 55.07,3.09 6.58,6.6 14.29,10.42 23.54,10.44 -29.31,16.82 -50,17.02 -63.57,3.61zm23.65 -9.58l0 0c-8.58,-4.37 -17.54,-7.84 -28.41,-5.9 6.65,0.08 12.55,2.51 18.12,5.1 8.68,4.05 18.37,9.35 29.27,7.94 -7.02,-0.49 -13.17,-4.17 -18.98,-7.13z"/>
     <path class="fil1" d="M30.97 189.51l-0.12 0.13c-1.21,-2.63 -2.65,-4.79 -4.58,-5.98 -2.57,-1.81 -4.11,-4.53 -4.64,-8.15 0.68,0.85 1.92,1.97 3.57,2.53 4.04,1.55 5.13,5.96 5.77,11.48z"/>
     <path class="fil1" d="M78.48 216.25c0,0 4.47,5.98 23.42,4.02 18.37,-1.9 23.12,24.54 24.16,30.31 0,0 -7.01,-9.26 -14.04,-16.93 -7.03,-7.67 -12.11,-8.86 -20.3,-10.47 -11.45,-2.24 -13.24,-6.94 -13.24,-6.94z"/>
     <path class="fil1" d="M57.95 230.09c0,0 18.04,13.51 31.66,11.9 13.62,-1.62 13.43,-2.68 36.46,8.59 0,0 -13.08,-16.6 -35.71,-15.37 -22.63,1.22 -32.41,-5.11 -32.41,-5.11z"/>
     <path class="fil1" d="M44.92 212.97c0,0 -21.47,-35.25 5.47,-56.57 0,0 -16.35,3.65 -16.73,29.7 -0.28,19.95 11.26,26.87 11.26,26.87z"/>
     <path class="fil1" d="M36.38 183.92c0,0 0.01,29.6 30.14,40.96 0,0 -30.24,-0.54 -30.14,-40.96z"/>
     <path class="fil1" d="M111.45 224.24c0,0 -18.04,-11.79 -11.46,-42.77 0,0 -2.96,10.92 10.58,20.79 8.31,6.06 0.88,21.98 0.88,21.98z"/>
     <path class="fil1" d="M110.48 218.58c0,0 -6.68,-6.57 -8.46,-16.79 -1.77,-10.21 -2.27,-9.25 -2.27,-9.25 0,0 1.24,-0.12 3.94,12.14 1.01,4.56 3.75,8.68 6.78,13.9z"/>
     <path class="fil1" d="M125.39 248.74c0,0 -7.32,-27.74 -24.52,-26.31 0,0 12.84,-2.4 24.52,26.31z"/>
     <path class="fil1" d="M49.59 87.52c0,0 -0.31,8.02 4.43,15.58 4.74,7.56 1.66,21.36 -2.32,26.64 0,0 10.43,-13.21 4.83,-23.82 -3.59,-6.81 -6.83,-11.42 -6.94,-18.4z"/>
     <path class="fil1" d="M55.58 96.2c-0.3,-0.83 -1.1,-1.2 -1.78,-0.83 -0.68,0.37 -0.98,1.35 -0.68,2.18 0.3,0.83 1.1,1.2 1.78,0.83 0.68,-0.37 0.98,-1.35 0.68,-2.18z"/>
     <path class="fil1" d="M53.41 92.57c-0.23,-0.63 -0.84,-0.92 -1.36,-0.63 -0.52,0.28 -0.75,1.03 -0.52,1.66 0.23,0.63 0.84,0.92 1.36,0.63 0.52,-0.28 0.75,-1.03 0.52,-1.66z"/>
     <path class="fil1" d="M51.68 89.21c-0.17,-0.48 -0.63,-0.69 -1.02,-0.48 -0.39,0.21 -0.56,0.77 -0.39,1.25 0.17,0.48 0.63,0.69 1.02,0.47 0.39,-0.21 0.56,-0.77 0.39,-1.24z"/>
     <path class="fil1" d="M58.59 99.62c-0.41,-1.11 -1.47,-1.6 -2.38,-1.11 -0.91,0.5 -1.31,1.8 -0.9,2.91 0.41,1.11 1.47,1.6 2.38,1.11 0.91,-0.5 1.31,-1.8 0.91,-2.91z"/>
     <path class="fil1" d="M63.18 105.03c-0.62,-1.7 -2.26,-2.46 -3.65,-1.7 -1.39,0.76 -2.01,2.76 -1.39,4.46 0.62,1.7 2.26,2.46 3.65,1.7 1.39,-0.76 2.01,-2.76 1.39,-4.46z"/>
     <path class="fil1" d="M62.81 113.23c-0.46,-1.27 -1.68,-1.83 -2.71,-1.26 -1.04,0.57 -1.5,2.05 -1.03,3.32 0.46,1.27 1.68,1.83 2.71,1.26 1.04,-0.57 1.5,-2.05 1.03,-3.32z"/>
     <path class="fil1" d="M61.42 119.41c-0.36,-0.99 -1.31,-1.43 -2.12,-0.99 -0.81,0.44 -1.17,1.61 -0.81,2.59 0.36,0.99 1.31,1.43 2.12,0.99 0.81,-0.44 1.17,-1.61 0.81,-2.59z"/>
     <path class="fil1" d="M58.38 124.18c-0.32,-0.87 -1.16,-1.26 -1.87,-0.87 -0.71,0.39 -1.03,1.41 -0.71,2.28 0.32,0.87 1.16,1.26 1.87,0.87 0.71,-0.39 1.03,-1.41 0.71,-2.28z"/>
     <path class="fil1" d="M55.35 127.99c-0.23,-0.63 -0.84,-0.92 -1.36,-0.63 -0.52,0.28 -0.75,1.03 -0.52,1.66 0.23,0.63 0.84,0.92 1.36,0.63 0.52,-0.28 0.75,-1.03 0.52,-1.66z"/>
    </g>
    <g>
     <path class="fil0" d="M128.68 239.42l-0 -0.01c-0.01,-0.03 -0.01,-0.01 0,0.01z"/>
     <path class="fil1" d="M128.57 247.6c-0.45,0.23 -0.89,0.48 -1.36,0.67 0.37,-0.3 0.75,-0.56 1.15,-0.81 0.6,-0.37 1.2,-0.73 1.81,-1.08 1.87,-1.06 3.82,-2 5.8,-2.81 5.51,-2.25 11.23,-3.45 17.13,-3.69 4.18,-0.17 8.36,0.19 12.48,0.9 11.31,1.74 23.26,2.1 34.38,-1.2 3.89,-1.16 7.56,-2.7 11.11,-4.69 0.97,-0.54 1.93,-1.13 2.86,-1.73 0.71,-0.47 1.37,-0.92 2.14,-1.3 1.36,-0.68 2.81,-1.08 4.3,-1.25 0.43,-0.05 0.89,-0.07 1.32,-0.07 0.31,0 0.67,-0 0.97,0.07 -0.38,0.08 -0.79,0.08 -1.18,0.13 -0.49,0.05 -0.96,0.12 -1.44,0.21 -1.83,0.34 -3.64,1.08 -5.16,2.19 -6.1,4.33 -12.9,7.13 -20.15,8.59 -6.55,1.32 -13.24,1.51 -19.87,1.05 -2.53,-0.18 -5.05,-0.46 -7.56,-0.81 -1.99,-0.28 -3.95,-0.65 -5.95,-0.88 -3.28,-0.38 -6.58,-0.49 -9.88,-0.3 -5.71,0.33 -11.29,1.64 -16.61,3.81 -1.58,0.64 -3.12,1.36 -4.64,2.13 -0.56,0.28 -1.1,0.57 -1.65,0.86zm10.19 -7.11l0 0c-1.25,0.54 -2.49,1.17 -3.77,1.63 0.71,-0.51 1.47,-0.92 2.23,-1.33 0.58,-0.31 1.17,-0.61 1.75,-0.9 1.97,-0.97 4,-1.85 6.06,-2.63 5.56,-2.1 11.29,-3.47 17.17,-4.16 1.76,-0.21 3.53,-0.35 5.3,-0.45l5.29 -0.11 4.7 -0.3c4.71,-0.43 9.44,-1.29 13.78,-3.22 1.5,-0.67 2.93,-1.46 4.29,-2.38 0.51,-0.34 1,-0.71 1.49,-1.08 0.34,-0.26 0.67,-0.54 1.04,-0.75 -0.22,0.29 -0.44,0.53 -0.7,0.77 -0.37,0.35 -0.75,0.69 -1.15,1.01 -1.63,1.32 -3.44,2.4 -5.33,3.27 -4.02,1.84 -8.42,2.73 -12.77,3.2 -1.48,0.16 -2.94,0.25 -4.42,0.36 -0.61,0.04 -1.19,0.05 -1.81,0.05 -0.58,-0 -1.17,0.01 -1.75,0.03 -1.6,0.04 -3.19,0.12 -4.78,0.24 -6.93,0.54 -13.64,1.9 -20.23,4.22 -2.16,0.76 -4.28,1.63 -6.39,2.54zm82.9 -59.94l0 0c0.17,-6.71 2.97,-13.51 7.61,-18.3 1.23,-1.27 2.69,-2.44 4.21,-3.34 0.76,-0.45 1.62,-0.94 2.47,-1.13 -0.41,0.35 -0.87,0.62 -1.32,0.92 -0.57,0.38 -1.13,0.77 -1.67,1.19 -1.56,1.21 -2.98,2.6 -4.23,4.15 -4.03,5.01 -6.31,11.61 -6.32,18.06 0,1.54 0.15,3.09 0.44,4.6 0.09,0.47 0.2,0.92 0.31,1.38 0.1,0.42 0.23,0.84 0.28,1.28 -0.46,-0.61 -0.79,-1.6 -1,-2.34 -0.61,-2.06 -0.83,-4.33 -0.78,-6.48zm2.87 32.39l0 0c0.15,-0.53 0.35,-1.08 0.53,-1.6 0.47,-1.38 0.98,-2.75 1.53,-4.1 3.11,-7.64 7.6,-15.19 14.77,-19.48 1.49,-0.89 3.09,-1.67 4.73,-2.21 0.81,-0.27 1.68,-0.56 2.53,-0.61 -0.52,0.3 -1.09,0.5 -1.64,0.73 -0.69,0.29 -1.38,0.59 -2.05,0.92 -2.06,1.01 -3.99,2.23 -5.76,3.7 -4.82,3.97 -8.14,9.31 -10.85,14.92 -0.86,1.79 -1.64,3.61 -2.44,5.42 -0.26,0.59 -0.51,1.17 -0.77,1.76 -0.09,0.21 -0.18,0.44 -0.29,0.66 -0.1,0.21 -0.23,0.43 -0.34,0.63 -0.03,0.06 -0.2,0.37 -0.23,0.42 0.09,-0.38 0.17,-0.79 0.27,-1.16z"/>
     <path class="fil1" d="M126.42 248.15l2.34 -1.67 2.43 -1.56 0.33 -0.28c1.12,-0.96 2.26,-1.9 3.4,-2.83 6.22,-5.07 12.86,-9.82 20.77,-11.5 2.1,-0.44 4.24,-0.63 6.38,-0.6 1.06,0.01 2.12,-0 3.18,-0.04 0.9,-0.03 1.79,-0.09 2.68,-0.17 5.11,-0.46 11.1,-1.77 13.96,-6.63 0.39,-0.67 0.71,-1.36 0.96,-2.08l0.59 -2.16 -0.02 -1.9c-0.18,-1.92 -0.88,-3.73 -2.38,-5.08 -2.51,-2.26 -6.38,-2.47 -9.14,-0.49 -0.43,0.31 -0.82,0.65 -1.16,1.03l-0.92 1.24 -0.67 1.67c-0.14,0.58 -0.18,1.19 -0.09,1.81 0.37,2.64 2.87,4.46 5.4,4.43l1.07 -0.13 0.76 -0.28c0.24,-0.12 0.47,-0.28 0.67,-0.47 1.03,-0.96 1.42,-2.75 0.56,-3.94 -0.31,-0.42 -0.7,-0.65 -1.18,-0.82 -0.21,-0.07 -0.45,-0.09 -0.64,-0.18 0.24,-0.1 0.62,-0.06 0.87,-0 1,0.22 1.67,1.02 1.88,2.02 0.33,1.56 -0.44,3.21 -1.79,4 -0.77,0.45 -1.79,0.63 -2.66,0.6 -2.99,-0.09 -5.73,-2.42 -6,-5.54 -0.27,-3.21 2.16,-6.25 4.97,-7.39 1.83,-0.75 3.81,-0.87 5.7,-0.34 0.79,0.22 1.59,0.58 2.27,1.04 0.55,0.36 1.03,0.76 1.48,1.24 1.89,2.01 2.51,4.67 2.38,7.4 -0.02,0.36 -0.1,0.67 -0.18,1.01 -0.1,0.43 -0.23,0.89 -0.37,1.31 -0.6,1.79 -1.45,3.38 -2.72,4.77 -3.4,3.69 -8.79,4.84 -13.51,5.23 -0.95,0.08 -1.92,0.13 -2.87,0.16 -0.87,0.02 -1.74,0.03 -2.61,0.02 -0.59,-0.01 -1.17,-0.03 -1.76,-0.01 -0.81,0.02 -1.61,0.06 -2.42,0.15 -1.3,0.14 -2.57,0.37 -3.83,0.68 -6.66,1.63 -12.52,5.59 -18,9.65l-1.83 1.38 1.59 -0.82c4.88,-2.39 10,-4.07 15.4,-4.97 1.66,-0.28 3.32,-0.5 4.99,-0.67 6.17,-0.61 12.41,-0.52 18.6,-0.52 3.26,-0 6.52,-0.04 9.77,-0.16l9.74 -0.64 3.92 -0.66c9.04,-2.04 17.18,-7.4 22.1,-15.64 1.17,-1.96 2.12,-4.02 2.85,-6.19 0.87,-2.59 1.39,-5.34 1.54,-8.07 0.08,-1.69 0.03,-3.36 -0.15,-5.02l-0.94 -4.9 -1.21 -3.06c-1.42,-2.93 -3.45,-5.42 -6.19,-7.33 -5.83,-4.05 -13.77,-4.1 -19.49,0.35 -1.21,0.94 -2.3,2.09 -3.2,3.33 -0.6,0.83 -1.12,1.7 -1.57,2.61l-1.14 2.82 -0.46 2.44c-0.25,2.46 0.16,4.9 1.4,7.12 2.25,4.03 6.97,6.56 11.52,6.17 0.79,-0.07 1.55,-0.22 2.29,-0.46l2.1 -0.99 1.68 -1.49c0.5,-0.56 0.94,-1.17 1.3,-1.86 0.35,-0.67 0.61,-1.39 0.74,-2.13 0.11,-0.6 0.15,-1.21 0.12,-1.82 -0.03,-0.54 -0.13,-1.09 -0.29,-1.6 -0.7,-2.32 -2.39,-3.93 -4.46,-4.82l-2.16 -0.66 -2.12 0.13c-0.68,0.19 -1.33,0.52 -1.89,1.02 -0.46,0.41 -0.84,0.91 -1.12,1.47 -0.66,1.36 -0.67,3.06 0.45,4.16 0.52,0.51 1.15,0.79 1.84,0.96 0.31,0.08 0.62,0.11 0.93,0.19 -0.42,0.07 -0.9,0 -1.32,-0.09 -1.73,-0.38 -2.82,-1.79 -2.77,-3.6 0.05,-1.86 1.24,-3.55 2.86,-4.37 0.94,-0.48 2.17,-0.68 3.21,-0.55 0.6,0.08 1.31,0.27 1.88,0.48 1.15,0.41 2.19,1 3.11,1.82 1.69,1.52 2.73,3.73 2.7,6.06 -0.04,2.62 -1.24,4.91 -3.13,6.65 -0.35,0.32 -0.74,0.66 -1.14,0.92 -0.83,0.55 -1.8,0.97 -2.75,1.23 -2.41,0.69 -4.97,0.51 -7.31,-0.29 -1.31,-0.45 -2.54,-1.09 -3.66,-1.91 -0.98,-0.72 -1.88,-1.58 -2.63,-2.55 -2.55,-3.31 -3.18,-7.32 -2.24,-11.41 0.16,-0.71 0.4,-1.37 0.66,-2.05 0.34,-0.87 0.74,-1.73 1.2,-2.55 0.97,-1.72 2.14,-3.23 3.58,-4.56 5.12,-4.74 12.53,-5.74 18.78,-3.08 3.13,1.33 5.88,3.54 7.91,6.31l0.57 0.85 -0.14 -0.62c-0.77,-4.04 -0.49,-8.46 2.12,-11.8 0.8,-1.03 1.91,-2.02 3.03,-2.66 0.42,-0.24 0.93,-0.45 1.38,-0.62 2.69,-1.01 5.73,-0.91 8.08,0.85 0.53,0.4 1.01,0.84 1.43,1.35 1.22,1.47 1.84,3.32 1.77,5.25 -0.06,1.69 -0.77,3.34 -1.87,4.61 -0.23,0.26 -0.46,0.52 -0.73,0.74 -0.65,0.53 -1.49,0.96 -2.3,1.14 -1.6,0.36 -3.46,-0.13 -4.4,-1.58 -0.89,-1.37 -0.65,-2.95 0.31,-4.24 0.25,-0.34 0.66,-0.82 1.05,-0.97 -0.09,0.22 -0.2,0.39 -0.33,0.58 -0.11,0.18 -0.23,0.36 -0.33,0.54 -0.36,0.65 -0.62,1.39 -0.58,2.15 0.1,1.69 1.66,2.69 3.22,2.6 0.78,-0.04 1.47,-0.31 2.1,-0.73l0.58 -0.45 0.56 -0.64c0.54,-0.69 0.96,-1.48 1.2,-2.34 0.84,-3.04 -0.82,-6.28 -3.6,-7.52 -1.74,-0.78 -3.53,-0.75 -5.25,-0.22l-1.68 0.68 -0.89 0.58c-0.3,0.22 -0.59,0.45 -0.85,0.7 -3.24,3 -3.75,7.43 -3.25,11.62 0.08,0.62 0.17,1.24 0.29,1.85l0.28 1.3 0.28 0.56c0.37,0.79 0.7,1.61 1,2.48 0.31,0.89 0.52,1.85 0.71,2.78 0.33,1.58 0.53,3.22 0.61,4.84 0.14,2.91 -0.1,5.82 -0.75,8.66 -1.68,7.37 -5.8,13.71 -11.55,18.44 -3.15,2.59 -6.77,4.59 -10.57,5.96 -2.47,0.9 -5.08,1.53 -7.67,1.89 -1.1,0.15 -2.18,0.24 -3.28,0.33 -1.39,0.11 -2.79,0.2 -4.19,0.27 -3.5,0.18 -7.02,0.24 -10.52,0.24 -2.57,-0 -5.14,-0.04 -7.71,-0.05 -7.69,-0.04 -15.38,0.05 -22.92,1.85 -5.18,1.23 -10.02,3.17 -14.68,5.73l-1.53 0.87 -1.15 0.85c-0.6,0.43 -1.21,0.84 -1.85,1.19l0.56 -0.55 -0.35 0.22c-0.55,0.35 -1.09,0.71 -1.64,1.07l-0.39 -0.15z"/>
     <path class="fil1" d="M232.64 182.73c0.77,0.31 1.65,-0.08 1.96,-0.87 0.31,-0.79 -0.06,-1.68 -0.83,-2 -0.77,-0.31 -1.65,0.08 -1.96,0.87 -0.31,0.79 0.06,1.69 0.83,2z"/>
     <path class="fil1" d="M201.54 202.46c1.92,0.77 4.12,-0.2 4.89,-2.18 0.78,-1.98 -0.15,-4.22 -2.08,-4.99 -1.93,-0.78 -4.12,0.2 -4.9,2.18 -0.78,1.98 0.16,4.22 2.09,5z"/>
     <g>
      <path class="fil1" d="M192.35 212.82c0.88,0.35 1.88,-0.09 2.23,-0.99 0.35,-0.9 -0.07,-1.92 -0.95,-2.27 -0.88,-0.35 -1.88,0.09 -2.23,0.99 -0.35,0.9 0.07,1.92 0.95,2.27z"/>
      <path class="fil1" d="M197.94 214.18c0.71,0.29 1.52,-0.07 1.8,-0.8 0.29,-0.73 -0.06,-1.55 -0.77,-1.83 -0.71,-0.29 -1.51,0.07 -1.8,0.8 -0.29,0.73 0.06,1.55 0.77,1.84z"/>
      <path class="fil1" d="M186.75 208.18c1.17,0.47 2.5,-0.12 2.97,-1.32 0.47,-1.2 -0.09,-2.56 -1.26,-3.04 -1.17,-0.47 -2.5,0.12 -2.98,1.32 -0.47,1.21 0.1,2.56 1.27,3.04z"/>
      <path class="fil1" d="M197.57 179.22c1.17,0.47 2.5,-0.12 2.97,-1.33 0.47,-1.2 -0.1,-2.56 -1.27,-3.03 -1.17,-0.47 -2.5,0.12 -2.97,1.32 -0.47,1.2 0.1,2.56 1.27,3.03z"/>
      <path class="fil1" d="M182.61 201.02c1.57,0.63 3.36,-0.16 3.99,-1.78 0.63,-1.61 -0.13,-3.44 -1.7,-4.07 -1.57,-0.64 -3.36,0.16 -4,1.78 -0.63,1.62 0.13,3.44 1.7,4.08z"/>
      <path class="fil1" d="M189.6 183.53c1.57,0.63 3.36,-0.16 3.99,-1.78 0.63,-1.62 -0.13,-3.44 -1.7,-4.08 -1.57,-0.63 -3.36,0.16 -4,1.78 -0.63,1.62 0.13,3.45 1.7,4.08z"/>
      <path class="fil1" d="M182.55 192.69c2.33,0.94 4.99,-0.24 5.93,-2.64 0.94,-2.4 -0.19,-5.11 -2.52,-6.06 -2.34,-0.94 -4.99,0.24 -5.94,2.64 -0.94,2.4 0.19,5.11 2.53,6.06z"/>
     </g>
     <g>
      <path class="fil1" d="M164.62 213.3c0.06,0.46 0.48,0.77 0.93,0.7 0.45,-0.07 0.76,-0.49 0.7,-0.95 -0.06,-0.46 -0.48,-0.77 -0.93,-0.7 -0.45,0.07 -0.76,0.49 -0.7,0.95z"/>
      <path class="fil1" d="M165.39 216c0.05,0.37 0.39,0.62 0.75,0.57 0.36,-0.06 0.62,-0.4 0.57,-0.77 -0.05,-0.37 -0.39,-0.62 -0.75,-0.57 -0.36,0.05 -0.62,0.4 -0.57,0.77z"/>
      <path class="fil1" d="M165.19 209.82c0.08,0.61 0.64,1.03 1.24,0.94 0.6,-0.09 1.02,-0.66 0.93,-1.27 -0.09,-0.61 -0.64,-1.03 -1.24,-0.94 -0.6,0.09 -1.02,0.66 -0.93,1.27z"/>
      <path class="fil1" d="M179.51 207.42c0.09,0.61 0.64,1.03 1.24,0.94 0.6,-0.09 1.02,-0.66 0.93,-1.26 -0.08,-0.61 -0.64,-1.03 -1.24,-0.94 -0.6,0.09 -1.02,0.66 -0.94,1.27z"/>
      <path class="fil1" d="M167.13 206.35c0.11,0.82 0.86,1.38 1.66,1.26 0.81,-0.12 1.37,-0.88 1.26,-1.7 -0.11,-0.82 -0.86,-1.38 -1.67,-1.26 -0.81,0.12 -1.37,0.88 -1.26,1.7z"/>
      <path class="fil1" d="M175.88 205.09c0.11,0.82 0.86,1.38 1.67,1.26 0.81,-0.12 1.37,-0.88 1.26,-1.7 -0.11,-0.82 -0.86,-1.38 -1.67,-1.26 -0.81,0.12 -1.37,0.88 -1.26,1.7z"/>
      <path class="fil1" d="M170.5 204.31c0.17,1.21 1.28,2.05 2.47,1.88 1.2,-0.18 2.03,-1.31 1.87,-2.53 -0.17,-1.22 -1.28,-2.06 -2.47,-1.88 -1.2,0.18 -2.03,1.31 -1.86,2.53z"/>
     </g>
     <g>
      <path class="fil1" d="M230.25 168.61c-0.38,0.25 -0.49,0.77 -0.25,1.16 0.24,0.39 0.75,0.5 1.13,0.26 0.38,-0.25 0.49,-0.77 0.25,-1.16 -0.24,-0.39 -0.75,-0.5 -1.13,-0.25z"/>
      <path class="fil1" d="M228.17 170.45c-0.31,0.2 -0.4,0.62 -0.2,0.93 0.2,0.31 0.61,0.41 0.91,0.2 0.31,-0.2 0.4,-0.62 0.2,-0.93 -0.2,-0.31 -0.61,-0.41 -0.92,-0.2z"/>
      <path class="fil1" d="M233.6 167.67c-0.51,0.34 -0.66,1.03 -0.33,1.55 0.33,0.52 1,0.67 1.51,0.34 0.51,-0.33 0.66,-1.03 0.33,-1.55 -0.33,-0.52 -1,-0.67 -1.51,-0.34z"/>
      <path class="fil1" d="M241.59 179.97c-0.51,0.33 -0.66,1.03 -0.33,1.54 0.32,0.52 1,0.67 1.51,0.34 0.51,-0.33 0.66,-1.03 0.33,-1.55 -0.33,-0.52 -1,-0.67 -1.51,-0.34z"/>
      <path class="fil1" d="M237.49 168.02c-0.68,0.45 -0.88,1.38 -0.45,2.08 0.44,0.7 1.35,0.9 2.03,0.45 0.68,-0.45 0.88,-1.38 0.45,-2.08 -0.44,-0.7 -1.35,-0.9 -2.03,-0.45z"/>
      <path class="fil1" d="M242.18 175.62c-0.68,0.45 -0.88,1.38 -0.45,2.07 0.44,0.7 1.35,0.9 2.03,0.45 0.68,-0.45 0.88,-1.38 0.45,-2.08 -0.44,-0.7 -1.35,-0.9 -2.03,-0.45z"/>
      <path class="fil1" d="M240.68 170.29c-1.01,0.67 -1.31,2.05 -0.66,3.08 0.65,1.04 2,1.34 3.02,0.68 1.01,-0.67 1.31,-2.05 0.66,-3.09 -0.65,-1.04 -2,-1.34 -3.02,-0.67z"/>
     </g>
     <path class="fil1" d="M240.8 158.39c8.28,0.2 8.85,-5.86 3.72,-5.63 -5.54,1.15 -9.87,3.96 -13.15,8.19 2.7,-1.67 5.74,-2.73 9.43,-2.56z"/>
     <path class="fil1" d="M238.99 189.36l0.63 0.56c3.89,-1.53 8.64,-3.11 13.56,-2.64 7.6,0.38 11.28,-3.77 9.98,-6.99 -3.33,-5.22 -15.16,2.97 -24.17,9.07z"/>
     <path class="fil1" d="M220.14 174.49c-0.2,2.28 -0.16,4.55 0.19,6.81 0.48,3.06 1.55,5.94 3.05,8.61 -1.77,-3.89 -2.59,-8 -2.68,-12.3 -0.08,-3.97 0.45,-7.93 1.01,-11.85 -0.67,2.87 -1.31,5.77 -1.57,8.72z"/>
     <path class="fil1" d="M218.51 182.89c1.78,2.11 3.52,4.31 4.87,6.73 -1.15,-2.89 -2.76,-5.46 -4.84,-7.74 -1.6,-1.75 -3.36,-3.25 -5.24,-4.68 1.81,1.82 3.54,3.73 5.2,5.69z"/>
     <path class="fil1" d="M224.01 218.23c2.67,-3.37 4.61,-7.22 6.41,-11.12 -0.98,1.63 -1.99,3.25 -3.01,4.86 -0.96,1.52 -1.93,3.04 -2.94,4.53 -0.91,1.34 -1.84,2.69 -2.88,3.93 -0.69,0.82 -1.44,1.64 -2.28,2.3 1.81,-1.14 3.38,-2.82 4.7,-4.5z"/>
     <path class="fil1" d="M208.9 176.59c3.39,1.37 6.04,2.88 8.3,4.46 -1.1,-7.1 -4.69,-12.14 -9.73,-15.99 -3.39,-3.11 -5.05,-7 -4.74,-11.76 -5.35,10.78 -3.45,19.39 6.17,23.29z"/>
     <path class="fil1" d="M220.49 172.22c-4.78,-12.97 -7.19,-24.88 -0.28,-35.24 3.34,-4.69 5.85,-9.62 6.12,-15.2 9.07,16.09 3.36,33.15 -5.85,50.44zm3.81 -30.96l0 0c-0.92,2.1 -1.83,4.2 -2.54,6.39 -2.09,6.4 -2.2,12.37 -0.26,18.8 -0.85,-5.99 -0.16,-11.55 1.48,-17.34 0.65,-2.27 1.39,-4.5 2.1,-6.75 0.87,-2.73 1.72,-5.58 1.92,-8.45 -0.57,2.55 -1.66,4.97 -2.7,7.35z"/>
     <path class="fil1" d="M186.37 231.03l0.39 0.38c9.59,-2.68 17.9,-7.66 23.54,-17.46 -6.49,1.06 -10.74,3.6 -13.55,7.11 -2.95,3.82 -6.52,7.03 -10.38,9.98z"/>
     <path class="fil1" d="M228.52 234.24c-14.29,-3.33 -24.45,0.66 -33.25,7.05 11.27,1.45 22.42,0.54 33.25,-7.05z"/>
     <path class="fil1" d="M223.75 226.62c-3.87,-0.52 -6.9,-0.19 -8.87,1.33l2.26 -2.72c4.28,-4.65 8.66,-8.22 13.49,-7.12 2.73,0.43 5.23,0.12 7.4,-1.17 -3.86,7.58 -8.68,10.53 -14.28,9.69zm3.83 -5.29l0 0c-2.8,0.31 -5.53,0.86 -7.73,2.79 1.58,-0.92 3.4,-1.25 5.17,-1.51 2.77,-0.39 6,-0.67 8.31,-2.49 -1.74,0.89 -3.85,1 -5.74,1.21z"/>
     <path class="fil1" d="M227.9 211.67l0.1 0.12c1.51,-1.99 3.19,-3.56 5.23,-4.26 2.75,-1.12 4.59,-3.14 5.55,-6.04 -0.77,0.6 -2.13,1.34 -3.83,1.57 -4.17,0.69 -5.77,4.17 -7.06,8.62z"/>
     <path class="fil1" d="M177.84 226.86c0,0 -5.13,4.28 -23.58,-0.05 -17.89,-4.2 -25.74,16.88 -27.45,21.49 0,0 8.02,-6.61 15.88,-11.92 7.85,-5.31 13.01,-5.56 21.27,-5.7 11.55,-0.2 13.88,-3.81 13.88,-3.81z"/>
     <path class="fil1" d="M196.43 241.2c0,0 -19.41,8.53 -32.64,5.25 -13.23,-3.29 -12.92,-4.13 -36.98,1.84 0,0 14.89,-11.79 37.05,-7.53 22.17,4.25 32.57,0.44 32.57,0.44z"/>
     <path class="fil1" d="M211.33 228.98c0,0 25.39,-25.93 1.38,-47.35 0,0 15.69,5.35 12.94,26.85 -2.11,16.46 -14.32,20.5 -14.32,20.5z"/>
     <path class="fil1" d="M223.22 206.29c0,0 -3.56,24.36 -34.62,29.39 0,0 29.88,3.89 34.62,-29.39z"/>
     <path class="fil1" d="M144.37 228.71c0,0 19.2,-7.12 16.42,-33.56 0,0 1.61,9.41 -12.92,15.59 -8.92,3.8 -3.5,17.97 -3.5,17.97z"/>
     <path class="fil1" d="M146 224.18c0,0 7.38,-4.45 10.35,-12.61 2.97,-8.15 3.34,-7.29 3.34,-7.29 0,0 -1.21,-0.28 -5.34,9.43 -1.54,3.61 -4.73,6.61 -8.35,10.47z"/>
     <path class="fil1" d="M127.69 246.87c0,0 10.54,-21.78 27.33,-18.13 0,0 -12.37,-3.82 -27.33,18.13z"/>
     <path class="fil1" d="M221.75 125.06c0,0 -0.65,6.65 -6.23,12.19 -5.58,5.54 -4.19,17.34 -0.9,22.26 0,0 -8.7,-12.37 -1.91,-20.3 4.35,-5.09 8.1,-8.42 9.04,-14.15z"/>
     <path class="fil1" d="M214.8 131.33c0.4,-0.64 1.23,-0.83 1.86,-0.43 0.62,0.4 0.81,1.25 0.41,1.89 -0.4,0.64 -1.23,0.83 -1.86,0.43 -0.62,-0.4 -0.81,-1.25 -0.41,-1.89z"/>
     <path class="fil1" d="M217.38 128.66c0.31,-0.49 0.94,-0.63 1.41,-0.33 0.48,0.31 0.62,0.95 0.31,1.44 -0.31,0.49 -0.94,0.63 -1.41,0.33 -0.48,-0.31 -0.62,-0.95 -0.31,-1.44z"/>
     <path class="fil1" d="M219.48 126.15c0.23,-0.37 0.7,-0.48 1.06,-0.25 0.36,0.23 0.46,0.71 0.23,1.08 -0.23,0.37 -0.7,0.48 -1.06,0.25 -0.36,-0.23 -0.46,-0.72 -0.23,-1.08z"/>
     <path class="fil1" d="M211.42 133.72c0.53,-0.86 1.64,-1.11 2.48,-0.57 0.83,0.54 1.08,1.67 0.54,2.52 -0.53,0.85 -1.64,1.11 -2.48,0.57 -0.83,-0.54 -1.08,-1.67 -0.54,-2.52z"/>
     <path class="fil1" d="M206.25 137.51c0.82,-1.31 2.52,-1.7 3.8,-0.88 1.28,0.83 1.65,2.56 0.84,3.87 -0.82,1.31 -2.52,1.7 -3.8,0.88 -1.28,-0.83 -1.65,-2.56 -0.84,-3.87z"/>
     <path class="fil1" d="M205.63 144.32c0.61,-0.98 1.88,-1.27 2.83,-0.65 0.95,0.61 1.23,1.91 0.62,2.88 -0.61,0.98 -1.88,1.27 -2.83,0.65 -0.95,-0.62 -1.23,-1.91 -0.62,-2.88z"/>
     <path class="fil1" d="M206.26 149.61c0.48,-0.76 1.47,-0.99 2.21,-0.51 0.74,0.48 0.96,1.49 0.49,2.25 -0.48,0.76 -1.46,0.99 -2.21,0.51 -0.74,-0.48 -0.96,-1.49 -0.49,-2.25z"/>
     <path class="fil1" d="M208.69 153.96c0.42,-0.67 1.29,-0.87 1.95,-0.45 0.65,0.42 0.85,1.31 0.43,1.98 -0.42,0.67 -1.29,0.87 -1.95,0.45 -0.65,-0.42 -0.84,-1.31 -0.43,-1.98z"/>
     <path class="fil1" d="M211.22 157.54c0.31,-0.49 0.94,-0.63 1.41,-0.33 0.48,0.31 0.62,0.95 0.31,1.44 -0.3,0.49 -0.94,0.63 -1.41,0.32 -0.48,-0.31 -0.62,-0.95 -0.31,-1.44z"/>
    </g>
    <path class="fil0" d="M123.08 248.61c0,0 3.71,-31.89 -16.68,-78.42 -20.4,-46.53 -1.41,-116.47 -1.41,-116.47 0,0 -17.94,63.38 5.02,112.76 17.65,37.96 21.24,65.39 13.06,82.13z"/>
    <path class="fil0" d="M129.22 248.57c0,0 -1.12,-21.08 14.17,-50.78 15.3,-29.7 5.71,-76.37 5.71,-76.37 0,0 9.16,42.33 -7.94,73.79 -13.15,24.19 -16.63,42.04 -11.95,53.36z"/>
    <g>
     <path class="fil0" d="M115.59 45.47c0,-4.82 -3.91,-8.73 -8.73,-8.73 -4.82,0 -8.73,3.91 -8.73,8.73 0,4.82 3.91,8.73 8.73,8.73 4.82,0 8.73,-3.91 8.73,-8.73z"/>
     <path class="fil0" d="M115.46 17.26c-2.12,-3.14 -3.98,-0.1 -4.19,0.26 -0.17,-0.36 -1.92,-3.82 -4.32,-0.23 -2.19,3.28 3.73,7.43 3.94,7.58l-0 0.01c0,0 0.01,-0 0.01,-0.01l0 0 0 -0c0.22,-0.14 6.76,-4.33 4.56,-7.6z"/>
     <path class="fil0" d="M94.22 1.99c-3.15,-2.1 -3.72,1.43 -3.77,1.83 -0.3,-0.27 -3.23,-2.8 -4.08,1.43 -0.78,3.86 6.28,5.45 6.53,5.5l0 0.01c0,0 0,-0.01 0.01,-0.01l0 0 -0 -0c0.15,-0.21 4.6,-6.58 1.32,-8.77z"/>
     <path class="fil0" d="M105.83 8.98c-2.11,-3.14 -3.98,-0.1 -4.19,0.26 -0.17,-0.36 -1.92,-3.82 -4.32,-0.23 -2.19,3.28 3.73,7.43 3.94,7.58l-0 0.01c0,0 0.01,-0 0.01,-0l0 0 0 -0c0.22,-0.14 6.76,-4.33 4.56,-7.6z"/>
     <path class="fil0" d="M130.5 14.71c-1.27,-5.09 -5.15,-2.01 -5.58,-1.65 -0.05,-0.55 -0.69,-5.89 -5.52,-2.35 -4.41,3.23 1.34,11.45 1.54,11.74l-0.01 0.01c0,0 0.01,-0 0.01,-0l0 0 0 -0c0.36,-0.08 10.86,-2.44 9.54,-7.75z"/>
     <path class="fil0" d="M104.43 21.21c-3.28,-1.89 -3.62,1.66 -3.65,2.07 -0.31,-0.25 -3.4,-2.59 -3.98,1.68 -0.53,3.9 6.61,5.04 6.86,5.08l0 0.01c0,0 0,-0.01 0.01,-0.01l0 0 -0 -0c0.14,-0.22 4.18,-6.86 0.76,-8.83z"/>
     <path class="fil0" d="M92.72 14.95c-4.47,-1.53 -4.04,2.91 -3.97,3.41 -0.44,-0.23 -4.79,-2.36 -4.47,3.02 0.29,4.91 9.32,4.58 9.63,4.57l0.01 0.01c0,0 0,-0.01 0,-0.01 0,0 0,-0 0,-0l-0 -0c0.12,-0.31 3.46,-9.41 -1.2,-11z"/>
     <path class="fil0" d="M77.68 8.02c-4.68,-0.68 -3.43,3.6 -3.28,4.09 -0.48,-0.14 -5.14,-1.43 -3.84,3.8 1.19,4.78 10,2.79 10.31,2.72l0.01 0.01c0,0 0,-0.01 0,-0.01l0 -0 -0 -0c0.06,-0.32 1.67,-9.89 -3.21,-10.59z"/>
     <path class="fil0" d="M92.28 28.32c-3.76,0.46 -1.89,3.51 -1.67,3.85 -0.4,-0.01 -4.27,-0.02 -2.17,3.74 1.93,3.44 8.32,0.05 8.54,-0.07l0.01 0c0,0 -0,-0.01 -0,-0.01l0 -0 -0 -0c-0.02,-0.26 -0.79,-7.99 -4.71,-7.51z"/>
     <path class="fil0" d="M123.1 28.52c-0.25,-3.78 -3.39,-2.09 -3.75,-1.89 0.03,-0.4 0.27,-4.27 -3.61,-2.38 -3.54,1.73 -0.52,8.3 -0.41,8.53l-0.01 0.01c0,0 0.01,0 0.01,0l0 0 0 -0c0.26,-0.01 8.02,-0.34 7.77,-4.27z"/>
     <path class="fil0" d="M135.04 27.75c-0.25,-3.78 -3.39,-2.09 -3.75,-1.89 0.03,-0.4 0.27,-4.27 -3.61,-2.38 -3.54,1.73 -0.52,8.3 -0.41,8.53l-0.01 0.01c0,0 0.01,0 0.01,0l0 0 0 -0c0.26,-0.01 8.02,-0.34 7.77,-4.27z"/>
     <path class="fil0" d="M144.03 13.88c-0.25,-3.78 -3.39,-2.09 -3.75,-1.89 0.03,-0.4 0.27,-4.27 -3.61,-2.37 -3.54,1.73 -0.52,8.3 -0.41,8.53l-0.01 0.01c0,0 0.01,0 0.01,0 0,0 0,0 0,0l0 -0c0.26,-0.01 8.02,-0.34 7.77,-4.27z"/>
     <path class="fil0" d="M196.84 7.91c-0.25,-3.78 -3.39,-2.09 -3.75,-1.89 0.03,-0.4 0.27,-4.27 -3.61,-2.38 -3.54,1.73 -0.52,8.3 -0.41,8.53l-0.01 0.01c0,0 0.01,0 0.01,0l0 0 0 -0c0.26,-0.01 8.02,-0.34 7.77,-4.27z"/>
     <path class="fil0" d="M230.36 12.5c-0.25,-3.78 -3.39,-2.09 -3.75,-1.89 0.03,-0.4 0.27,-4.27 -3.61,-2.37 -3.54,1.73 -0.52,8.3 -0.41,8.53l-0.01 0.01c0,0 0.01,0 0.01,0l0 0 0 -0c0.26,-0.01 8.02,-0.34 7.77,-4.27z"/>
     <path class="fil0" d="M123.66 40.8c1.51,-2.26 -1.02,-2.67 -1.31,-2.71 0.19,-0.21 2.01,-2.31 -1.02,-2.93 -2.77,-0.56 -3.92,4.5 -3.96,4.67l-0.01 0c0,0 0,0 0.01,0 -0,0 -0,0 -0,0l0 -0c0.15,0.11 4.72,3.31 6.29,0.96z"/>
     <path class="fil0" d="M145.56 28.8c0.87,-2.57 -1.68,-2.31 -1.97,-2.28 0.13,-0.26 1.34,-2.76 -1.75,-2.56 -2.82,0.18 -2.61,5.36 -2.6,5.54l-0.01 0c0,0 0,0 0.01,0l0 0 0 -0c0.18,0.06 5.41,1.97 6.32,-0.71z"/>
     <path class="fil0" d="M231.27 46.53c0.87,-2.57 -1.68,-2.31 -1.97,-2.28 0.13,-0.26 1.34,-2.76 -1.75,-2.56 -2.82,0.18 -2.61,5.36 -2.6,5.55l-0.01 0c0,0 0,0 0.01,0l0 0 0 -0c0.18,0.07 5.42,1.96 6.32,-0.71z"/>
     <path class="fil0" d="M172.41 29.35c1.85,-5.47 -3.57,-4.92 -4.19,-4.84 0.28,-0.54 2.85,-5.87 -3.72,-5.45 -6,0.38 -5.55,11.41 -5.54,11.79l-0.01 0.01c0,0 0.01,0 0.01,0.01l0 0 0.01 -0c0.38,0.14 11.52,4.18 13.44,-1.52z"/>
     <path class="fil0" d="M124.52 51.86c3.27,-1.45 0.75,-3.69 0.45,-3.94 0.37,-0.1 3.88,-1.16 0.93,-3.98 -2.69,-2.58 -7.54,2.25 -7.71,2.42l-0.01 -0c0,0 0,0.01 0,0.01l-0 0 0 0c0.1,0.23 2.92,7.01 6.33,5.5z"/>
     <path class="fil0" d="M147.63 65.99c3.27,-1.45 0.75,-3.69 0.45,-3.94 0.36,-0.1 3.88,-1.16 0.93,-3.98 -2.69,-2.58 -7.54,2.25 -7.71,2.42l-0.01 -0c0,0 0,0.01 0,0.01l-0 0 0 0c0.1,0.23 2.92,7.01 6.33,5.5z"/>
     <path class="fil0" d="M137.5 57.39c3.9,-1.73 0.89,-4.4 0.54,-4.7 0.44,-0.12 4.62,-1.38 1.11,-4.75 -3.21,-3.08 -8.99,2.68 -9.19,2.88l-0.01 -0c0,0 0,0.01 0,0.01l-0 0 0 0c0.11,0.27 3.48,8.36 7.55,6.55z"/>
     <path class="fil0" d="M151.73 46.74c4.04,-3.85 -0.84,-5.81 -1.41,-6.02 0.48,-0.34 5.08,-3.73 -0.73,-6.33 -5.3,-2.38 -9.88,7.26 -10.04,7.6l-0.02 0c0,0 0.01,0.01 0.01,0.01l-0 0 0.01 -0c0.26,0.29 7.97,8.76 12.18,4.75z"/>
     <path class="fil0" d="M162.63 79.11c4.04,-3.85 -0.85,-5.81 -1.41,-6.02 0.48,-0.34 5.08,-3.73 -0.73,-6.33 -5.3,-2.38 -9.88,7.26 -10.04,7.6l-0.01 0c0,0 0.01,0.01 0.01,0.01l-0 0 0.01 -0c0.26,0.29 7.97,8.76 12.18,4.75z"/>
     <path class="fil0" d="M185.98 54.71c2.58,-7.74 -5.07,-6.93 -5.95,-6.81 0.39,-0.77 4,-8.3 -5.28,-7.68 -8.47,0.57 -7.79,16.14 -7.76,16.69l-0.02 0.01c0,0 0.01,0.01 0.02,0.01l0 0.01 0.01 -0c0.53,0.19 16.29,5.85 18.98,-2.22z"/>
     <path class="fil0" d="M133.48 74.59c4.24,-0.48 2.17,-3.93 1.92,-4.32 0.45,0.02 4.82,0.07 2.48,-4.2 -2.14,-3.9 -9.37,-0.14 -9.63,-0.01l-0.01 -0.01c0,0 0,0.01 0,0.01l-0 0 0 0c0.02,0.29 0.81,9.02 5.23,8.52z"/>
     <path class="fil0" d="M203.69 41.35c0.87,-4.18 -3.06,-3.29 -3.51,-3.18 0.16,-0.42 1.57,-4.56 -3.21,-3.67 -4.37,0.81 -3.06,8.86 -3.01,9.15l-0.01 0.01c0,0 0.01,0 0.01,0l0 0 0 -0c0.29,0.07 8.82,2.04 9.72,-2.31z"/>
     <path class="fil0" d="M280.16 18.77c-1.23,-5.73 -5.67,-2.43 -6.17,-2.04 -0.04,-0.62 -0.56,-6.6 -6.07,-2.82 -5.03,3.45 1.09,12.83 1.31,13.16l-0.01 0.01c0,0 0.01,-0 0.01,-0l0 0 0 -0c0.4,-0.08 12.21,-2.34 10.92,-8.31z"/>
     <path class="fil0" d="M120.4 87.36c5.25,2.5 5.34,-2.98 5.34,-3.61 0.51,0.34 5.52,3.56 5.89,-3.06 0.34,-6.04 -10.73,-6.92 -11.12,-6.95l-0.01 -0.01c0,0 -0.01,0.01 -0.01,0.01 -0,-0 -0,-0 -0,-0l0 0c-0.18,0.36 -5.56,11.01 -0.1,13.61z"/>
     <path class="fil0" d="M135.13 43.21c2.47,-2.59 -0.72,-3.7 -1.09,-3.82 0.3,-0.23 3.14,-2.55 -0.67,-4.04 -3.47,-1.36 -6.1,4.96 -6.2,5.18l-0.01 0c0,0 0,0 0.01,0.01l-0 0 0 -0c0.18,0.18 5.38,5.36 7.96,2.66z"/>
     <path class="fil0" d="M112.86 29.04c-1.43,-2.31 -2.85,-0.18 -3.01,0.07 -0.11,-0.26 -1.27,-2.79 -3.09,-0.28 -1.66,2.29 2.48,5.43 2.62,5.54l0 0.01c0,0 0,-0 0.01,-0l0 0 0 -0c0.16,-0.1 4.96,-2.92 3.47,-5.33z"/>
     <path class="fil0" d="M125.18 1.31c-1.43,-2.31 -2.85,-0.18 -3.01,0.07 -0.11,-0.26 -1.27,-2.79 -3.09,-0.28 -1.66,2.29 2.48,5.43 2.62,5.54l-0 0.01c0,0 0,-0 0.01,-0l0 0 0 -0c0.16,-0.09 4.96,-2.92 3.47,-5.33z"/>
     <path class="fil0" d="M115.26 5.6c-1.43,-2.31 -2.85,-0.18 -3.01,0.07 -0.11,-0.26 -1.27,-2.79 -3.09,-0.28 -1.66,2.29 2.47,5.43 2.62,5.54l-0 0.01c0,0 0,-0 0.01,-0l0 0 0 -0c0.16,-0.1 4.96,-2.92 3.47,-5.33z"/>
     <path class="fil0" d="M115.15 71.86c3.16,2.08 3.71,-1.44 3.77,-1.85 0.3,0.27 3.24,2.79 4.07,-1.45 0.76,-3.87 -6.3,-5.43 -6.55,-5.48l-0 -0.01c0,0 -0,0.01 -0.01,0.01l-0 -0 0 0c-0.15,0.22 -4.57,6.6 -1.28,8.77z"/>
     <path class="fil0" d="M123.8 63.97c3.75,0.49 2.71,-2.92 2.58,-3.31 0.38,0.11 4.13,1.09 3.03,-3.09 -1.01,-3.81 -8.04,-2.11 -8.29,-2.05l-0.01 -0.01c0,0 -0,0.01 -0,0.01 -0,0 -0,0 -0,0l0 0c-0.04,0.26 -1.22,7.94 2.69,8.45z"/>
     <path class="fil0" d="M103.76 64.41c1.68,3.39 3.94,0.62 4.19,0.3 0.12,0.38 1.4,4.04 4.25,0.8 2.61,-2.96 -2.71,-7.86 -2.9,-8.03l0 -0.01c0,0 -0.01,0 -0.01,0l-0 -0 -0 0c-0.24,0.11 -7.27,3.4 -5.52,6.93z"/>
     <path class="fil0" d="M103.76 78.02c1.68,3.39 3.94,0.62 4.19,0.3 0.12,0.38 1.4,4.04 4.25,0.8 2.61,-2.96 -2.71,-7.86 -2.9,-8.03l0 -0.01c0,0 -0.01,0 -0.01,0l-0 -0 -0 0c-0.24,0.11 -7.27,3.4 -5.52,6.93z"/>
     <path class="fil0" d="M113.02 59.99c2.21,1.58 2.7,-0.94 2.75,-1.22 0.21,0.2 2.25,2.09 2.96,-0.93 0.65,-2.75 -4.37,-4.06 -4.55,-4.1l-0 -0.01c0,0 -0,0 -0,0.01l-0 -0 0 0c-0.11,0.15 -3.46,4.61 -1.15,6.25z"/>
     <path class="fil0" d="M104.26 88.42c1.4,2.33 2.85,0.21 3.01,-0.03 0.11,0.27 1.24,2.81 3.09,0.32 1.69,-2.27 -2.4,-5.46 -2.55,-5.57l0 -0.01c0,0 -0,0 -0.01,0l-0 -0 -0 0c-0.16,0.09 -5,2.86 -3.54,5.28z"/>
     <path class="fil0" d="M83.02 62.95c-0.8,3.7 2.69,2.94 3.08,2.84 -0.14,0.37 -1.43,4.03 2.82,3.28 3.88,-0.69 2.78,-7.84 2.74,-8.09l0.01 -0.01c0,0 -0.01,-0 -0.01,-0 0,-0 0,-0 0,-0l-0 0c-0.25,-0.06 -7.81,-1.88 -8.64,1.97z"/>
     <path class="fil0" d="M93.5 68.17c0.9,3.68 3.7,1.47 4.02,1.2 0.04,0.4 0.48,4.25 3.97,1.71 3.19,-2.32 -0.94,-8.26 -1.08,-8.47l0 -0.01c0,0 -0.01,0 -0.01,0l-0 -0 -0 0c-0.26,0.06 -7.84,1.73 -6.9,5.56z"/>
     <path class="fil0" d="M70.11 70.85c-1.66,5.13 3.39,4.54 3.97,4.46 -0.25,0.51 -2.59,5.51 3.53,5.04 5.59,-0.43 5.04,-10.71 5.02,-11.07l0.01 -0.01c0,0 -0.01,-0 -0.01,-0 0,-0 0,-0 0,-0l-0 0c-0.35,-0.12 -10.8,-3.76 -12.52,1.58z"/>
     <path class="fil0" d="M87.25 79.77c1.1,4.49 4.52,1.79 4.91,1.47 0.04,0.49 0.59,5.19 4.85,2.09 3.89,-2.83 -1.14,-10.09 -1.32,-10.34l0.01 -0.01c0,0 -0.01,0 -0.01,0 -0,-0 -0,-0 -0,-0l-0 0c-0.31,0.07 -9.57,2.12 -8.43,6.79z"/>
     <path class="fil0" d="M85.85 49.64c-2.56,2.79 0.84,3.89 1.23,4.01 -0.31,0.25 -3.26,2.76 0.79,4.25 3.7,1.36 6.35,-5.37 6.44,-5.61l0.01 -0c0,0 -0.01,-0 -0.01,-0.01 0,-0 0,-0 0,-0l-0 0c-0.19,-0.18 -5.8,-5.55 -8.46,-2.65z"/>
     <path class="fil0" d="M73.72 51.57c-2.56,2.79 0.84,3.89 1.23,4.01 -0.31,0.25 -3.26,2.76 0.79,4.25 3.7,1.36 6.35,-5.37 6.44,-5.61l0.01 -0c0,0 -0.01,-0.01 -0.01,-0.01l0 -0 -0 0c-0.19,-0.18 -5.8,-5.56 -8.46,-2.65z"/>
     <path class="fil0" d="M63.19 57.47c-2.55,2.79 0.84,3.89 1.23,4.01 -0.31,0.25 -3.26,2.76 0.79,4.25 3.7,1.36 6.35,-5.37 6.44,-5.61l0.01 -0c0,0 -0.01,-0.01 -0.01,-0.01l0 -0 -0 0c-0.19,-0.18 -5.8,-5.55 -8.46,-2.65z"/>
     <path class="fil0" d="M75.61 35.34c-3.73,3.77 0.96,5.5 1.51,5.69 -0.45,0.33 -4.72,3.69 0.87,6 5.11,2.11 9.19,-7.18 9.33,-7.5l0.01 -0c0,0 -0.01,-0.01 -0.01,-0.01 0,-0 0,-0 0,-0l-0 0c-0.26,-0.27 -7.82,-8.1 -11.71,-4.17z"/>
     <path class="fil0" d="M63.14 24.4c-4.92,1.99 -1.29,5.43 -0.87,5.82 -0.55,0.13 -5.8,1.52 -1.57,5.85 3.86,3.96 11.28,-2.95 11.53,-3.2l0.01 0c0,0 -0,-0.01 -0,-0.01 0,-0 0,-0 0,-0l-0 -0c-0.13,-0.35 -3.98,-10.53 -9.1,-8.46z"/>
     <path class="fil0" d="M93.32 56.67c-0.67,2.63 1.85,2.18 2.13,2.12 -0.11,0.26 -1.13,2.85 1.93,2.42 2.8,-0.39 2.2,-5.54 2.18,-5.72l0.01 -0c0,0 -0.01,-0 -0.01,-0 0,-0 0,-0 0,-0l-0 0c-0.18,-0.05 -5.55,-1.56 -6.25,1.18z"/>
     <path class="fil0" d="M90.42 40.94c-2.29,1.46 -0.13,2.86 0.11,3.01 -0.26,0.12 -2.77,1.31 -0.24,3.09 2.31,1.62 5.39,-2.55 5.5,-2.7l0.01 0c0,0 -0,-0 -0,-0.01l0 -0 -0 0c-0.1,-0.16 -2.99,-4.92 -5.38,-3.4z"/>
     <path class="fil0" d="M80.67 23.74c-3.15,0.56 -1.44,3.04 -1.23,3.32 -0.34,0.01 -3.61,0.18 -1.66,3.26 1.78,2.81 7.02,-0.34 7.2,-0.45l0.01 0c0,0 0,-0.01 -0,-0.01 0,0 0,-0 0,-0l-0 -0c-0.03,-0.22 -1.04,-6.71 -4.32,-6.12z"/>
     <path class="fil0" d="M68.28 43.83c-2.29,1.46 -0.14,2.86 0.11,3.01 -0.26,0.12 -2.77,1.31 -0.24,3.09 2.31,1.63 5.39,-2.55 5.5,-2.7l0.01 0c0,0 -0,-0 -0,-0.01 0,-0 0,-0 0,-0l-0 0c-0.1,-0.16 -3,-4.92 -5.38,-3.4z"/>
    </g>
    <g>
     <path class="fil0" d="M153.51 127.32c0,-3.17 -2.57,-5.73 -5.73,-5.73 -3.17,0 -5.73,2.57 -5.73,5.73 0,3.16 2.57,5.73 5.73,5.73 3.17,0 5.73,-2.57 5.73,-5.73z"/>
     <path class="fil0" d="M153.43 108.79c-1.39,-2.06 -2.62,-0.06 -2.75,0.17 -0.11,-0.24 -1.26,-2.51 -2.84,-0.15 -1.44,2.15 2.45,4.88 2.59,4.97l0 0.01c0,0 0,-0 0,-0 0,0 0,0 0,0l0 -0c0.15,-0.09 4.44,-2.84 2.99,-4.99z"/>
     <path class="fil0" d="M139.48 98.76c-2.07,-1.38 -2.44,0.94 -2.48,1.2 -0.2,-0.18 -2.12,-1.84 -2.68,0.94 -0.51,2.54 4.13,3.58 4.29,3.61l0 0.01c0,0 0,-0 0,-0.01l0 0 -0 -0c0.1,-0.14 3.02,-4.32 0.86,-5.76z"/>
     <path class="fil0" d="M147.1 103.35c-1.39,-2.06 -2.62,-0.06 -2.75,0.17 -0.11,-0.24 -1.26,-2.51 -2.84,-0.15 -1.44,2.15 2.45,4.88 2.59,4.97l0 0.01c0,0 0,-0 0.01,-0 0,0 0,0 0,0l0 -0c0.15,-0.09 4.44,-2.85 2.99,-4.99z"/>
     <path class="fil0" d="M163.31 107.11c-0.83,-3.35 -3.38,-1.32 -3.66,-1.08 -0.03,-0.36 -0.45,-3.87 -3.62,-1.54 -2.89,2.12 0.88,7.52 1.01,7.71l-0 0.01c0,0 0.01,-0 0.01,-0 0,0 0,0 0,0l0 -0c0.23,-0.05 7.13,-1.6 6.27,-5.09z"/>
     <path class="fil0" d="M146.19 111.38c-2.15,-1.24 -2.38,1.09 -2.4,1.36 -0.21,-0.16 -2.23,-1.7 -2.62,1.11 -0.35,2.56 4.34,3.31 4.51,3.34l0 0.01c0,0 0,-0 0,-0l0 0 0 -0c0.09,-0.15 2.74,-4.5 0.5,-5.8z"/>
     <path class="fil0" d="M138.5 107.27c-2.94,-1 -2.65,1.91 -2.61,2.24 -0.29,-0.15 -3.15,-1.55 -2.94,1.99 0.19,3.23 6.12,3.01 6.33,3l0 0.01c0,0 0,-0 0,-0.01l0 0 -0 -0c0.08,-0.2 2.27,-6.18 -0.79,-7.23z"/>
     <path class="fil0" d="M128.62 102.72c-3.07,-0.45 -2.25,2.37 -2.15,2.68 -0.31,-0.1 -3.38,-0.94 -2.52,2.49 0.78,3.14 6.57,1.83 6.77,1.78l0.01 0.01c0,0 0,-0 0,-0.01l0 -0 -0 -0c0.04,-0.21 1.09,-6.49 -2.11,-6.96z"/>
     <path class="fil0" d="M138.2 116.05c-2.47,0.3 -1.24,2.3 -1.1,2.53 -0.26,-0.01 -2.81,-0.01 -1.42,2.46 1.26,2.26 5.46,0.03 5.61,-0.05l0.01 0c0,0 -0,-0 -0,-0.01l0 -0 -0 -0c-0.02,-0.17 -0.52,-5.25 -3.09,-4.93z"/>
     <path class="fil0" d="M158.45 116.18c-0.16,-2.48 -2.23,-1.37 -2.46,-1.24 0.02,-0.26 0.17,-2.8 -2.37,-1.56 -2.33,1.13 -0.34,5.45 -0.27,5.6l-0 0.01c0,0 0,-0 0.01,-0 0,0 0,0 0,0l0 -0c0.17,-0.01 5.27,-0.22 5.1,-2.81z"/>
     <path class="fil0" d="M166.29 115.67c-0.16,-2.48 -2.23,-1.37 -2.46,-1.24 0.02,-0.26 0.17,-2.8 -2.37,-1.56 -2.33,1.13 -0.34,5.45 -0.27,5.6l-0 0.01c0,0 0,0 0.01,0l0 0 0 -0c0.17,-0.01 5.27,-0.22 5.1,-2.81z"/>
     <path class="fil0" d="M172.19 106.57c-0.16,-2.48 -2.23,-1.37 -2.46,-1.24 0.02,-0.26 0.17,-2.8 -2.37,-1.56 -2.33,1.13 -0.34,5.45 -0.27,5.6l-0 0.01c0,0 0,-0 0.01,-0 0,0 0,0 0,0l0 -0c0.17,-0.01 5.27,-0.22 5.1,-2.81z"/>
     <path class="fil0" d="M158.81 124.25c0.99,-1.48 -0.67,-1.75 -0.86,-1.78 0.13,-0.14 1.32,-1.52 -0.67,-1.92 -1.82,-0.37 -2.57,2.95 -2.6,3.07l-0 0c0,0 0,0 0,0l0 0 0 0c0.1,0.07 3.1,2.17 4.13,0.63z"/>
     <path class="fil0" d="M173.19 116.37c0.57,-1.69 -1.1,-1.52 -1.29,-1.49 0.09,-0.17 0.88,-1.81 -1.15,-1.68 -1.85,0.12 -1.71,3.52 -1.71,3.64l-0 0c0,0 0,0 0,0 0,0 0,0 0,0l0 -0c0.12,0.04 3.56,1.29 4.15,-0.47z"/>
     <path class="fil0" d="M159.38 131.51c2.15,-0.95 0.49,-2.42 0.3,-2.59 0.24,-0.07 2.54,-0.76 0.61,-2.62 -1.77,-1.7 -4.95,1.48 -5.06,1.59l-0.01 -0c0,0 0,0 0,0.01 -0,0 -0,0 -0,0l0 0c0.06,0.15 1.92,4.61 4.16,3.61z"/>
     <path class="fil0" d="M174.56 140.79c2.15,-0.95 0.49,-2.43 0.3,-2.59 0.24,-0.07 2.54,-0.76 0.61,-2.62 -1.77,-1.69 -4.95,1.48 -5.06,1.59l-0.01 -0c0,0 0,0 0,0.01 -0,0 -0,0 -0,0l0 0c0.06,0.15 1.92,4.6 4.16,3.61z"/>
     <path class="fil0" d="M167.9 135.14c2.56,-1.14 0.59,-2.89 0.35,-3.09 0.29,-0.08 3.03,-0.91 0.73,-3.12 -2.1,-2.02 -5.9,1.76 -6.03,1.89l-0.01 -0c0,0 0,0 0,0.01l-0 0 0 0c0.07,0.18 2.29,5.49 4.96,4.31z"/>
     <path class="fil0" d="M177.24 128.14c2.65,-2.53 -0.56,-3.82 -0.93,-3.96 0.32,-0.22 3.34,-2.45 -0.48,-4.16 -3.48,-1.56 -6.49,4.77 -6.59,4.99l-0.01 0c0,0 0,0.01 0.01,0.01l-0 0 0 -0c0.17,0.19 5.23,5.75 8,3.12z"/>
     <path class="fil0" d="M165.26 146.43c2.78,-0.32 1.43,-2.58 1.26,-2.84 0.3,0.01 3.17,0.04 1.63,-2.76 -1.4,-2.56 -6.16,-0.09 -6.32,-0l-0.01 -0.01c0,0 0,0.01 0,0.01l-0 0 0 0c0.02,0.19 0.53,5.92 3.44,5.59z"/>
     <path class="fil0" d="M156.67 154.82c3.44,1.64 3.51,-1.96 3.5,-2.37 0.34,0.23 3.62,2.34 3.87,-2.01 0.22,-3.97 -7.05,-4.54 -7.3,-4.56l-0 -0.01c0,0 -0,0.01 -0,0.01l-0 0 0 0c-0.12,0.24 -3.65,7.23 -0.06,8.94z"/>
     <path class="fil0" d="M166.34 125.83c1.62,-1.7 -0.48,-2.43 -0.72,-2.51 0.2,-0.15 2.06,-1.68 -0.44,-2.65 -2.28,-0.89 -4.01,3.26 -4.07,3.4l-0.01 0c0,0 0,0 0,0.01l-0 0 0 -0c0.12,0.12 3.53,3.52 5.22,1.75z"/>
     <path class="fil0" d="M151.72 116.52c-0.94,-1.52 -1.88,-0.12 -1.98,0.05 -0.07,-0.17 -0.84,-1.83 -2.03,-0.19 -1.09,1.5 1.62,3.56 1.72,3.64l0 0c0,0 0,-0 0,-0l0 0 0 -0c0.11,-0.06 3.26,-1.92 2.28,-3.5z"/>
     <path class="fil0" d="M159.81 98.31c-0.94,-1.52 -1.87,-0.12 -1.97,0.05 -0.08,-0.17 -0.84,-1.83 -2.03,-0.19 -1.09,1.5 1.63,3.57 1.72,3.64l0 0c0,0 0,-0 0,-0l0 0 0 -0c0.11,-0.06 3.26,-1.92 2.28,-3.5z"/>
     <path class="fil0" d="M153.3 101.13c-0.94,-1.52 -1.87,-0.12 -1.98,0.05 -0.07,-0.17 -0.84,-1.83 -2.03,-0.19 -1.09,1.5 1.63,3.57 1.72,3.64l0 0.01 0 -0 0 0 0 -0c0.11,-0.06 3.26,-1.92 2.28,-3.5z"/>
     <path class="fil0" d="M153.22 144.65c2.07,1.37 2.44,-0.95 2.47,-1.21 0.19,0.18 2.13,1.83 2.68,-0.95 0.5,-2.54 -4.14,-3.56 -4.3,-3.6l-0 -0.01c0,0 -0,0 -0,0.01l-0 0 0 0c-0.1,0.14 -3,4.33 -0.84,5.76z"/>
     <path class="fil0" d="M158.91 139.46c2.46,0.32 1.78,-1.92 1.69,-2.17 0.25,0.07 2.72,0.71 1.99,-2.03 -0.66,-2.5 -5.28,-1.39 -5.44,-1.35l-0.01 -0c0,0 -0,0 -0,0.01l-0 0 0 0c-0.03,0.17 -0.8,5.21 1.77,5.55z"/>
     <path class="fil0" d="M145.75 139.75c1.1,2.23 2.58,0.41 2.75,0.2 0.08,0.25 0.92,2.65 2.79,0.53 1.71,-1.94 -1.78,-5.16 -1.9,-5.27l0 -0.01c0,0 -0,0 -0.01,0l-0 -0 0 0c-0.16,0.07 -4.78,2.23 -3.63,4.55z"/>
     <path class="fil0" d="M145.75 148.69c1.1,2.23 2.58,0.41 2.75,0.2 0.08,0.25 0.92,2.65 2.79,0.53 1.71,-1.94 -1.78,-5.16 -1.9,-5.27l0 -0.01c0,0 -0,0 -0.01,0l-0 -0 0 0c-0.16,0.07 -4.78,2.23 -3.63,4.55z"/>
     <path class="fil0" d="M151.82 136.85c1.45,1.04 1.77,-0.61 1.81,-0.8 0.13,0.13 1.48,1.37 1.94,-0.61 0.43,-1.81 -2.87,-2.66 -2.99,-2.69l-0 -0c0,0 -0,0 -0,0l-0 0 0 0c-0.08,0.1 -2.27,3.03 -0.76,4.11z"/>
     <path class="fil0" d="M146.07 155.52c0.92,1.53 1.87,0.14 1.98,-0.02 0.07,0.17 0.81,1.84 2.03,0.21 1.11,-1.49 -1.58,-3.59 -1.67,-3.66l0 -0c0,0 -0,0 -0,0l-0 0 -0 0c-0.11,0.06 -3.28,1.88 -2.33,3.47z"/>
     <path class="fil0" d="M132.12 138.79c-0.53,2.43 1.76,1.93 2.02,1.87 -0.09,0.25 -0.94,2.65 1.85,2.15 2.55,-0.45 1.83,-5.15 1.8,-5.31l0.01 -0.01c0,0 -0,0 -0.01,0 0,-0 -0,-0 -0,-0l-0 0c-0.17,-0.04 -5.13,-1.23 -5.68,1.3z"/>
     <path class="fil0" d="M139.01 142.22c0.59,2.41 2.43,0.96 2.64,0.79 0.02,0.26 0.32,2.79 2.61,1.12 2.09,-1.52 -0.61,-5.43 -0.71,-5.56l0 -0.01c0,0 -0,0 -0.01,0l-0 -0 -0 0c-0.17,0.04 -5.15,1.14 -4.53,3.65z"/>
     <path class="fil0" d="M123.65 143.98c-1.09,3.37 2.23,2.99 2.61,2.93 -0.17,0.34 -1.7,3.62 2.32,3.31 3.67,-0.28 3.31,-7.03 3.3,-7.27l0.01 -0.01c0,0 -0.01,-0 -0.01,-0l0 -0 -0 0c-0.23,-0.08 -7.09,-2.47 -8.22,1.04z"/>
     <path class="fil0" d="M134.9 149.84c0.72,2.95 2.97,1.18 3.22,0.97 0.03,0.32 0.39,3.41 3.18,1.37 2.56,-1.86 -0.75,-6.62 -0.87,-6.79l0 -0.01c0,0 -0.01,0 -0.01,0l-0 -0 -0 0c-0.21,0.04 -6.29,1.39 -5.53,4.46z"/>
     <path class="fil0" d="M133.98 130.05c-1.68,1.83 0.55,2.56 0.81,2.63 -0.2,0.16 -2.14,1.81 0.52,2.79 2.43,0.89 4.17,-3.53 4.23,-3.68l0 -0c0,0 -0,-0 -0,-0 0,-0 0,-0 0,-0l-0 0c-0.13,-0.12 -3.81,-3.65 -5.56,-1.74z"/>
     <path class="fil0" d="M126.02 131.32c-1.68,1.83 0.55,2.56 0.81,2.63 -0.2,0.17 -2.14,1.81 0.52,2.79 2.43,0.89 4.17,-3.53 4.23,-3.68l0.01 -0c0,0 -0,-0 -0,-0 0,-0 0,-0 0,-0l-0 0c-0.12,-0.12 -3.81,-3.65 -5.56,-1.74z"/>
     <path class="fil0" d="M119.1 135.19c-1.68,1.83 0.55,2.56 0.81,2.63 -0.2,0.17 -2.14,1.81 0.52,2.79 2.43,0.89 4.17,-3.53 4.23,-3.68l0.01 0c0,0 -0,-0 -0,-0.01l0 -0 -0 0c-0.12,-0.12 -3.81,-3.65 -5.56,-1.74z"/>
     <path class="fil0" d="M127.26 120.66c-2.45,2.48 0.63,3.61 0.99,3.73 -0.29,0.22 -3.1,2.42 0.57,3.94 3.35,1.39 6.03,-4.71 6.13,-4.93l0.01 -0c0,0 -0,-0 -0.01,-0.01 0,-0 0,-0 0,-0l-0 0c-0.17,-0.17 -5.14,-5.32 -7.69,-2.74z"/>
     <path class="fil0" d="M119.07 113.48c-3.23,1.31 -0.85,3.57 -0.57,3.82 -0.36,0.09 -3.81,1 -1.03,3.84 2.53,2.6 7.41,-1.94 7.58,-2.1l0.01 0c0,0 -0,-0.01 -0,-0.01 0,-0 0,-0 0,-0l-0 -0c-0.08,-0.23 -2.61,-6.92 -5.98,-5.56z"/>
     <path class="fil0" d="M138.89 134.67c-0.44,1.73 1.21,1.43 1.4,1.39 -0.07,0.17 -0.74,1.87 1.27,1.59 1.84,-0.25 1.45,-3.64 1.43,-3.76l0 -0c0,0 -0,-0 -0,-0l0 -0 -0 0c-0.12,-0.03 -3.64,-1.02 -4.1,0.78z"/>
     <path class="fil0" d="M136.99 124.34c-1.5,0.96 -0.09,1.87 0.08,1.97 -0.17,0.08 -1.82,0.86 -0.16,2.03 1.52,1.07 3.54,-1.68 3.61,-1.77l0 0c0,0 -0,-0 -0,-0l0 -0 -0 -0c-0.06,-0.11 -1.97,-3.23 -3.53,-2.23z"/>
     <path class="fil0" d="M130.58 113.04c-2.07,0.37 -0.94,2 -0.81,2.18 -0.22,0.01 -2.37,0.12 -1.09,2.14 1.17,1.85 4.61,-0.23 4.73,-0.3l0 0c0,0 0,-0 -0,-0.01 0,0 0,-0 0,-0l-0 -0c-0.02,-0.14 -0.68,-4.4 -2.84,-4.02z"/>
     <path class="fil0" d="M122.44 126.24c-1.5,0.96 -0.09,1.87 0.07,1.97 -0.17,0.08 -1.82,0.86 -0.16,2.03 1.52,1.07 3.54,-1.68 3.61,-1.77l0 0c0,0 -0,-0 -0,-0 0,-0 0,-0 0,-0l-0 0c-0.06,-0.11 -1.97,-3.23 -3.53,-2.23z"/>
    </g>
   </g>
  </g>
 </g>
</svg>
