<?xml version="1.0" encoding="UTF-8"?>
<!DOCTYPE svg PUBLIC "-//W3C//DTD SVG 1.1//EN" "http://www.w3.org/Graphics/SVG/1.1/DTD/svg11.dtd">
<!-- Creator: CorelDRAW -->
<svg xmlns="http://www.w3.org/2000/svg" xml:space="preserve" width="57.8498mm" height="30.8528mm" version="1.1" style="shape-rendering:geometricPrecision; text-rendering:geometricPrecision; image-rendering:optimizeQuality; fill-rule:evenodd; clip-rule:evenodd"
viewBox="0 0 400 213.33"
 xmlns:xlink="http://www.w3.org/1999/xlink"
 xmlns:xodm="http://www.corel.com/coreldraw/odm/2003">
 <defs>
  <style type="text/css">
   <![CDATA[
    .fil1 {fill:#CCCCCC;fill-rule:nonzero}
    .fil0 {fill:white;fill-rule:nonzero}
    .fil3 {fill:url(#id0);fill-rule:nonzero}
    .fil2 {fill:url(#id1);fill-rule:nonzero}
    .fil4 {fill:url(#id2);fill-rule:nonzero}
   ]]>
  </style>
  <linearGradient id="id0" gradientUnits="objectBoundingBox" x1="50.9374%" y1="0%" x2="49.0627%" y2="100.963%">
   <stop offset="0" style="stop-opacity:1; stop-color:#A26A2D"/>
   <stop offset="0.54902" style="stop-opacity:1; stop-color:#EBB750"/>
   <stop offset="1" style="stop-opacity:1; stop-color:#A26A2D"/>
  </linearGradient>
  <linearGradient id="id1" gradientUnits="objectBoundingBox" xlink:href="#id0" x1="50.9374%" y1="0%" x2="49.0627%" y2="100.963%">
  </linearGradient>
  <linearGradient id="id2" gradientUnits="objectBoundingBox" xlink:href="#id0" x1="51.6045%" y1="0%" x2="48.3956%" y2="100.818%">
  </linearGradient>
 </defs>
 <g id="__x0023_Layer_x0020_1">
  <metadata id="CorelCorpID_0Corel-Layer"/>
  <path class="fil0" d="M62.03 90.2c-9.39,6.82 -18.9,10.22 -28.54,10.22 -10.15,0 -17.55,-3.57 -22.2,-10.7 -3.3,-5.21 -4.95,-11.01 -4.95,-17.38 0,-6.37 1.23,-12.73 3.68,-19.06 -5.92,-3.77 -9.17,-8.82 -9.77,-15.15 -0.17,-1.2 -0.25,-2.4 -0.25,-3.61 0,-9.62 4.35,-17.68 13.06,-24.17 9.3,-6.9 20.3,-10.34 32.98,-10.34 12.68,0 23.19,3.35 31.52,10.04 8.33,6.7 12.49,16.26 12.49,28.68 0,0.8 0,1.6 0,2.41 8.46,-5.29 13.95,-10.34 16.49,-15.15 0.42,-0.88 0.97,-1.26 1.65,-1.14 0.68,0.12 1.02,0.38 1.02,0.78 0,0.4 -0.25,0.96 -0.76,1.68 -4.99,7.46 -11.29,13.47 -18.9,18.04 -0.34,3.77 -1.42,8.3 -3.24,13.59 -1.82,5.29 -4.88,10.76 -9.2,16.42 -4.31,5.65 -9.34,10.6 -15.09,14.85zm20.55 -51.6c0,-13.55 -4.57,-23.57 -13.7,-30.07 -6.09,-4.33 -13.19,-6.49 -21.31,-6.49 -2.37,0 -4.78,0.2 -7.23,0.6 -10.32,1.44 -18.73,5.49 -25.24,12.15 -5.5,5.77 -8.25,12.31 -8.25,19.6 0,6.33 1.82,10.98 5.45,13.95 3.3,-6.65 8.16,-13.39 14.59,-20.21 7.02,-7.46 14.42,-12.03 22.2,-13.71 1.27,-0.24 2.9,-0.36 4.88,-0.36 1.99,0 4.29,0.76 6.91,2.29 0.59,0.32 0.91,0.64 0.95,0.96 0.04,0.32 -0.15,0.56 -0.57,0.72 -0.42,0.16 -1.06,0.1 -1.9,-0.18 -0.85,-0.28 -2.26,-0.42 -4.25,-0.42 -1.99,0 -4.84,0.96 -8.56,2.89 -3.72,1.92 -7.48,4.93 -11.29,9.02 -7.53,8.1 -13.02,15.8 -16.49,23.09 5.33,2.33 11.71,3.49 19.15,3.49 3.3,0 6.81,-0.2 10.53,-0.6 12.09,-1.52 23.38,-4.97 33.87,-10.34 0.17,-2.16 0.25,-4.29 0.25,-6.37zm-1.02 10.58c-14.12,7.14 -29.01,10.7 -44.65,10.7 -7.61,0 -14.29,-1.08 -20.04,-3.25 -2.62,6.49 -3.93,12.11 -3.93,16.84 0,11.06 3.51,18.24 10.53,21.53 3.81,1.68 7.59,2.53 11.35,2.53 3.76,0 7.42,-0.76 10.97,-2.29 7.44,-3.21 14.12,-8.22 20.04,-15.03 5.92,-6.81 10.4,-14.31 13.45,-22.49 1.18,-3.21 1.95,-6.05 2.28,-8.54z"/>
  <path id="_1" class="fil0" d="M125.07 60.38c0,-4.57 -1.99,-6.85 -5.96,-6.85 -0.34,0 -0.68,0 -1.02,0 -1.52,0.16 -2.41,-0.12 -2.66,-0.84 -0.25,-0.72 0.13,-1.2 1.14,-1.44 1.02,-0.24 2.11,-0.28 3.3,-0.12 4.4,0.64 7.4,2.61 9.01,5.89 1.1,2 1.65,3.97 1.65,5.89 0,6.9 -2.66,13.67 -7.99,20.33 -5.33,6.74 -12.22,10.1 -20.68,10.1 -3.13,0 -5.67,-0.84 -7.61,-2.53 -1.95,-1.68 -2.92,-3.93 -2.92,-6.73 0,-3.37 2.03,-9.06 6.09,-17.08 -6.93,12.43 -11.42,19.56 -13.45,21.41 -0.85,0.72 -1.27,0.48 -1.27,-0.72 0,-0.24 0.08,-0.52 0.25,-0.84 2.96,-3.69 8.86,-13.71 17.7,-30.07 8.84,-16.36 15.03,-27.06 18.58,-32.11 2.88,-3.93 5.67,-5.89 8.37,-5.89 0,0 0.04,0 0.13,0l0.63 0c0.08,0 0.82,0.12 2.22,0.36 1.4,0.24 2.43,0.28 3.11,0.12 -2.79,2.81 -7.19,8.42 -13.19,16.84 -14.88,20.93 -22.33,36.56 -22.33,46.91 0,4.25 1.44,6.66 4.31,7.22 0.25,0.08 0.55,0.12 0.89,0.12 2.62,0 5.9,-2.23 9.83,-6.67 3.93,-4.45 7.17,-9.52 9.7,-15.21 1.44,-2.97 2.16,-5.65 2.16,-8.06z"/>
  <path id="_2" class="fil0" d="M175.43 60.5c-1.52,1.44 -3.68,4.71 -6.47,9.8 -2.79,5.09 -4.46,8.9 -5.01,11.43 -0.55,2.53 -0.82,4.57 -0.82,6.13 0,1.56 0.63,2.34 1.9,2.34 1.61,0 3.59,-1.4 5.96,-4.21 3.47,-4.09 6.89,-9.42 10.28,-16 0.34,-0.72 0.72,-1.12 1.14,-1.2 0.68,-0.24 1.02,0 1.02,0.72 0,0.4 -0.13,0.88 -0.38,1.44 -7.78,14.91 -14.33,22.37 -19.66,22.37 -2.45,0 -4.44,-1.12 -5.96,-3.37 -0.76,-1.2 -1.14,-2.81 -1.14,-4.81 0,-2 0.42,-4.45 1.27,-7.34 -6.77,10.34 -12.6,15.51 -17.51,15.51 -1.35,0 -2.58,-0.4 -3.68,-1.2 -2.54,-1.68 -3.81,-4.57 -3.81,-8.66 0,-7.86 3.59,-15.84 10.78,-23.93 4.06,-4.49 9.05,-7.42 14.97,-8.78 1.61,-0.4 3.13,-0.6 4.57,-0.6 3.89,0 7.19,1.28 9.89,3.85 0.84,0.88 1.1,1.72 0.76,2.53 -0.34,0.8 -1.06,1.12 -2.16,0.96 -0.93,-2.89 -2.96,-4.33 -6.09,-4.33 -3.64,0 -8.12,2.73 -13.45,8.18 -3.04,3.21 -5.88,6.98 -8.5,11.31 -3.3,5.21 -4.95,9.38 -4.95,12.51 0,3.13 1.06,4.69 3.17,4.69 5.07,0 11.71,-7.38 19.92,-22.13 1.61,-2.97 2.96,-4.99 4.06,-6.07 1.1,-1.08 2.49,-1.62 4.19,-1.62 0.34,0 1.21,0.12 2.6,0.36 1.4,0.24 2.43,0.28 3.11,0.12z"/>
  <path id="_3" class="fil0" d="M188.24 69.88c-0.08,0.32 -0.47,1.42 -1.14,3.31 -0.68,1.88 -1.25,3.69 -1.71,5.41 -0.47,1.72 -0.7,3.45 -0.7,5.17 0,1.72 0.42,3.33 1.27,4.81 0.85,1.48 2.2,2.23 4.06,2.23 3.05,0 6.01,-1.94 8.88,-5.83 2.88,-3.89 5.92,-8.84 9.13,-14.85 0.68,-1.12 1.31,-1.56 1.9,-1.32 0.42,0.32 0.51,0.74 0.25,1.26 -0.25,0.52 -0.78,1.64 -1.59,3.37 -0.8,1.72 -1.4,2.93 -1.78,3.61 -0.38,0.68 -1.06,1.88 -2.03,3.61 -0.97,1.72 -1.82,3.01 -2.54,3.85 -0.72,0.84 -1.69,1.92 -2.92,3.25 -1.23,1.32 -2.39,2.31 -3.49,2.95 -2.96,1.76 -5.75,2.65 -8.37,2.65 -2.62,0 -4.65,-0.54 -6.09,-1.62 -1.44,-1.08 -2.3,-2.25 -2.6,-3.49 -0.3,-1.24 -0.44,-2.34 -0.44,-3.31 0,-0.96 0.04,-2.21 0.13,-3.73 0.25,-2.57 0.78,-5.05 1.59,-7.46 0.8,-2.41 1.25,-3.77 1.33,-4.09 1.94,-6.66 4.71,-13.91 8.31,-21.77 3.59,-7.86 6.64,-13.77 9.13,-17.74 2.49,-3.97 4.46,-6.67 5.9,-8.12 2.88,-2.89 5.71,-4.33 8.5,-4.33 1.95,0 3.26,1.32 3.93,3.97 0.09,0.48 0.13,1.08 0.13,1.8 0,2.73 -1.02,6.17 -3.05,10.34 -7.27,15.31 -15.94,27.34 -26,36.08zm1.02 -3.85c4.31,-4.17 8.58,-9.42 12.81,-15.76 4.23,-6.33 7.34,-11.73 9.32,-16.18 1.99,-4.45 2.98,-7.48 2.98,-9.08 0,-1.6 -0.3,-2.41 -0.89,-2.41 -0.84,0 -2.45,1.58 -4.82,4.75 -2.37,3.17 -5.56,8.86 -9.58,17.08 -4.02,8.22 -7.29,15.42 -9.83,21.59z"/>
  <path id="_4" class="fil0" d="M234.92 86.11c0,2.57 1.1,3.85 3.3,3.85 3.98,0 9.26,-6.29 15.86,-18.88 0.25,-0.48 0.49,-0.96 0.7,-1.44 0.21,-0.48 0.55,-0.8 1.01,-0.96 0.47,-0.16 0.78,-0.06 0.95,0.3 0.17,0.36 0.09,0.94 -0.25,1.74 -6.77,14.91 -13.62,22.37 -20.55,22.37 -2.28,0 -4.1,-0.96 -5.45,-2.89 -1.35,-1.92 -2.03,-3.83 -2.03,-5.71 0,-1.88 0.21,-3.63 0.63,-5.23 -4.91,7.7 -9.13,12.07 -12.69,13.11 -1.02,0.4 -2.01,0.6 -2.98,0.6 -0.97,0 -1.92,-0.12 -2.85,-0.36 -4.14,-1.04 -6.22,-4.17 -6.22,-9.38 0,-3.53 0.95,-7.44 2.85,-11.73 1.9,-4.29 4.59,-8.4 8.06,-12.33 3.47,-3.93 7.65,-6.57 12.56,-7.94 1.78,-0.56 3.87,-0.84 6.28,-0.84 2.41,0 5.1,0.72 8.05,2.16 5.75,-10.26 10.66,-19.76 14.72,-28.5 1.18,-2.65 2.35,-4.35 3.49,-5.11 1.14,-0.76 2.2,-1.14 3.17,-1.14 0.97,0 1.57,0 1.78,0 0.21,0 1.01,0.1 2.41,0.3 1.4,0.2 2.47,0.26 3.24,0.18 -1.95,1.68 -7.1,9.86 -15.48,24.54 -10.66,18.76 -17.08,31.27 -19.28,37.52 -0.84,2.33 -1.27,4.25 -1.27,5.77zm6.22 -31.63c-1.1,-1.04 -2.64,-1.56 -4.63,-1.56 -1.99,0 -4.76,1.4 -8.31,4.21 -5.67,4.49 -10.36,10.02 -14.08,16.6 -2.45,4.33 -3.68,7.9 -3.68,10.7 0,1.28 0.28,2.45 0.82,3.49 0.55,1.04 1.42,1.56 2.6,1.56 2.88,0 6.43,-2.81 10.66,-8.42 4.23,-5.61 9.77,-14.47 16.62,-26.58z"/>
  <path id="_5" class="fil0" d="M272.09 46.3c-1.18,0.96 -2.49,1.44 -3.93,1.44 -1.44,0 -2.58,-0.48 -3.42,-1.44 -0.85,-0.96 -1.18,-2.12 -1.02,-3.49 0.25,-1.36 0.97,-2.53 2.16,-3.49 1.18,-0.96 2.49,-1.44 3.93,-1.44 1.44,0 2.6,0.48 3.49,1.44 0.89,0.96 1.2,2.12 0.95,3.49 -0.25,1.36 -0.97,2.53 -2.16,3.49zm-12.43 44.14c1.61,0 3.3,-0.76 5.07,-2.29 3.13,-2.97 7.1,-9.02 11.92,-18.16 0.59,-1.2 1.18,-1.56 1.78,-1.08 0.17,0.16 0.25,0.42 0.25,0.78 0,0.36 -0.34,1.24 -1.01,2.65 -0.68,1.4 -1.29,2.67 -1.84,3.79 -0.55,1.12 -1.61,2.95 -3.17,5.47 -1.56,2.53 -2.98,4.47 -4.25,5.83 -3.47,3.77 -6.74,5.65 -9.83,5.65 -3.09,0 -5.31,-0.88 -6.66,-2.65 -1.35,-1.76 -2.03,-3.73 -2.03,-5.89 0,-2.16 0.55,-4.53 1.65,-7.1l8.12 -19.6c0.17,-0.48 0.25,-1.12 0.25,-1.92 0,-0.8 -0.51,-1.84 -1.52,-3.13l6.98 -0.12c1.95,0 3.09,0.34 3.42,1.02 0.34,0.68 0.09,1.74 -0.76,3.19l-10.15 22.49c-1.44,2.97 -2.16,5.49 -2.16,7.58 0,2.33 1.31,3.49 3.93,3.49z"/>
  <path id="_6" class="fil0" d="M315.09 53.64c-10.4,17.32 -15.6,28.62 -15.6,33.92 0,2.08 0.8,3.13 2.41,3.13 4.31,0 10.11,-6.94 17.38,-20.81 0.51,-1.12 1.02,-1.56 1.52,-1.32 0.51,0.24 0.76,0.56 0.76,0.96 0,0.4 -0.17,0.88 -0.51,1.44 -4.48,8.58 -8.27,14.49 -11.35,17.74 -3.09,3.25 -6.17,4.87 -9.26,4.87 -3.09,0 -5.43,-1.12 -7.04,-3.37 -0.85,-1.04 -1.27,-2.47 -1.27,-4.27 0,-1.8 0.42,-3.99 1.27,-6.55 0.84,-2.57 3.17,-6.74 6.98,-12.51 0.93,-1.44 1.4,-2.59 1.4,-3.43 0,-0.84 -0.72,-1.26 -2.16,-1.26 -1.44,0 -4.19,1.8 -8.24,5.41 -6.09,5.29 -11.97,13.23 -17.63,23.81 -0.51,0.8 -1.08,1.3 -1.71,1.5 -0.63,0.2 -1.88,0.34 -3.74,0.42 -1.86,0.08 -3.09,0.28 -3.68,0.6 1.35,-2.57 4.02,-7.82 7.99,-15.76 7.1,-14.03 11.75,-22.05 13.95,-24.05 1.01,-0.96 2.41,-1.44 4.19,-1.44 0.34,0 1.2,0.12 2.6,0.36 1.4,0.24 2.43,0.28 3.11,0.12 -3.13,1.6 -8.24,9.14 -15.35,22.61 3.97,-4.65 7.59,-8.36 10.84,-11.13 3.26,-2.77 7.17,-5.33 11.73,-7.7 4.57,-2.37 7.91,-3.55 10.02,-3.55 0.51,0 0.97,0.08 1.4,0.24z"/>
  <path id="_7" class="fil0" d="M342.36 50.99c6.17,0 9.26,3.69 9.26,11.06 0,3.37 -0.93,6.98 -2.79,10.82 -2.37,5.21 -5.92,9.94 -10.66,14.19 1.1,2 3.09,3.01 5.96,3.01 2.28,0 4.44,-1.08 6.47,-3.25 2.54,-2.49 4.36,-4.67 5.45,-6.55 1.1,-1.88 1.9,-3.27 2.41,-4.15 0.51,-0.88 1.16,-2.14 1.97,-3.79 0.8,-1.64 1.29,-2.65 1.46,-3.01 0.17,-0.36 0.47,-0.54 0.89,-0.54 0.85,-0.08 1.27,0.2 1.27,0.84 0,0.24 -0.09,0.52 -0.25,0.84l-0.76 1.68c-0.51,1.12 -0.89,1.92 -1.14,2.41 -0.25,0.48 -0.7,1.34 -1.33,2.59 -0.63,1.24 -1.18,2.23 -1.65,2.95 -0.46,0.72 -1.1,1.68 -1.9,2.89 -0.8,1.2 -1.52,2.16 -2.16,2.89 -0.63,0.72 -1.42,1.52 -2.35,2.4 -0.93,0.88 -1.82,1.56 -2.66,2.04 -2.11,1.2 -4.1,1.8 -5.96,1.8 -3.47,0 -6.17,-1.04 -8.12,-3.13 -3.89,2.73 -7.48,4.09 -10.78,4.09 -6.17,0 -9.26,-3.69 -9.26,-11.06 0,-3.37 0.93,-6.98 2.79,-10.82 2.54,-5.61 6.11,-10.38 10.72,-14.31 4.61,-3.93 8.99,-5.89 13.13,-5.89zm1.4 3.73c-2.28,0 -4.99,1.44 -8.12,4.33 -3.13,2.89 -5.92,6.82 -8.37,11.79 -2.96,5.77 -4.44,10.5 -4.44,14.19 0,3.69 1.48,5.53 4.44,5.53 2.11,0 4.48,-1.08 7.1,-3.25 -1.35,-1.84 -2.03,-3.81 -2.03,-5.89 0.17,-3.45 1.65,-5.17 4.44,-5.17 1.1,0 2.01,0.36 2.73,1.08 0.72,0.72 1.08,1.38 1.08,1.98 0,0.6 -0.08,1.22 -0.25,1.86 1.44,-2 3.09,-4.85 4.95,-8.54 2.11,-4.09 3.17,-8.1 3.17,-12.03 0,-3.93 -1.56,-5.89 -4.69,-5.89z"/>
  <path class="fil0" d="M201.1 111.94c8.03,-6.01 14.42,-9.02 19.15,-9.02 1.35,0 2.58,0.24 3.68,0.72 2.45,0.96 3.68,2.49 3.68,4.57 0,2.08 -1.27,4.29 -3.81,6.62 -1.52,1.2 -4.02,1.8 -7.48,1.8 -3.47,0 -7.82,-0.6 -13.06,-1.8 -4.14,3.61 -11.59,12.15 -22.33,25.62 -6.93,8.74 -11.52,14.31 -13.76,16.72 -2.24,2.4 -4.25,4.47 -6.03,6.19 -1.78,1.72 -3.34,3.25 -4.69,4.57 -1.35,1.32 -3,2.83 -4.95,4.51 -1.95,1.68 -3.45,2.99 -4.5,3.91 -1.06,0.92 -2.58,2.16 -4.57,3.73 -1.99,1.56 -3.3,2.61 -3.93,3.13 -0.63,0.52 -1.95,1.54 -3.93,3.07 -1.99,1.52 -3.07,2.37 -3.23,2.53 23.17,9.54 39.28,15.15 48.33,16.84 3.3,0.56 6.68,0.84 10.15,0.84 3.47,0 7,-0.26 10.59,-0.78 3.59,-0.52 6.77,-1.78 9.51,-3.79 2.75,-2 4.33,-4.33 4.76,-6.98 0.42,-2.65 1.1,-3.97 2.03,-3.97 0.76,0 1.14,0.6 1.14,1.8 0,1.2 -0.06,2.41 -0.19,3.61 -0.13,1.2 -0.61,2.61 -1.46,4.21 -0.85,1.6 -2.24,3.43 -4.19,5.47 -1.95,2.04 -5.03,3.75 -9.26,5.11 -4.4,1.44 -9.39,2.16 -14.97,2.16 -5.58,0 -13.32,-1.88 -23.21,-5.65 -9.89,-3.77 -18.44,-7.58 -25.62,-11.43l-10.78 -5.77c-8.54,5.77 -15.86,8.66 -21.94,8.66 -1.18,0 -2.33,-0.12 -3.43,-0.36 -5.07,-1.12 -8.29,-3.77 -9.64,-7.94 -0.42,-1.2 -0.63,-2.37 -0.63,-3.49 0,-2.4 1.04,-4.65 3.11,-6.73 2.07,-2.08 5.01,-3.13 8.82,-3.13 1.86,0 3.93,0.28 6.22,0.84 4.4,1.12 10.44,4.01 18.14,8.66 21.99,-24.37 36.28,-40.37 42.88,-47.99 8.54,-9.54 17.55,-17.96 27.02,-25.26 -12.6,-3.29 -24.44,-4.93 -35.52,-4.93 -5.92,0 -11.75,0.52 -17.5,1.56 -3.89,0.96 -7.36,2.57 -10.4,4.81 -3.64,2.81 -5.45,5.63 -5.45,8.48 0,2.85 1.9,5.51 5.71,8 1.95,1.28 2.41,2.08 1.4,2.41 -1.01,0.32 -1.99,0.28 -2.92,-0.12 -1.44,-0.32 -3,-1.36 -4.69,-3.13 -2.54,-2.81 -3.81,-5.85 -3.81,-9.14 0,-3.77 1.48,-7.34 4.44,-10.7 1.86,-2.16 4.82,-4.05 8.88,-5.65 5.33,-2.08 11.54,-3.13 18.65,-3.13 4.82,0 9.58,0.54 14.27,1.62 4.69,1.08 8.24,1.94 10.66,2.59 2.41,0.64 5.79,1.62 10.15,2.95 4.35,1.32 7.21,2.18 8.56,2.59zm4.06 1.08c4.65,1.28 8.25,1.92 10.78,1.92 2.54,0 4.5,-0.42 5.9,-1.26 1.4,-0.84 2.09,-2.43 2.09,-4.75 0,-0.64 -0.27,-1.42 -0.82,-2.35 -0.55,-0.92 -1.54,-1.38 -2.98,-1.38 -3.47,0 -8.46,2.61 -14.97,7.82zm-106.17 72.52c-0.51,0.88 -0.76,1.92 -0.76,3.13 0,1.2 0.87,2.61 2.6,4.21 1.73,1.6 4.59,2.41 8.56,2.41 3.04,0 6.17,-0.62 9.39,-1.86 3.21,-1.24 5.75,-2.63 7.61,-4.15 -1.69,-1.28 -2.96,-2.21 -3.81,-2.77 -6.09,-3.21 -11.18,-4.81 -15.29,-4.81 -4.1,0 -6.87,1.28 -8.31,3.85z"/>
  <path id="_1_0" class="fil0" d="M189.81 175.81c-1.18,2.73 -1.78,5.77 -1.78,9.14 0,2.25 0.53,4.03 1.59,5.35 1.06,1.32 2.56,1.98 4.5,1.98 7.7,0 14.67,-6.86 20.93,-20.57 0.59,-1.28 1.31,-1.84 2.16,-1.68 0.34,0.08 0.51,0.28 0.51,0.6 0,0.32 -0.95,2.43 -2.85,6.31 -1.9,3.89 -3.83,7.04 -5.77,9.44 -4.31,5.61 -9.64,8.42 -15.98,8.42 -3.38,0 -6.26,-1.04 -8.63,-3.13 -2.37,-2.08 -3.55,-4.93 -3.55,-8.54 0,-3.61 0.91,-7.44 2.73,-11.49 1.82,-4.05 4.29,-7.82 7.42,-11.31 3.13,-3.49 6.72,-6.03 10.78,-7.64 1.95,-0.8 3.81,-1.2 5.58,-1.2 1.78,0 3.42,0.48 4.95,1.44 1.44,1.12 2.16,2.36 2.16,3.73 0,4.81 -3.04,9.42 -9.13,13.83 -1.86,1.36 -4.48,2.59 -7.87,3.67 -3.38,1.08 -5.96,1.62 -7.74,1.62zm21.31 -19.24c0,-1.6 -0.68,-2.41 -2.03,-2.41 -2.37,0 -5.96,2.77 -10.78,8.3 -2.88,3.37 -5.41,7.14 -7.61,11.31 1.44,0 3.53,-0.48 6.28,-1.44 2.75,-0.96 5.14,-2.25 7.17,-3.85 4.65,-3.77 6.98,-7.74 6.98,-11.91z"/>
  <path id="_2_1" class="fil0" d="M222.41 171.12c-0.08,0.32 -0.47,1.42 -1.14,3.31 -0.68,1.88 -1.25,3.69 -1.71,5.41 -0.47,1.72 -0.7,3.45 -0.7,5.17 0,1.72 0.42,3.33 1.27,4.81 0.85,1.48 2.2,2.23 4.06,2.23 3.05,0 6.01,-1.94 8.88,-5.83 2.88,-3.89 5.92,-8.84 9.13,-14.85 0.68,-1.12 1.31,-1.56 1.9,-1.32 0.42,0.32 0.51,0.74 0.25,1.26 -0.25,0.52 -0.78,1.64 -1.59,3.37 -0.8,1.72 -1.4,2.93 -1.78,3.61 -0.38,0.68 -1.06,1.88 -2.03,3.61 -0.97,1.72 -1.82,3.01 -2.54,3.85 -0.72,0.84 -1.69,1.92 -2.92,3.25 -1.23,1.32 -2.39,2.31 -3.49,2.95 -2.96,1.76 -5.75,2.65 -8.37,2.65 -2.62,0 -4.65,-0.54 -6.09,-1.62 -1.44,-1.08 -2.3,-2.25 -2.6,-3.49 -0.3,-1.24 -0.44,-2.34 -0.44,-3.31 0,-0.96 0.04,-2.21 0.13,-3.73 0.25,-2.57 0.78,-5.05 1.58,-7.46 0.8,-2.41 1.25,-3.77 1.33,-4.09 1.95,-6.66 4.71,-13.91 8.31,-21.77 3.59,-7.86 6.64,-13.77 9.13,-17.74 2.49,-3.97 4.46,-6.67 5.9,-8.12 2.88,-2.89 5.71,-4.33 8.5,-4.33 1.95,0 3.26,1.32 3.93,3.97 0.08,0.48 0.13,1.08 0.13,1.8 0,2.73 -1.02,6.17 -3.05,10.34 -7.27,15.31 -15.94,27.34 -26,36.08zm1.02 -3.85c4.31,-4.17 8.58,-9.42 12.81,-15.76 4.23,-6.33 7.34,-11.73 9.32,-16.18 1.99,-4.45 2.98,-7.48 2.98,-9.08 0,-1.6 -0.3,-2.41 -0.89,-2.41 -0.84,0 -2.45,1.58 -4.82,4.75 -2.37,3.17 -5.56,8.86 -9.58,17.08 -4.02,8.22 -7.29,15.42 -9.83,21.59z"/>
  <path id="_3_2" class="fil0" d="M259.7 147.54c-1.18,0.96 -2.49,1.44 -3.93,1.44 -1.44,0 -2.58,-0.48 -3.42,-1.44 -0.85,-0.96 -1.18,-2.12 -1.02,-3.49 0.25,-1.36 0.97,-2.53 2.16,-3.49 1.18,-0.96 2.49,-1.44 3.93,-1.44 1.44,0 2.6,0.48 3.49,1.44 0.89,0.96 1.21,2.12 0.95,3.49 -0.25,1.36 -0.97,2.53 -2.16,3.49zm-12.43 44.14c1.61,0 3.3,-0.76 5.07,-2.29 3.13,-2.97 7.1,-9.02 11.92,-18.16 0.59,-1.2 1.18,-1.56 1.78,-1.08 0.17,0.16 0.25,0.42 0.25,0.78 0,0.36 -0.34,1.24 -1.01,2.65 -0.68,1.4 -1.29,2.67 -1.84,3.79 -0.55,1.12 -1.61,2.95 -3.17,5.47 -1.56,2.53 -2.98,4.47 -4.25,5.83 -3.47,3.77 -6.74,5.65 -9.83,5.65 -3.09,0 -5.31,-0.88 -6.66,-2.65 -1.35,-1.76 -2.03,-3.73 -2.03,-5.89 0,-2.16 0.55,-4.53 1.65,-7.1l8.12 -19.6c0.17,-0.48 0.25,-1.12 0.25,-1.92 0,-0.8 -0.51,-1.84 -1.52,-3.13l6.98 -0.12c1.95,0 3.09,0.34 3.42,1.02 0.34,0.68 0.08,1.74 -0.76,3.19l-10.15 22.49c-1.44,2.97 -2.16,5.49 -2.16,7.58 0,2.33 1.31,3.49 3.93,3.49z"/>
  <path id="_4_3" class="fil0" d="M302.71 154.88c-10.4,17.32 -15.6,28.62 -15.6,33.92 0,2.08 0.8,3.13 2.41,3.13 4.31,0 10.1,-6.94 17.38,-20.81 0.51,-1.12 1.02,-1.56 1.52,-1.32 0.51,0.24 0.76,0.56 0.76,0.96 0,0.4 -0.17,0.88 -0.51,1.44 -4.48,8.58 -8.27,14.49 -11.35,17.74 -3.09,3.25 -6.17,4.87 -9.26,4.87 -3.09,0 -5.43,-1.12 -7.04,-3.37 -0.85,-1.04 -1.27,-2.47 -1.27,-4.27 0,-1.8 0.42,-3.99 1.27,-6.55 0.85,-2.57 3.17,-6.74 6.98,-12.51 0.93,-1.44 1.4,-2.59 1.4,-3.43 0,-0.84 -0.72,-1.26 -2.16,-1.26 -1.44,0 -4.19,1.8 -8.24,5.41 -6.09,5.29 -11.97,13.23 -17.63,23.81 -0.51,0.8 -1.08,1.3 -1.71,1.5 -0.63,0.2 -1.88,0.34 -3.74,0.42 -1.86,0.08 -3.09,0.28 -3.68,0.6 1.35,-2.57 4.02,-7.82 7.99,-15.76 7.1,-14.03 11.75,-22.05 13.95,-24.05 1.02,-0.96 2.41,-1.44 4.19,-1.44 0.34,0 1.21,0.12 2.6,0.36 1.4,0.24 2.43,0.28 3.11,0.12 -3.13,1.6 -8.24,9.14 -15.35,22.61 3.97,-4.65 7.59,-8.36 10.85,-11.13 3.26,-2.77 7.17,-5.33 11.73,-7.7 4.57,-2.37 7.91,-3.55 10.02,-3.55 0.51,0 0.97,0.08 1.4,0.24z"/>
  <path id="_5_4" class="fil0" d="M333.66 187.35c0,2.57 1.1,3.85 3.3,3.85 3.97,0 9.26,-6.29 15.86,-18.88 0.25,-0.48 0.49,-0.96 0.7,-1.44 0.21,-0.48 0.55,-0.8 1.01,-0.96 0.47,-0.16 0.78,-0.06 0.95,0.3 0.17,0.36 0.08,0.94 -0.25,1.74 -6.77,14.91 -13.62,22.37 -20.55,22.37 -2.28,0 -4.1,-0.96 -5.45,-2.89 -1.35,-1.92 -2.03,-3.83 -2.03,-5.71 0,-1.88 0.21,-3.63 0.63,-5.23 -4.91,7.7 -9.13,12.07 -12.69,13.11 -1.02,0.4 -2.01,0.6 -2.98,0.6 -0.97,0 -1.92,-0.12 -2.85,-0.36 -4.14,-1.04 -6.22,-4.17 -6.22,-9.38 0,-3.53 0.95,-7.44 2.85,-11.73 1.9,-4.29 4.59,-8.4 8.05,-12.33 3.47,-3.93 7.65,-6.57 12.56,-7.94 1.78,-0.56 3.87,-0.84 6.28,-0.84 2.41,0 5.1,0.72 8.05,2.16 5.75,-10.26 10.66,-19.76 14.72,-28.5 1.18,-2.65 2.35,-4.35 3.49,-5.11 1.14,-0.76 2.2,-1.14 3.17,-1.14 0.97,0 1.57,0 1.78,0 0.21,0 1.01,0.1 2.41,0.3 1.4,0.2 2.47,0.26 3.24,0.18 -1.95,1.68 -7.1,9.86 -15.48,24.54 -10.66,18.76 -17.08,31.27 -19.28,37.52 -0.84,2.33 -1.27,4.25 -1.27,5.77zm6.22 -31.63c-1.1,-1.04 -2.64,-1.56 -4.63,-1.56 -1.99,0 -4.76,1.4 -8.31,4.21 -5.67,4.49 -10.36,10.02 -14.08,16.6 -2.45,4.33 -3.68,7.9 -3.68,10.7 0,1.28 0.28,2.45 0.82,3.49 0.55,1.04 1.42,1.56 2.6,1.56 2.88,0 6.43,-2.81 10.66,-8.42 4.23,-5.61 9.77,-14.47 16.62,-26.58z"/>
  <path id="_6_5" class="fil0" d="M392.01 161.73c-1.52,1.44 -3.68,4.71 -6.47,9.8 -2.79,5.09 -4.46,8.9 -5.01,11.43 -0.55,2.53 -0.82,4.57 -0.82,6.13 0,1.56 0.63,2.34 1.9,2.34 1.61,0 3.59,-1.4 5.96,-4.21 3.47,-4.09 6.89,-9.42 10.28,-16 0.34,-0.72 0.72,-1.12 1.14,-1.2 0.68,-0.24 1.02,0 1.02,0.72 0,0.4 -0.13,0.88 -0.38,1.44 -7.78,14.91 -14.33,22.37 -19.66,22.37 -2.45,0 -4.44,-1.12 -5.96,-3.37 -0.76,-1.2 -1.14,-2.81 -1.14,-4.81 0,-2 0.42,-4.45 1.27,-7.34 -6.77,10.34 -12.6,15.51 -17.51,15.51 -1.35,0 -2.58,-0.4 -3.68,-1.2 -2.54,-1.68 -3.81,-4.57 -3.81,-8.66 0,-7.86 3.59,-15.84 10.78,-23.93 4.06,-4.49 9.05,-7.42 14.97,-8.78 1.61,-0.4 3.13,-0.6 4.57,-0.6 3.89,0 7.19,1.28 9.9,3.85 0.84,0.88 1.1,1.72 0.76,2.53 -0.34,0.8 -1.06,1.12 -2.16,0.96 -0.93,-2.89 -2.96,-4.33 -6.09,-4.33 -3.64,0 -8.12,2.73 -13.45,8.18 -3.04,3.21 -5.88,6.98 -8.5,11.31 -3.3,5.21 -4.95,9.38 -4.95,12.51 0,3.13 1.06,4.69 3.17,4.69 5.07,0 11.71,-7.38 19.92,-22.13 1.61,-2.97 2.96,-4.99 4.06,-6.07 1.1,-1.08 2.49,-1.62 4.19,-1.62 0.34,0 1.21,0.12 2.6,0.36 1.4,0.24 2.43,0.28 3.11,0.12z"/>
  <path class="fil1" d="M173.4 64.96c0,3.82 0.57,7.85 1.69,12.04 1.12,4.19 2.67,8.46 4.63,12.82 4.5,-2.57 8.15,-5.11 10.99,-7.61 2.84,-2.5 5.07,-5.01 6.7,-7.44 1.59,-2.44 2.71,-4.84 3.31,-7.14 0.58,-2.3 0.88,-4.57 0.88,-6.73 0,-2.3 -0.3,-4.5 -0.88,-6.53 -0.61,-2.06 -1.49,-3.86 -2.64,-5.41 -1.15,-1.56 -2.6,-2.81 -4.36,-3.72 -1.72,-0.91 -3.75,-1.39 -6.09,-1.39 -2.37,0 -4.43,0.61 -6.22,1.83 -1.79,1.22 -3.25,2.84 -4.46,4.8 -1.18,2 -2.06,4.26 -2.67,6.8 -0.58,2.54 -0.88,5.11 -0.88,7.68zm8.25 103.7c5.61,0 10.76,-0.88 15.46,-2.67 4.7,-1.79 8.93,-4.16 12.68,-7.14 -3.31,-3.45 -6.7,-7.14 -10.21,-11.16 -3.48,-3.99 -6.9,-8.19 -10.25,-12.58 -3.35,-4.4 -6.53,-8.93 -9.61,-13.63 -3.08,-4.67 -5.85,-9.4 -8.29,-14.17 -3.35,2.91 -6.19,5.72 -8.52,8.46 -2.3,2.71 -4.16,5.38 -5.58,8.05 -1.42,2.67 -2.47,5.38 -3.08,8.05 -0.64,2.67 -0.95,5.38 -0.95,8.15 0,4.63 0.78,8.73 2.37,12.31 1.59,3.55 3.72,6.53 6.36,8.96 2.64,2.4 5.65,4.23 9.06,5.48 3.38,1.25 6.9,1.89 10.55,1.89zm81.08 -65.85c-1.62,2.06 -3.28,3.75 -4.9,5.11 -1.62,1.35 -3.25,2.6 -4.9,3.72 -1.18,-0.58 -2.54,-1.12 -4.06,-1.59 -1.52,-0.44 -3.04,-0.88 -4.6,-1.22 -1.56,-0.37 -3.04,-0.64 -4.5,-0.85 -1.45,-0.2 -2.74,-0.34 -3.89,-0.41 0.74,1.18 1.32,2.3 1.76,3.31 0.41,1.05 0.74,2.13 0.98,3.35 0.24,1.18 0.37,2.47 0.44,3.89 0.07,1.45 0.1,3.11 0.1,5.04 0,4.7 -1.02,9.64 -3.08,14.88 -2.03,5.21 -4.94,10.32 -8.73,15.29 4.57,4.36 8.76,8.05 12.58,11.09 2.54,2.13 5.24,3.55 8.15,4.23 2.91,0.71 6.26,0.58 10.11,-0.34l0.88 4.26c-5.75,2.5 -10.59,4.4 -14.51,5.61 -3.96,1.22 -6.63,1.83 -8.08,1.83 -1.45,0 -3.99,-1.32 -7.64,-3.96 -3.62,-2.64 -7.81,-6.26 -12.58,-10.82 -5.14,4.36 -10.89,7.91 -17.25,10.65 -6.32,2.74 -13.09,4.13 -20.29,4.13 -6.16,0 -11.77,-0.81 -16.84,-2.44 -5.11,-1.62 -9.47,-4.03 -13.09,-7.17 -3.65,-3.18 -6.46,-7.14 -8.49,-11.87 -2,-4.7 -3.01,-10.18 -3.01,-16.4 0,-3.69 0.64,-7.44 1.96,-11.3 1.32,-3.82 3.21,-7.64 5.72,-11.4 2.5,-3.75 5.58,-7.48 9.27,-11.09 3.65,-3.65 7.88,-7.14 12.65,-10.52 -1.93,-4.7 -3.45,-9.3 -4.57,-13.83 -1.12,-4.53 -1.69,-8.96 -1.69,-13.33 0,-5.34 0.88,-10.32 2.67,-14.88 1.79,-4.53 4.19,-8.49 7.17,-11.84 2.98,-3.35 6.43,-5.95 10.28,-7.81 3.89,-1.89 7.91,-2.84 12.11,-2.84 4.23,0 7.78,0.68 10.69,2.03 2.88,1.35 5.21,3.15 6.97,5.41 1.73,2.23 3.01,4.84 3.75,7.78 0.78,2.94 1.15,5.99 1.15,9.17 0,6.93 -2.16,13.43 -6.49,19.48 -4.33,6.05 -10.42,11.53 -18.26,16.4 -1.25,0.81 -2.47,1.59 -3.59,2.33 -1.12,0.78 -2.2,1.52 -3.28,2.23 2.33,4.3 4.9,8.59 7.78,12.89 2.88,4.3 5.92,8.52 9.13,12.68 3.21,4.16 6.49,8.19 9.91,12.11 3.42,3.89 6.8,7.54 10.15,10.99 2.1,-3.31 3.72,-6.63 4.8,-10.01 1.08,-3.38 1.62,-6.53 1.62,-9.5 0,-2.77 -0.47,-5.38 -1.39,-7.85 -0.91,-2.44 -2.13,-4.57 -3.62,-6.39 -1.49,-1.79 -3.18,-3.25 -5.11,-4.3 -1.89,-1.05 -3.82,-1.59 -5.75,-1.59l-2.16 -2.81c0.71,-0.88 1.79,-1.79 3.21,-2.81 1.42,-0.98 2.81,-1.76 4.13,-2.3l43.97 0 2.27 3.55z"/>
  <g id="_2040629105856">
   <path class="fil2" d="M84.9 84.35c-7.6,5.82 -15.3,8.73 -23.1,8.73 -8.21,0 -14.2,-3.05 -17.97,-9.14 -2.67,-4.45 -4,-9.39 -4,-14.84 0,-5.44 0.99,-10.87 2.98,-16.27 -4.79,-3.22 -7.43,-7.53 -7.91,-12.94 -0.14,-1.03 -0.21,-2.05 -0.21,-3.08 0,-8.21 3.52,-15.09 10.57,-20.64 7.53,-5.89 16.43,-8.83 26.69,-8.83 10.27,0 18.77,2.86 25.51,8.57 6.74,5.72 10.11,13.88 10.11,24.49 0,0.68 0,1.37 0,2.05 6.84,-4.52 11.29,-8.83 13.35,-12.94 0.34,-0.75 0.79,-1.08 1.33,-0.98 0.55,0.1 0.82,0.32 0.82,0.67 0,0.34 -0.21,0.82 -0.62,1.44 -4.04,6.37 -9.14,11.5 -15.3,15.4 -0.27,3.22 -1.15,7.08 -2.62,11.6 -1.47,4.52 -3.95,9.19 -7.44,14.01 -3.49,4.83 -7.56,9.05 -12.22,12.68zm16.63 -44.05c0,-11.57 -3.7,-20.12 -11.09,-25.67 -4.93,-3.7 -10.68,-5.54 -17.25,-5.54 -1.92,0 -3.87,0.17 -5.85,0.51 -8.35,1.23 -15.16,4.69 -20.43,10.37 -4.45,4.93 -6.67,10.51 -6.67,16.74 0,5.41 1.47,9.38 4.41,11.91 2.67,-5.68 6.61,-11.43 11.81,-17.25 5.68,-6.37 11.67,-10.27 17.97,-11.7 1.03,-0.21 2.34,-0.31 3.95,-0.31 1.61,0 3.47,0.65 5.6,1.95 0.48,0.27 0.74,0.55 0.77,0.82 0.03,0.27 -0.12,0.48 -0.46,0.62 -0.34,0.14 -0.86,0.09 -1.54,-0.15 -0.68,-0.24 -1.83,-0.36 -3.44,-0.36 -1.61,0 -3.92,0.82 -6.93,2.46 -3.01,1.64 -6.06,4.21 -9.14,7.7 -6.09,6.91 -10.54,13.48 -13.35,19.71 4.31,1.98 9.48,2.98 15.5,2.98 2.67,0 5.51,-0.17 8.52,-0.51 9.79,-1.3 18.93,-4.24 27.41,-8.83 0.14,-1.85 0.21,-3.66 0.21,-5.44zm-0.82 9.04c-11.43,6.09 -23.48,9.14 -36.14,9.14 -6.16,0 -11.57,-0.92 -16.22,-2.77 -2.12,5.54 -3.18,10.34 -3.18,14.37 0,9.45 2.84,15.57 8.52,18.38 3.08,1.44 6.14,2.16 9.19,2.16 3.05,0 6.01,-0.65 8.88,-1.95 6.02,-2.74 11.43,-7.02 16.22,-12.83 4.79,-5.82 8.42,-12.22 10.88,-19.2 0.96,-2.74 1.57,-5.17 1.85,-7.29z"/>
   <path id="_1_6" class="fil2" d="M135.93 58.89c0,-3.9 -1.61,-5.85 -4.83,-5.85 -0.27,0 -0.55,0 -0.82,0 -1.23,0.14 -1.95,-0.1 -2.16,-0.72 -0.21,-0.62 0.1,-1.03 0.92,-1.23 0.82,-0.21 1.71,-0.24 2.67,-0.1 3.56,0.55 5.99,2.23 7.29,5.03 0.89,1.71 1.33,3.39 1.33,5.03 0,5.89 -2.16,11.67 -6.47,17.35 -4.31,5.75 -9.89,8.62 -16.74,8.62 -2.53,0 -4.59,-0.72 -6.16,-2.16 -1.57,-1.44 -2.36,-3.35 -2.36,-5.75 0,-2.88 1.64,-7.73 4.93,-14.58 -5.61,10.61 -9.24,16.7 -10.88,18.27 -0.68,0.62 -1.03,0.41 -1.03,-0.62 0,-0.21 0.07,-0.44 0.21,-0.72 2.4,-3.15 7.17,-11.7 14.32,-25.67 7.15,-13.96 12.17,-23.1 15.04,-27.41 2.33,-3.35 4.59,-5.03 6.78,-5.03 0,0 0.03,0 0.1,0l0.51 0c0.07,0 0.67,0.1 1.8,0.31 1.13,0.21 1.97,0.24 2.52,0.1 -2.26,2.4 -5.82,7.19 -10.68,14.37 -12.05,17.86 -18.07,31.21 -18.07,40.04 0,3.63 1.16,5.68 3.49,6.16 0.21,0.07 0.44,0.1 0.72,0.1 2.12,0 4.77,-1.9 7.96,-5.7 3.18,-3.8 5.8,-8.13 7.85,-12.99 1.16,-2.53 1.75,-4.82 1.75,-6.88z"/>
   <path id="_2_7" class="fil2" d="M176.69 58.99c-1.23,1.23 -2.98,4.02 -5.24,8.37 -2.26,4.35 -3.61,7.6 -4.06,9.75 -0.44,2.16 -0.67,3.9 -0.67,5.24 0,1.33 0.51,2 1.54,2 1.3,0 2.91,-1.2 4.82,-3.59 2.81,-3.49 5.58,-8.04 8.32,-13.65 0.27,-0.62 0.58,-0.96 0.92,-1.03 0.55,-0.21 0.82,0 0.82,0.62 0,0.34 -0.1,0.75 -0.31,1.23 -6.3,12.73 -11.6,19.1 -15.91,19.1 -1.98,0 -3.59,-0.96 -4.83,-2.88 -0.62,-1.03 -0.92,-2.4 -0.92,-4.11 0,-1.71 0.34,-3.8 1.03,-6.26 -5.48,8.83 -10.2,13.24 -14.17,13.24 -1.1,0 -2.09,-0.34 -2.98,-1.03 -2.05,-1.44 -3.08,-3.9 -3.08,-7.39 0,-6.71 2.91,-13.52 8.73,-20.43 3.29,-3.83 7.32,-6.33 12.12,-7.49 1.3,-0.34 2.53,-0.51 3.7,-0.51 3.15,0 5.82,1.1 8.01,3.29 0.68,0.75 0.89,1.47 0.62,2.16 -0.27,0.68 -0.86,0.96 -1.75,0.82 -0.75,-2.46 -2.4,-3.7 -4.93,-3.7 -2.94,0 -6.57,2.33 -10.88,6.98 -2.46,2.74 -4.76,5.95 -6.88,9.65 -2.67,4.45 -4,8.01 -4,10.68 0,2.67 0.86,4 2.57,4 4.11,0 9.48,-6.3 16.12,-18.89 1.3,-2.53 2.4,-4.26 3.29,-5.18 0.89,-0.92 2.02,-1.39 3.39,-1.39 0.27,0 0.97,0.1 2.1,0.31 1.13,0.21 1.97,0.24 2.51,0.1z"/>
   <path id="_3_8" class="fil2" d="M187.06 67c-0.07,0.27 -0.38,1.21 -0.92,2.82 -0.55,1.61 -1.01,3.15 -1.39,4.62 -0.38,1.47 -0.56,2.94 -0.56,4.41 0,1.47 0.34,2.84 1.03,4.11 0.68,1.27 1.78,1.9 3.29,1.9 2.46,0 4.86,-1.66 7.19,-4.98 2.33,-3.32 4.79,-7.55 7.39,-12.68 0.55,-0.96 1.06,-1.33 1.54,-1.13 0.34,0.27 0.41,0.63 0.21,1.08 -0.21,0.44 -0.63,1.4 -1.28,2.88 -0.65,1.47 -1.13,2.5 -1.44,3.08 -0.31,0.58 -0.86,1.61 -1.64,3.08 -0.79,1.47 -1.47,2.57 -2.05,3.29 -0.58,0.72 -1.37,1.64 -2.36,2.77 -0.99,1.13 -1.93,1.97 -2.82,2.52 -2.4,1.51 -4.65,2.26 -6.78,2.26 -2.12,0 -3.76,-0.46 -4.93,-1.39 -1.16,-0.92 -1.86,-1.92 -2.1,-2.98 -0.24,-1.06 -0.36,-2 -0.36,-2.82 0,-0.82 0.03,-1.88 0.1,-3.18 0.21,-2.19 0.63,-4.31 1.28,-6.37 0.65,-2.05 1.01,-3.22 1.08,-3.49 1.57,-5.68 3.82,-11.88 6.73,-18.58 2.91,-6.71 5.37,-11.76 7.39,-15.14 2.02,-3.39 3.61,-5.7 4.77,-6.93 2.33,-2.46 4.62,-3.7 6.88,-3.7 1.57,0 2.64,1.13 3.18,3.39 0.07,0.41 0.1,0.92 0.1,1.54 0,2.33 -0.82,5.27 -2.46,8.83 -5.89,13.07 -12.9,23.34 -21.05,30.8zm0.82 -3.29c3.49,-3.56 6.95,-8.04 10.37,-13.45 3.42,-5.41 5.94,-10.01 7.55,-13.81 1.61,-3.8 2.41,-6.38 2.41,-7.75 0,-1.37 -0.24,-2.05 -0.72,-2.05 -0.68,0 -1.99,1.35 -3.9,4.06 -1.92,2.7 -4.5,7.56 -7.75,14.58 -3.25,7.02 -5.9,13.16 -7.96,18.43z"/>
   <path id="_4_9" class="fil2" d="M224.84 80.86c0,2.19 0.89,3.29 2.67,3.29 3.22,0 7.49,-5.37 12.83,-16.12 0.21,-0.41 0.39,-0.82 0.56,-1.23 0.17,-0.41 0.45,-0.68 0.82,-0.82 0.38,-0.14 0.63,-0.05 0.77,0.26 0.14,0.31 0.07,0.8 -0.21,1.49 -5.48,12.73 -11.02,19.1 -16.63,19.1 -1.85,0 -3.32,-0.82 -4.41,-2.46 -1.1,-1.64 -1.64,-3.27 -1.64,-4.88 0,-1.61 0.17,-3.1 0.51,-4.47 -3.97,6.57 -7.39,10.3 -10.27,11.19 -0.82,0.34 -1.63,0.51 -2.41,0.51 -0.79,0 -1.56,-0.1 -2.31,-0.31 -3.35,-0.89 -5.03,-3.56 -5.03,-8.01 0,-3.01 0.77,-6.35 2.31,-10.01 1.54,-3.66 3.71,-7.17 6.52,-10.52 2.81,-3.35 6.19,-5.61 10.16,-6.78 1.44,-0.48 3.13,-0.72 5.08,-0.72 1.95,0 4.12,0.62 6.52,1.85 4.65,-8.76 8.62,-16.87 11.91,-24.33 0.96,-2.26 1.9,-3.71 2.82,-4.36 0.92,-0.65 1.78,-0.97 2.57,-0.97 0.79,0 1.27,0 1.44,0 0.17,0 0.82,0.09 1.95,0.26 1.13,0.17 2,0.22 2.62,0.15 -1.57,1.44 -5.75,8.42 -12.53,20.94 -8.62,16.02 -13.83,26.69 -15.61,32.03 -0.68,1.99 -1.03,3.63 -1.03,4.93zm5.03 -27c-0.89,-0.89 -2.14,-1.33 -3.75,-1.33 -1.61,0 -3.85,1.2 -6.73,3.59 -4.59,3.83 -8.38,8.56 -11.4,14.17 -1.99,3.7 -2.98,6.74 -2.98,9.14 0,1.1 0.22,2.09 0.67,2.98 0.44,0.89 1.15,1.33 2.1,1.33 2.33,0 5.2,-2.4 8.62,-7.19 3.42,-4.79 7.91,-12.35 13.45,-22.69z"/>
   <path id="_5_10" class="fil2" d="M254.92 46.88c-0.96,0.82 -2.02,1.23 -3.18,1.23 -1.16,0 -2.09,-0.41 -2.77,-1.23 -0.68,-0.82 -0.96,-1.81 -0.82,-2.98 0.21,-1.16 0.79,-2.16 1.75,-2.98 0.96,-0.82 2.02,-1.23 3.18,-1.23 1.16,0 2.1,0.41 2.82,1.23 0.72,0.82 0.98,1.81 0.77,2.98 -0.21,1.16 -0.79,2.16 -1.75,2.98zm-10.06 37.68c1.3,0 2.67,-0.65 4.11,-1.95 2.53,-2.53 5.75,-7.7 9.65,-15.5 0.48,-1.03 0.96,-1.34 1.44,-0.92 0.14,0.14 0.21,0.36 0.21,0.67 0,0.31 -0.27,1.06 -0.82,2.26 -0.55,1.2 -1.04,2.28 -1.49,3.23 -0.45,0.96 -1.3,2.52 -2.57,4.67 -1.27,2.16 -2.41,3.82 -3.44,4.98 -2.81,3.22 -5.46,4.83 -7.96,4.83 -2.5,0 -4.3,-0.75 -5.39,-2.26 -1.1,-1.51 -1.64,-3.18 -1.64,-5.03 0,-1.85 0.45,-3.87 1.34,-6.06l6.57 -16.74c0.14,-0.41 0.21,-0.96 0.21,-1.64 0,-0.68 -0.41,-1.57 -1.23,-2.67l5.65 -0.1c1.57,0 2.5,0.29 2.77,0.87 0.27,0.58 0.07,1.49 -0.62,2.72l-8.21 19.2c-1.16,2.53 -1.75,4.69 -1.75,6.47 0,1.99 1.06,2.98 3.18,2.98z"/>
   <path id="_6_11" class="fil2" d="M289.73 53.14c-8.42,14.78 -12.63,24.44 -12.63,28.95 0,1.78 0.65,2.67 1.95,2.67 3.49,0 8.18,-5.92 14.07,-17.76 0.41,-0.96 0.82,-1.33 1.23,-1.13 0.41,0.21 0.62,0.48 0.62,0.82 0,0.34 -0.14,0.75 -0.41,1.23 -3.63,7.32 -6.69,12.37 -9.19,15.14 -2.5,2.77 -5,4.16 -7.5,4.16 -2.5,0 -4.4,-0.96 -5.7,-2.88 -0.68,-0.89 -1.03,-2.1 -1.03,-3.64 0,-1.54 0.34,-3.41 1.03,-5.6 0.68,-2.19 2.57,-5.75 5.65,-10.68 0.75,-1.23 1.13,-2.21 1.13,-2.93 0,-0.72 -0.58,-1.08 -1.75,-1.08 -1.16,0 -3.39,1.54 -6.67,4.62 -4.93,4.52 -9.69,11.29 -14.27,20.33 -0.41,0.68 -0.87,1.11 -1.39,1.28 -0.51,0.17 -1.52,0.29 -3.03,0.36 -1.51,0.07 -2.5,0.24 -2.98,0.51 1.1,-2.19 3.25,-6.67 6.47,-13.45 5.75,-11.98 9.51,-18.82 11.29,-20.53 0.82,-0.82 1.95,-1.23 3.39,-1.23 0.27,0 0.98,0.1 2.1,0.31 1.13,0.21 1.97,0.24 2.52,0.1 -2.53,1.37 -6.67,7.8 -12.42,19.3 3.22,-3.97 6.14,-7.14 8.78,-9.5 2.64,-2.36 5.8,-4.55 9.5,-6.57 3.7,-2.02 6.4,-3.03 8.11,-3.03 0.41,0 0.79,0.07 1.13,0.21z"/>
   <path id="_7_12" class="fil2" d="M311.8 50.88c5,0 7.5,3.15 7.5,9.45 0,2.87 -0.75,5.95 -2.26,9.24 -1.92,4.45 -4.79,8.49 -8.62,12.12 0.89,1.71 2.5,2.57 4.83,2.57 1.85,0 3.59,-0.92 5.24,-2.77 2.05,-2.12 3.52,-3.99 4.41,-5.6 0.89,-1.61 1.54,-2.79 1.95,-3.54 0.41,-0.75 0.94,-1.83 1.59,-3.23 0.65,-1.4 1.04,-2.26 1.18,-2.57 0.14,-0.31 0.38,-0.46 0.72,-0.46 0.68,-0.07 1.03,0.17 1.03,0.72 0,0.21 -0.07,0.45 -0.21,0.72l-0.62 1.44c-0.41,0.96 -0.72,1.64 -0.92,2.05 -0.21,0.41 -0.56,1.15 -1.08,2.21 -0.51,1.06 -0.96,1.9 -1.33,2.52 -0.38,0.62 -0.89,1.44 -1.54,2.46 -0.65,1.03 -1.23,1.85 -1.75,2.46 -0.51,0.62 -1.15,1.3 -1.9,2.05 -0.75,0.75 -1.47,1.33 -2.16,1.75 -1.71,1.03 -3.32,1.54 -4.83,1.54 -2.81,0 -5,-0.89 -6.57,-2.67 -3.15,2.33 -6.06,3.49 -8.73,3.49 -5,0 -7.5,-3.15 -7.5,-9.45 0,-2.87 0.75,-5.95 2.26,-9.24 2.05,-4.79 4.95,-8.86 8.68,-12.22 3.73,-3.35 7.27,-5.03 10.63,-5.03zm1.13 3.18c-1.85,0 -4.04,1.23 -6.57,3.7 -2.53,2.46 -4.79,5.82 -6.78,10.06 -2.4,4.93 -3.59,8.97 -3.59,12.11 0,3.15 1.2,4.72 3.59,4.72 1.71,0 3.63,-0.92 5.75,-2.77 -1.1,-1.57 -1.64,-3.25 -1.64,-5.03 0.14,-2.94 1.33,-4.41 3.59,-4.41 0.89,0 1.63,0.31 2.21,0.92 0.58,0.62 0.87,1.18 0.87,1.69 0,0.51 -0.07,1.04 -0.21,1.59 1.16,-1.71 2.5,-4.14 4,-7.29 1.71,-3.49 2.57,-6.91 2.57,-10.27 0,-3.35 -1.27,-5.03 -3.8,-5.03z"/>
   <path class="fil3" d="M84.9 84.35c-7.6,5.82 -15.3,8.73 -23.1,8.73 -8.21,0 -14.2,-3.05 -17.97,-9.14 -2.67,-4.45 -4,-9.39 -4,-14.84 0,-5.44 0.99,-10.87 2.98,-16.27 -4.79,-3.22 -7.43,-7.53 -7.91,-12.94 -0.14,-1.03 -0.21,-2.05 -0.21,-3.08 0,-8.21 3.52,-15.09 10.57,-20.64 7.53,-5.89 16.43,-8.83 26.69,-8.83 10.27,0 18.77,2.86 25.51,8.57 6.74,5.72 10.11,13.88 10.11,24.49 0,0.68 0,1.37 0,2.05 6.85,-4.52 11.29,-8.83 13.35,-12.94 0.34,-0.75 0.79,-1.08 1.33,-0.98 0.55,0.1 0.82,0.32 0.82,0.67 0,0.34 -0.21,0.82 -0.62,1.44 -4.04,6.37 -9.14,11.5 -15.3,15.4 -0.27,3.22 -1.15,7.08 -2.62,11.6 -1.47,4.52 -3.95,9.19 -7.44,14.01 -3.49,4.83 -7.56,9.05 -12.22,12.68zm16.63 -44.05c0,-11.57 -3.7,-20.12 -11.09,-25.67 -4.93,-3.7 -10.68,-5.54 -17.25,-5.54 -1.92,0 -3.87,0.17 -5.85,0.51 -8.35,1.23 -15.16,4.69 -20.43,10.37 -4.45,4.93 -6.67,10.51 -6.67,16.74 0,5.41 1.47,9.38 4.41,11.91 2.67,-5.68 6.61,-11.43 11.81,-17.25 5.68,-6.37 11.67,-10.27 17.97,-11.7 1.03,-0.21 2.34,-0.31 3.95,-0.31 1.61,0 3.47,0.65 5.6,1.95 0.48,0.27 0.74,0.55 0.77,0.82 0.03,0.27 -0.12,0.48 -0.46,0.62 -0.34,0.14 -0.86,0.09 -1.54,-0.15 -0.68,-0.24 -1.83,-0.36 -3.44,-0.36 -1.61,0 -3.92,0.82 -6.93,2.46 -3.01,1.64 -6.06,4.21 -9.14,7.7 -6.09,6.91 -10.54,13.48 -13.35,19.71 4.31,1.99 9.48,2.98 15.5,2.98 2.67,0 5.51,-0.17 8.52,-0.51 9.79,-1.3 18.93,-4.24 27.41,-8.83 0.14,-1.85 0.21,-3.66 0.21,-5.44zm-0.82 9.04c-11.43,6.09 -23.48,9.14 -36.14,9.14 -6.16,0 -11.57,-0.92 -16.22,-2.77 -2.12,5.54 -3.18,10.34 -3.18,14.37 0,9.45 2.84,15.57 8.52,18.38 3.08,1.44 6.14,2.16 9.19,2.16 3.05,0 6.01,-0.65 8.88,-1.95 6.02,-2.74 11.43,-7.02 16.22,-12.83 4.79,-5.82 8.42,-12.22 10.88,-19.2 0.96,-2.74 1.57,-5.17 1.85,-7.29z"/>
   <path id="_1_13" class="fil3" d="M135.93 58.89c0,-3.9 -1.61,-5.85 -4.83,-5.85 -0.27,0 -0.55,0 -0.82,0 -1.23,0.14 -1.95,-0.1 -2.16,-0.72 -0.21,-0.62 0.1,-1.03 0.92,-1.23 0.82,-0.21 1.71,-0.24 2.67,-0.1 3.56,0.55 5.99,2.22 7.29,5.03 0.89,1.71 1.34,3.39 1.34,5.03 0,5.89 -2.16,11.67 -6.47,17.35 -4.31,5.75 -9.89,8.62 -16.74,8.62 -2.53,0 -4.59,-0.72 -6.16,-2.16 -1.57,-1.44 -2.36,-3.35 -2.36,-5.75 0,-2.87 1.64,-7.73 4.93,-14.58 -5.61,10.61 -9.24,16.7 -10.88,18.28 -0.68,0.62 -1.03,0.41 -1.03,-0.62 0,-0.21 0.07,-0.44 0.21,-0.72 2.4,-3.15 7.17,-11.7 14.32,-25.67 7.15,-13.96 12.17,-23.1 15.04,-27.41 2.33,-3.35 4.59,-5.03 6.78,-5.03 0,0 0.03,0 0.1,0l0.51 0c0.07,0 0.67,0.1 1.8,0.31 1.13,0.21 1.97,0.24 2.52,0.1 -2.26,2.4 -5.82,7.19 -10.68,14.37 -12.05,17.86 -18.07,31.21 -18.07,40.04 0,3.63 1.16,5.68 3.49,6.16 0.21,0.07 0.44,0.1 0.72,0.1 2.12,0 4.77,-1.9 7.96,-5.7 3.18,-3.8 5.8,-8.13 7.85,-12.99 1.16,-2.53 1.75,-4.83 1.75,-6.88z"/>
   <path id="_2_14" class="fil3" d="M176.69 58.99c-1.23,1.23 -2.98,4.02 -5.24,8.37 -2.26,4.35 -3.61,7.6 -4.06,9.75 -0.44,2.16 -0.67,3.9 -0.67,5.24 0,1.33 0.51,2 1.54,2 1.3,0 2.91,-1.2 4.83,-3.59 2.81,-3.49 5.58,-8.04 8.32,-13.66 0.27,-0.62 0.58,-0.96 0.92,-1.03 0.55,-0.21 0.82,0 0.82,0.62 0,0.34 -0.1,0.75 -0.31,1.23 -6.3,12.73 -11.6,19.1 -15.91,19.1 -1.99,0 -3.59,-0.96 -4.83,-2.88 -0.62,-1.03 -0.92,-2.4 -0.92,-4.11 0,-1.71 0.34,-3.8 1.03,-6.26 -5.48,8.83 -10.2,13.24 -14.17,13.24 -1.1,0 -2.09,-0.34 -2.98,-1.03 -2.05,-1.44 -3.08,-3.9 -3.08,-7.39 0,-6.71 2.91,-13.52 8.73,-20.43 3.29,-3.83 7.32,-6.33 12.11,-7.5 1.3,-0.34 2.53,-0.51 3.7,-0.51 3.15,0 5.82,1.1 8.01,3.29 0.68,0.75 0.89,1.47 0.62,2.16 -0.27,0.68 -0.86,0.96 -1.75,0.82 -0.75,-2.46 -2.4,-3.7 -4.93,-3.7 -2.94,0 -6.57,2.33 -10.88,6.98 -2.46,2.74 -4.76,5.95 -6.88,9.65 -2.67,4.45 -4,8.01 -4,10.68 0,2.67 0.86,4 2.57,4 4.11,0 9.48,-6.3 16.12,-18.89 1.3,-2.53 2.4,-4.26 3.29,-5.19 0.89,-0.92 2.02,-1.39 3.39,-1.39 0.27,0 0.98,0.1 2.1,0.31 1.13,0.21 1.97,0.24 2.52,0.1z"/>
   <path id="_3_15" class="fil3" d="M187.06 67c-0.07,0.27 -0.38,1.21 -0.92,2.82 -0.55,1.61 -1.01,3.15 -1.39,4.62 -0.38,1.47 -0.56,2.94 -0.56,4.41 0,1.47 0.34,2.84 1.03,4.11 0.68,1.27 1.78,1.9 3.29,1.9 2.46,0 4.86,-1.66 7.19,-4.98 2.33,-3.32 4.79,-7.55 7.39,-12.68 0.55,-0.96 1.06,-1.34 1.54,-1.13 0.34,0.27 0.41,0.63 0.21,1.08 -0.21,0.44 -0.63,1.4 -1.28,2.87 -0.65,1.47 -1.13,2.5 -1.44,3.08 -0.31,0.58 -0.86,1.61 -1.64,3.08 -0.79,1.47 -1.47,2.57 -2.05,3.29 -0.58,0.72 -1.37,1.64 -2.36,2.77 -0.99,1.13 -1.93,1.97 -2.82,2.52 -2.4,1.51 -4.65,2.26 -6.78,2.26 -2.12,0 -3.76,-0.46 -4.93,-1.39 -1.16,-0.92 -1.86,-1.92 -2.1,-2.98 -0.24,-1.06 -0.36,-2 -0.36,-2.82 0,-0.82 0.03,-1.88 0.1,-3.18 0.21,-2.19 0.63,-4.31 1.28,-6.37 0.65,-2.05 1.01,-3.22 1.08,-3.49 1.57,-5.68 3.82,-11.88 6.73,-18.58 2.91,-6.71 5.37,-11.76 7.39,-15.14 2.02,-3.39 3.61,-5.7 4.77,-6.93 2.33,-2.46 4.62,-3.7 6.88,-3.7 1.57,0 2.64,1.13 3.18,3.39 0.07,0.41 0.1,0.92 0.1,1.54 0,2.33 -0.82,5.27 -2.46,8.83 -5.89,13.07 -12.9,23.34 -21.05,30.8zm0.82 -3.29c3.49,-3.56 6.95,-8.04 10.37,-13.45 3.42,-5.41 5.94,-10.01 7.55,-13.81 1.61,-3.8 2.41,-6.38 2.41,-7.75 0,-1.37 -0.24,-2.05 -0.72,-2.05 -0.68,0 -1.99,1.35 -3.9,4.06 -1.92,2.7 -4.5,7.56 -7.75,14.58 -3.25,7.02 -5.9,13.16 -7.96,18.43z"/>
   <path id="_4_16" class="fil3" d="M224.84 80.86c0,2.19 0.89,3.29 2.67,3.29 3.22,0 7.5,-5.37 12.83,-16.12 0.21,-0.41 0.39,-0.82 0.56,-1.23 0.17,-0.41 0.45,-0.68 0.82,-0.82 0.38,-0.14 0.63,-0.05 0.77,0.26 0.14,0.31 0.07,0.8 -0.21,1.49 -5.48,12.73 -11.02,19.1 -16.63,19.1 -1.85,0 -3.32,-0.82 -4.41,-2.46 -1.1,-1.64 -1.64,-3.27 -1.64,-4.88 0,-1.61 0.17,-3.1 0.51,-4.47 -3.97,6.57 -7.39,10.3 -10.27,11.19 -0.82,0.34 -1.63,0.51 -2.41,0.51 -0.79,0 -1.56,-0.1 -2.31,-0.31 -3.35,-0.89 -5.03,-3.56 -5.03,-8.01 0,-3.01 0.77,-6.35 2.31,-10.01 1.54,-3.66 3.71,-7.17 6.52,-10.52 2.81,-3.35 6.19,-5.61 10.16,-6.78 1.44,-0.48 3.13,-0.72 5.08,-0.72 1.95,0 4.12,0.62 6.52,1.85 4.65,-8.76 8.62,-16.87 11.91,-24.33 0.96,-2.26 1.9,-3.71 2.82,-4.36 0.92,-0.65 1.78,-0.97 2.57,-0.97 0.79,0 1.27,0 1.44,0 0.17,0 0.82,0.09 1.95,0.26 1.13,0.17 2,0.22 2.62,0.15 -1.57,1.44 -5.75,8.42 -12.53,20.95 -8.62,16.02 -13.83,26.69 -15.61,32.03 -0.68,1.99 -1.03,3.63 -1.03,4.93zm5.03 -27c-0.89,-0.89 -2.14,-1.33 -3.75,-1.33 -1.61,0 -3.85,1.2 -6.73,3.59 -4.59,3.83 -8.39,8.56 -11.4,14.17 -1.99,3.7 -2.98,6.74 -2.98,9.14 0,1.1 0.22,2.09 0.67,2.98 0.44,0.89 1.15,1.33 2.1,1.33 2.33,0 5.2,-2.4 8.62,-7.19 3.42,-4.79 7.91,-12.35 13.45,-22.69z"/>
   <path id="_5_17" class="fil3" d="M254.92 46.88c-0.96,0.82 -2.02,1.23 -3.18,1.23 -1.16,0 -2.09,-0.41 -2.77,-1.23 -0.68,-0.82 -0.96,-1.81 -0.82,-2.98 0.21,-1.16 0.79,-2.16 1.75,-2.98 0.96,-0.82 2.02,-1.23 3.18,-1.23 1.16,0 2.1,0.41 2.82,1.23 0.72,0.82 0.98,1.81 0.77,2.98 -0.21,1.16 -0.79,2.16 -1.75,2.98zm-10.06 37.68c1.3,0 2.67,-0.65 4.11,-1.95 2.53,-2.53 5.75,-7.7 9.65,-15.5 0.48,-1.03 0.96,-1.33 1.44,-0.92 0.14,0.14 0.21,0.36 0.21,0.67 0,0.31 -0.27,1.06 -0.82,2.26 -0.55,1.2 -1.04,2.28 -1.49,3.23 -0.44,0.96 -1.3,2.52 -2.57,4.67 -1.27,2.16 -2.41,3.82 -3.44,4.98 -2.81,3.22 -5.46,4.83 -7.96,4.83 -2.5,0 -4.3,-0.75 -5.39,-2.26 -1.1,-1.51 -1.64,-3.18 -1.64,-5.03 0,-1.85 0.45,-3.87 1.34,-6.06l6.57 -16.74c0.14,-0.41 0.21,-0.96 0.21,-1.64 0,-0.68 -0.41,-1.57 -1.23,-2.67l5.65 -0.1c1.57,0 2.5,0.29 2.77,0.87 0.27,0.58 0.07,1.49 -0.62,2.72l-8.21 19.2c-1.16,2.53 -1.75,4.69 -1.75,6.47 0,1.99 1.06,2.98 3.18,2.98z"/>
   <path id="_6_18" class="fil3" d="M289.73 53.14c-8.42,14.78 -12.63,24.44 -12.63,28.95 0,1.78 0.65,2.67 1.95,2.67 3.49,0 8.18,-5.92 14.07,-17.76 0.41,-0.96 0.82,-1.34 1.23,-1.13 0.41,0.21 0.62,0.48 0.62,0.82 0,0.34 -0.14,0.75 -0.41,1.23 -3.63,7.32 -6.69,12.37 -9.19,15.14 -2.5,2.77 -5,4.16 -7.49,4.16 -2.5,0 -4.4,-0.96 -5.7,-2.88 -0.68,-0.89 -1.03,-2.1 -1.03,-3.64 0,-1.54 0.34,-3.41 1.03,-5.6 0.68,-2.19 2.57,-5.75 5.65,-10.68 0.75,-1.23 1.13,-2.21 1.13,-2.93 0,-0.72 -0.58,-1.08 -1.75,-1.08 -1.16,0 -3.39,1.54 -6.67,4.62 -4.93,4.52 -9.69,11.29 -14.27,20.33 -0.41,0.68 -0.87,1.11 -1.39,1.28 -0.51,0.17 -1.52,0.29 -3.03,0.36 -1.51,0.07 -2.5,0.24 -2.98,0.51 1.1,-2.19 3.25,-6.67 6.47,-13.45 5.75,-11.98 9.51,-18.82 11.29,-20.53 0.82,-0.82 1.95,-1.23 3.39,-1.23 0.27,0 0.98,0.1 2.1,0.31 1.13,0.21 1.97,0.24 2.52,0.1 -2.53,1.37 -6.67,7.8 -12.42,19.3 3.22,-3.97 6.14,-7.14 8.78,-9.5 2.64,-2.36 5.8,-4.55 9.5,-6.57 3.7,-2.02 6.4,-3.03 8.11,-3.03 0.41,0 0.79,0.07 1.13,0.21z"/>
   <path id="_7_19" class="fil3" d="M311.8 50.88c5,0 7.49,3.15 7.49,9.45 0,2.88 -0.75,5.95 -2.26,9.24 -1.92,4.45 -4.79,8.49 -8.62,12.12 0.89,1.71 2.5,2.57 4.82,2.57 1.85,0 3.59,-0.92 5.24,-2.77 2.05,-2.12 3.52,-3.99 4.41,-5.6 0.89,-1.61 1.54,-2.79 1.95,-3.54 0.41,-0.75 0.94,-1.83 1.59,-3.23 0.65,-1.4 1.04,-2.26 1.18,-2.57 0.14,-0.31 0.38,-0.46 0.72,-0.46 0.68,-0.07 1.03,0.17 1.03,0.72 0,0.21 -0.07,0.44 -0.21,0.72l-0.62 1.44c-0.41,0.96 -0.72,1.64 -0.92,2.05 -0.21,0.41 -0.56,1.15 -1.08,2.21 -0.51,1.06 -0.96,1.9 -1.34,2.52 -0.38,0.62 -0.89,1.44 -1.54,2.46 -0.65,1.03 -1.23,1.85 -1.75,2.46 -0.51,0.62 -1.15,1.3 -1.9,2.05 -0.75,0.75 -1.47,1.34 -2.16,1.75 -1.71,1.03 -3.32,1.54 -4.83,1.54 -2.81,0 -5,-0.89 -6.57,-2.67 -3.15,2.33 -6.06,3.49 -8.73,3.49 -5,0 -7.5,-3.15 -7.5,-9.45 0,-2.88 0.75,-5.95 2.26,-9.24 2.05,-4.79 4.95,-8.86 8.68,-12.22 3.73,-3.35 7.27,-5.03 10.63,-5.03zm1.13 3.18c-1.85,0 -4.04,1.23 -6.57,3.7 -2.53,2.46 -4.79,5.82 -6.78,10.06 -2.4,4.93 -3.59,8.97 -3.59,12.11 0,3.15 1.2,4.72 3.59,4.72 1.71,0 3.63,-0.92 5.75,-2.77 -1.1,-1.57 -1.64,-3.25 -1.64,-5.03 0.14,-2.94 1.33,-4.41 3.59,-4.41 0.89,0 1.63,0.31 2.21,0.92 0.58,0.62 0.87,1.18 0.87,1.69 0,0.51 -0.07,1.04 -0.21,1.59 1.16,-1.71 2.5,-4.14 4,-7.29 1.71,-3.49 2.57,-6.91 2.57,-10.27 0,-3.35 -1.27,-5.03 -3.8,-5.03z"/>
  </g>
  <path class="fil4" d="M209.71 118.65c6.5,-5.13 11.67,-7.7 15.5,-7.7 1.1,0 2.09,0.21 2.98,0.62 1.99,0.82 2.98,2.12 2.98,3.9 0,1.78 -1.03,3.66 -3.08,5.65 -1.23,1.03 -3.25,1.54 -6.06,1.54 -2.81,0 -6.33,-0.51 -10.57,-1.54 -3.35,3.08 -9.38,10.37 -18.07,21.87 -5.61,7.46 -9.33,12.22 -11.14,14.27 -1.81,2.05 -3.44,3.82 -4.88,5.29 -1.44,1.47 -2.7,2.77 -3.8,3.9 -1.1,1.13 -2.43,2.41 -4,3.85 -1.57,1.44 -2.79,2.55 -3.64,3.34 -0.86,0.79 -2.09,1.85 -3.7,3.18 -1.61,1.34 -2.67,2.23 -3.18,2.67 -0.51,0.44 -1.57,1.32 -3.18,2.62 -1.61,1.3 -2.48,2.02 -2.62,2.16 18.75,8.15 31.79,12.94 39.12,14.37 2.67,0.48 5.41,0.72 8.21,0.72 2.81,0 5.66,-0.22 8.57,-0.67 2.91,-0.45 5.48,-1.52 7.7,-3.23 2.22,-1.71 3.51,-3.7 3.85,-5.96 0.34,-2.26 0.89,-3.39 1.64,-3.39 0.62,0 0.92,0.51 0.92,1.54 0,1.03 -0.05,2.05 -0.15,3.08 -0.1,1.03 -0.5,2.22 -1.18,3.59 -0.68,1.37 -1.81,2.93 -3.39,4.67 -1.57,1.75 -4.07,3.2 -7.49,4.36 -3.56,1.23 -7.6,1.85 -12.12,1.85 -4.52,0 -10.78,-1.61 -18.79,-4.83 -8.01,-3.22 -14.92,-6.47 -20.74,-9.75l-8.73 -4.93c-6.91,4.93 -12.83,7.39 -17.76,7.39 -0.96,0 -1.88,-0.1 -2.77,-0.31 -4.11,-0.96 -6.71,-3.22 -7.8,-6.78 -0.34,-1.03 -0.51,-2.02 -0.51,-2.98 0,-2.05 0.84,-3.97 2.52,-5.75 1.68,-1.78 4.06,-2.67 7.14,-2.67 1.51,0 3.18,0.24 5.03,0.72 3.56,0.96 8.45,3.42 14.68,7.39 17.8,-20.81 29.36,-34.46 34.7,-40.97 6.91,-8.14 14.2,-15.33 21.87,-21.56 -10.2,-2.81 -19.78,-4.21 -28.75,-4.21 -4.79,0 -9.51,0.45 -14.17,1.34 -3.15,0.82 -5.95,2.19 -8.42,4.11 -2.94,2.4 -4.41,4.81 -4.41,7.24 0,2.43 1.54,4.71 4.62,6.83 1.57,1.1 1.95,1.78 1.13,2.05 -0.82,0.27 -1.61,0.24 -2.36,-0.1 -1.16,-0.27 -2.43,-1.16 -3.8,-2.67 -2.05,-2.4 -3.08,-5 -3.08,-7.8 0,-3.22 1.2,-6.26 3.59,-9.14 1.51,-1.85 3.9,-3.46 7.19,-4.83 4.31,-1.78 9.34,-2.67 15.09,-2.67 3.9,0 7.75,0.46 11.55,1.39 3.8,0.92 6.67,1.66 8.62,2.21 1.95,0.55 4.69,1.39 8.21,2.52 3.52,1.13 5.84,1.86 6.93,2.21zm3.29 0.92c3.76,1.1 6.67,1.64 8.73,1.64 2.05,0 3.64,-0.36 4.77,-1.08 1.13,-0.72 1.69,-2.07 1.69,-4.06 0,-0.55 -0.22,-1.21 -0.67,-2 -0.45,-0.79 -1.25,-1.18 -2.41,-1.18 -2.81,0 -6.84,2.22 -12.11,6.67zm-85.93 61.91c-0.41,0.75 -0.62,1.64 -0.62,2.67 0,1.03 0.7,2.22 2.1,3.59 1.4,1.37 3.71,2.05 6.93,2.05 2.46,0 5,-0.53 7.6,-1.59 2.6,-1.06 4.65,-2.24 6.16,-3.54 -1.37,-1.1 -2.4,-1.88 -3.08,-2.36 -4.93,-2.74 -9.05,-4.11 -12.37,-4.11 -3.32,0 -5.56,1.1 -6.73,3.29z"/>
  <path id="_1_20" class="fil4" d="M200.57 173.17c-0.96,2.33 -1.44,4.93 -1.44,7.8 0,1.92 0.43,3.44 1.28,4.57 0.86,1.13 2.07,1.69 3.65,1.69 6.23,0 11.87,-5.85 16.94,-17.56 0.48,-1.1 1.06,-1.57 1.75,-1.44 0.27,0.07 0.41,0.24 0.41,0.51 0,0.27 -0.77,2.07 -2.31,5.39 -1.54,3.32 -3.1,6.01 -4.67,8.06 -3.49,4.79 -7.8,7.19 -12.94,7.19 -2.74,0 -5.07,-0.89 -6.98,-2.67 -1.92,-1.78 -2.88,-4.21 -2.88,-7.29 0,-3.08 0.74,-6.35 2.21,-9.81 1.47,-3.46 3.47,-6.67 6.01,-9.65 2.53,-2.98 5.44,-5.15 8.73,-6.52 1.57,-0.68 3.08,-1.03 4.52,-1.03 1.44,0 2.77,0.41 4,1.23 1.16,0.96 1.75,2.02 1.75,3.18 0,4.11 -2.46,8.04 -7.39,11.81 -1.51,1.16 -3.63,2.21 -6.37,3.13 -2.74,0.92 -4.83,1.39 -6.26,1.39zm17.25 -16.43c0,-1.37 -0.55,-2.05 -1.64,-2.05 -1.92,0 -4.83,2.36 -8.73,7.08 -2.33,2.88 -4.38,6.09 -6.16,9.65 1.16,0 2.86,-0.41 5.08,-1.23 2.22,-0.82 4.16,-1.92 5.8,-3.29 3.76,-3.22 5.65,-6.61 5.65,-10.16z"/>
  <path id="_2_21" class="fil4" d="M226.96 169.16c-0.07,0.27 -0.38,1.21 -0.92,2.82 -0.55,1.61 -1.01,3.15 -1.39,4.62 -0.38,1.47 -0.56,2.94 -0.56,4.41 0,1.47 0.34,2.84 1.03,4.11 0.68,1.27 1.78,1.9 3.29,1.9 2.46,0 4.86,-1.66 7.19,-4.98 2.33,-3.32 4.79,-7.55 7.39,-12.68 0.55,-0.96 1.06,-1.33 1.54,-1.13 0.34,0.27 0.41,0.63 0.21,1.08 -0.21,0.44 -0.63,1.4 -1.28,2.88 -0.65,1.47 -1.13,2.5 -1.44,3.08 -0.31,0.58 -0.86,1.61 -1.64,3.08 -0.79,1.47 -1.47,2.57 -2.05,3.29 -0.58,0.72 -1.37,1.64 -2.36,2.77 -0.99,1.13 -1.93,1.97 -2.82,2.52 -2.4,1.51 -4.65,2.26 -6.78,2.26 -2.12,0 -3.76,-0.46 -4.93,-1.39 -1.16,-0.92 -1.86,-1.92 -2.1,-2.98 -0.24,-1.06 -0.36,-2 -0.36,-2.82 0,-0.82 0.03,-1.88 0.1,-3.18 0.21,-2.19 0.63,-4.31 1.28,-6.37 0.65,-2.05 1.01,-3.22 1.08,-3.49 1.57,-5.68 3.82,-11.88 6.73,-18.58 2.91,-6.71 5.37,-11.76 7.39,-15.14 2.02,-3.39 3.61,-5.7 4.77,-6.93 2.33,-2.46 4.62,-3.7 6.88,-3.7 1.57,0 2.64,1.13 3.18,3.39 0.07,0.41 0.1,0.92 0.1,1.54 0,2.33 -0.82,5.27 -2.46,8.83 -5.89,13.07 -12.9,23.34 -21.05,30.8zm0.82 -3.29c3.49,-3.56 6.95,-8.04 10.37,-13.45 3.42,-5.41 5.94,-10.01 7.55,-13.81 1.61,-3.8 2.41,-6.38 2.41,-7.75 0,-1.37 -0.24,-2.05 -0.72,-2.05 -0.68,0 -1.99,1.35 -3.9,4.06 -1.92,2.7 -4.5,7.56 -7.75,14.58 -3.25,7.02 -5.9,13.16 -7.96,18.43z"/>
  <path id="_3_22" class="fil4" d="M257.14 149.04c-0.96,0.82 -2.02,1.23 -3.18,1.23 -1.16,0 -2.09,-0.41 -2.77,-1.23 -0.68,-0.82 -0.96,-1.81 -0.82,-2.98 0.21,-1.16 0.79,-2.16 1.75,-2.98 0.96,-0.82 2.02,-1.23 3.18,-1.23 1.16,0 2.1,0.41 2.82,1.23 0.72,0.82 0.98,1.81 0.77,2.98 -0.21,1.16 -0.79,2.16 -1.75,2.98zm-10.06 37.68c1.3,0 2.67,-0.65 4.11,-1.95 2.53,-2.53 5.75,-7.7 9.65,-15.5 0.48,-1.03 0.96,-1.34 1.44,-0.92 0.14,0.14 0.21,0.36 0.21,0.67 0,0.31 -0.27,1.06 -0.82,2.26 -0.55,1.2 -1.04,2.28 -1.49,3.23 -0.45,0.96 -1.3,2.52 -2.57,4.67 -1.27,2.16 -2.41,3.82 -3.44,4.98 -2.81,3.22 -5.46,4.83 -7.96,4.83 -2.5,0 -4.3,-0.75 -5.39,-2.26 -1.1,-1.51 -1.64,-3.18 -1.64,-5.03 0,-1.85 0.45,-3.87 1.34,-6.06l6.57 -16.74c0.14,-0.41 0.21,-0.96 0.21,-1.64 0,-0.68 -0.41,-1.57 -1.23,-2.67l5.65 -0.1c1.57,0 2.5,0.29 2.77,0.87 0.27,0.58 0.07,1.49 -0.62,2.72l-8.21 19.2c-1.16,2.53 -1.75,4.69 -1.75,6.47 0,1.99 1.06,2.98 3.18,2.98z"/>
  <path id="_4_23" class="fil4" d="M291.95 155.3c-8.42,14.78 -12.63,24.44 -12.63,28.95 0,1.78 0.65,2.67 1.95,2.67 3.49,0 8.18,-5.92 14.07,-17.76 0.41,-0.96 0.82,-1.33 1.23,-1.13 0.41,0.21 0.62,0.48 0.62,0.82 0,0.34 -0.14,0.75 -0.41,1.23 -3.63,7.32 -6.69,12.37 -9.19,15.14 -2.5,2.77 -5,4.16 -7.5,4.16 -2.5,0 -4.4,-0.96 -5.7,-2.88 -0.68,-0.89 -1.03,-2.1 -1.03,-3.64 0,-1.54 0.34,-3.41 1.03,-5.6 0.68,-2.19 2.57,-5.75 5.65,-10.68 0.75,-1.23 1.13,-2.21 1.13,-2.93 0,-0.72 -0.58,-1.08 -1.75,-1.08 -1.16,0 -3.39,1.54 -6.67,4.62 -4.93,4.52 -9.69,11.29 -14.27,20.33 -0.41,0.68 -0.87,1.11 -1.39,1.28 -0.51,0.17 -1.52,0.29 -3.03,0.36 -1.51,0.07 -2.5,0.24 -2.98,0.51 1.1,-2.19 3.25,-6.67 6.47,-13.45 5.75,-11.98 9.51,-18.82 11.29,-20.53 0.82,-0.82 1.95,-1.23 3.39,-1.23 0.27,0 0.98,0.1 2.1,0.31 1.13,0.21 1.97,0.24 2.52,0.1 -2.53,1.37 -6.67,7.8 -12.42,19.3 3.22,-3.97 6.14,-7.14 8.78,-9.5 2.64,-2.36 5.8,-4.55 9.5,-6.57 3.7,-2.02 6.4,-3.03 8.11,-3.03 0.41,0 0.79,0.07 1.13,0.21z"/>
  <path id="_5_24" class="fil4" d="M317 183.02c0,2.19 0.89,3.29 2.67,3.29 3.22,0 7.49,-5.37 12.83,-16.12 0.21,-0.41 0.39,-0.82 0.56,-1.23 0.17,-0.41 0.45,-0.68 0.82,-0.82 0.38,-0.14 0.63,-0.05 0.77,0.26 0.14,0.31 0.07,0.8 -0.21,1.49 -5.48,12.73 -11.02,19.1 -16.63,19.1 -1.85,0 -3.32,-0.82 -4.41,-2.46 -1.1,-1.64 -1.64,-3.27 -1.64,-4.88 0,-1.61 0.17,-3.1 0.51,-4.47 -3.97,6.57 -7.39,10.3 -10.27,11.19 -0.82,0.34 -1.63,0.51 -2.41,0.51 -0.79,0 -1.56,-0.1 -2.31,-0.31 -3.35,-0.89 -5.03,-3.56 -5.03,-8.01 0,-3.01 0.77,-6.35 2.31,-10.01 1.54,-3.66 3.71,-7.17 6.52,-10.52 2.81,-3.35 6.19,-5.61 10.16,-6.78 1.44,-0.48 3.13,-0.72 5.08,-0.72 1.95,0 4.12,0.62 6.52,1.85 4.65,-8.76 8.62,-16.87 11.91,-24.33 0.96,-2.26 1.9,-3.71 2.82,-4.36 0.92,-0.65 1.78,-0.97 2.57,-0.97 0.79,0 1.27,0 1.44,0 0.17,0 0.82,0.09 1.95,0.26 1.13,0.17 2,0.22 2.62,0.15 -1.57,1.44 -5.75,8.42 -12.53,20.94 -8.62,16.02 -13.83,26.69 -15.61,32.03 -0.68,1.99 -1.03,3.63 -1.03,4.93zm5.03 -27c-0.89,-0.89 -2.14,-1.33 -3.75,-1.33 -1.61,0 -3.85,1.2 -6.73,3.59 -4.59,3.83 -8.38,8.56 -11.4,14.17 -1.99,3.7 -2.98,6.74 -2.98,9.14 0,1.1 0.22,2.09 0.67,2.98 0.44,0.89 1.15,1.33 2.1,1.33 2.33,0 5.2,-2.4 8.62,-7.19 3.42,-4.79 7.91,-12.35 13.45,-22.69z"/>
  <path id="_6_25" class="fil4" d="M364.23 161.15c-1.23,1.23 -2.98,4.02 -5.24,8.37 -2.26,4.35 -3.61,7.6 -4.06,9.75 -0.44,2.16 -0.67,3.9 -0.67,5.24 0,1.33 0.51,2 1.54,2 1.3,0 2.91,-1.2 4.82,-3.59 2.81,-3.49 5.58,-8.04 8.32,-13.65 0.27,-0.62 0.58,-0.96 0.92,-1.03 0.55,-0.21 0.82,0 0.82,0.62 0,0.34 -0.1,0.75 -0.31,1.23 -6.3,12.73 -11.6,19.1 -15.91,19.1 -1.98,0 -3.59,-0.96 -4.83,-2.88 -0.62,-1.03 -0.92,-2.4 -0.92,-4.11 0,-1.71 0.34,-3.8 1.03,-6.26 -5.48,8.83 -10.2,13.24 -14.17,13.24 -1.1,0 -2.09,-0.34 -2.98,-1.03 -2.05,-1.44 -3.08,-3.9 -3.08,-7.39 0,-6.71 2.91,-13.52 8.73,-20.43 3.29,-3.83 7.32,-6.33 12.12,-7.49 1.3,-0.34 2.53,-0.51 3.7,-0.51 3.15,0 5.82,1.1 8.01,3.29 0.68,0.75 0.89,1.47 0.62,2.16 -0.27,0.68 -0.86,0.96 -1.75,0.82 -0.75,-2.46 -2.4,-3.7 -4.93,-3.7 -2.94,0 -6.57,2.33 -10.88,6.98 -2.46,2.74 -4.76,5.95 -6.88,9.65 -2.67,4.45 -4,8.01 -4,10.68 0,2.67 0.86,4 2.57,4 4.11,0 9.48,-6.3 16.12,-18.89 1.3,-2.53 2.4,-4.26 3.29,-5.18 0.89,-0.92 2.02,-1.39 3.39,-1.39 0.27,0 0.97,0.1 2.1,0.31 1.13,0.21 1.97,0.24 2.51,0.1z"/>
 </g>
</svg>
